<svg width="239" height="239" viewBox="0 0 239 239" fill="none" xmlns="http://www.w3.org/2000/svg">
<mask id="path-1-inside-1_1_210" fill="white">
<path d="M119.166 7.29893C119.166 3.26784 122.437 -0.0233011 126.461 0.223362C152.991 1.84981 178.297 12.3112 198.279 30.0502C220.086 49.409 234.037 76.0913 237.493 105.045C240.948 133.999 233.667 163.216 217.029 187.162C200.391 211.109 175.55 228.124 147.209 234.987C118.869 241.849 88.9956 238.082 63.2459 224.398C37.4962 210.715 17.6572 188.065 7.48502 160.737C-2.68715 133.41 -2.48645 103.301 8.04913 76.1108C17.7032 51.1961 35.421 30.3172 58.2688 16.7347C61.7339 14.6749 66.1485 16.1049 67.9925 19.6895V19.6895C69.8365 23.2741 68.4097 27.6532 64.9623 29.7426C45.2835 41.67 30.0241 59.8018 21.6609 81.3852C12.4159 105.244 12.2398 131.665 21.1659 155.645C30.0919 179.625 47.5007 199.5 70.096 211.507C92.6914 223.514 118.905 226.82 143.774 220.799C168.643 214.777 190.441 199.846 205.041 178.833C219.641 157.82 226.03 132.182 222.998 106.775C219.966 81.368 207.723 57.9543 188.588 40.9669C171.278 25.5999 149.414 16.4567 126.459 14.8524C122.438 14.5713 119.166 11.33 119.166 7.29893V7.29893Z"/>
</mask>
<path d="M119.166 7.29893C119.166 3.26784 122.437 -0.0233011 126.461 0.223362C152.991 1.84981 178.297 12.3112 198.279 30.0502C220.086 49.409 234.037 76.0913 237.493 105.045C240.948 133.999 233.667 163.216 217.029 187.162C200.391 211.109 175.55 228.124 147.209 234.987C118.869 241.849 88.9956 238.082 63.2459 224.398C37.4962 210.715 17.6572 188.065 7.48502 160.737C-2.68715 133.41 -2.48645 103.301 8.04913 76.1108C17.7032 51.1961 35.421 30.3172 58.2688 16.7347C61.7339 14.6749 66.1485 16.1049 67.9925 19.6895V19.6895C69.8365 23.2741 68.4097 27.6532 64.9623 29.7426C45.2835 41.67 30.0241 59.8018 21.6609 81.3852C12.4159 105.244 12.2398 131.665 21.1659 155.645C30.0919 179.625 47.5007 199.5 70.096 211.507C92.6914 223.514 118.905 226.82 143.774 220.799C168.643 214.777 190.441 199.846 205.041 178.833C219.641 157.82 226.03 132.182 222.998 106.775C219.966 81.368 207.723 57.9543 188.588 40.9669C171.278 25.5999 149.414 16.4567 126.459 14.8524C122.438 14.5713 119.166 11.33 119.166 7.29893V7.29893Z" stroke="url(#paint0_linear_1_210)" stroke-width="29.3333" mask="url(#path-1-inside-1_1_210)"/>
<defs>
<linearGradient id="paint0_linear_1_210" x1="-0.000975231" y1="119.167" x2="238.332" y2="119.167" gradientUnits="userSpaceOnUse">
<stop stop-color="#F7797D"/>
<stop offset="0.520833" stop-color="#C471ED"/>
<stop offset="1" stop-color="#12C2E9"/>
</linearGradient>
</defs>
</svg>
