<svg width="239" height="239" viewBox="0 0 239 239" fill="none" xmlns="http://www.w3.org/2000/svg">
<mask id="path-1-inside-1_1_204" fill="white">
<path d="M119.833 7.29893C119.833 3.26784 123.104 -0.0233011 127.128 0.223362C153.658 1.84981 178.964 12.3112 198.946 30.0502C220.753 49.409 234.704 76.0913 238.16 105.045C241.615 133.999 234.334 163.216 217.696 187.162C201.058 211.109 176.217 228.124 147.876 234.987C119.536 241.849 89.6626 238.082 63.9129 224.398C38.1632 210.715 18.3242 188.065 8.15202 160.737C-2.02016 133.41 -1.81946 103.301 8.71612 76.1108C18.3702 51.1961 36.088 30.3172 58.9358 16.7347C62.4009 14.6749 66.8155 16.1049 68.6595 19.6895V19.6895C70.5035 23.2741 69.0767 27.6532 65.6293 29.7426C45.9505 41.67 30.6911 59.8018 22.3279 81.3852C13.0829 105.244 12.9068 131.665 21.8329 155.645C30.7589 179.625 48.1676 199.5 70.763 211.507C93.3584 223.514 119.572 226.82 144.441 220.799C169.31 214.777 191.108 199.846 205.708 178.833C220.308 157.82 226.697 132.182 223.665 106.775C220.633 81.368 208.39 57.9543 189.255 40.9669C171.945 25.5999 150.081 16.4567 127.126 14.8524C123.105 14.5713 119.833 11.33 119.833 7.29893V7.29893Z"/>
</mask>
<path d="M119.833 7.29893C119.833 3.26784 123.104 -0.0233011 127.128 0.223362C153.658 1.84981 178.964 12.3112 198.946 30.0502C220.753 49.409 234.704 76.0913 238.16 105.045C241.615 133.999 234.334 163.216 217.696 187.162C201.058 211.109 176.217 228.124 147.876 234.987C119.536 241.849 89.6626 238.082 63.9129 224.398C38.1632 210.715 18.3242 188.065 8.15202 160.737C-2.02016 133.41 -1.81946 103.301 8.71612 76.1108C18.3702 51.1961 36.088 30.3172 58.9358 16.7347C62.4009 14.6749 66.8155 16.1049 68.6595 19.6895V19.6895C70.5035 23.2741 69.0767 27.6532 65.6293 29.7426C45.9505 41.67 30.6911 59.8018 22.3279 81.3852C13.0829 105.244 12.9068 131.665 21.8329 155.645C30.7589 179.625 48.1676 199.5 70.763 211.507C93.3584 223.514 119.572 226.82 144.441 220.799C169.31 214.777 191.108 199.846 205.708 178.833C220.308 157.82 226.697 132.182 223.665 106.775C220.633 81.368 208.39 57.9543 189.255 40.9669C171.945 25.5999 150.081 16.4567 127.126 14.8524C123.105 14.5713 119.833 11.33 119.833 7.29893V7.29893Z" stroke="url(#paint0_linear_1_204)" stroke-width="29.3333" mask="url(#path-1-inside-1_1_204)"/>
<defs>
<linearGradient id="paint0_linear_1_204" x1="0.666017" y1="119.167" x2="238.999" y2="119.167" gradientUnits="userSpaceOnUse">
<stop stop-color="#F7797D"/>
<stop offset="0.520833" stop-color="#C471ED"/>
<stop offset="1" stop-color="#12C2E9"/>
</linearGradient>
</defs>
</svg>
