<svg width="120" height="154" viewBox="0 0 120 154" fill="none" xmlns="http://www.w3.org/2000/svg">
<mask id="path-1-inside-1_1_192" fill="white">
<path d="M0.166665 7.29893C0.166666 3.26784 3.43764 -0.0232939 7.46118 0.22345C23.7285 1.22105 39.6458 5.54712 54.2169 12.9628C70.9599 21.4838 85.4512 33.8427 96.5081 49.0309C107.565 64.2192 114.874 81.8064 117.84 100.358C120.42 116.502 119.647 132.979 115.599 148.766C114.598 152.671 110.461 154.772 106.625 153.534V153.534C102.788 152.296 100.709 148.186 101.677 144.273C105.038 130.684 105.642 116.533 103.425 102.662C100.823 86.383 94.4088 70.9502 84.7063 57.6225C75.0039 44.2948 62.2878 33.4499 47.5957 25.9727C35.0761 19.6011 21.424 15.8288 7.45984 14.8525C3.43857 14.5714 0.166665 11.33 0.166665 7.29893V7.29893Z"/>
</mask>
<path d="M0.166665 7.29893C0.166666 3.26784 3.43764 -0.0232939 7.46118 0.22345C23.7285 1.22105 39.6458 5.54712 54.2169 12.9628C70.9599 21.4838 85.4512 33.8427 96.5081 49.0309C107.565 64.2192 114.874 81.8064 117.84 100.358C120.42 116.502 119.647 132.979 115.599 148.766C114.598 152.671 110.461 154.772 106.625 153.534V153.534C102.788 152.296 100.709 148.186 101.677 144.273C105.038 130.684 105.642 116.533 103.425 102.662C100.823 86.383 94.4088 70.9502 84.7063 57.6225C75.0039 44.2948 62.2878 33.4499 47.5957 25.9727C35.0761 19.6011 21.424 15.8288 7.45984 14.8525C3.43857 14.5714 0.166665 11.33 0.166665 7.29893V7.29893Z" stroke="url(#paint0_linear_1_192)" stroke-width="29.3333" mask="url(#path-1-inside-1_1_192)"/>
<defs>
<linearGradient id="paint0_linear_1_192" x1="-119" y1="119.167" x2="119.333" y2="119.167" gradientUnits="userSpaceOnUse">
<stop stop-color="#F7797D"/>
<stop offset="0.520833" stop-color="#C471ED"/>
<stop offset="1" stop-color="#12C2E9"/>
</linearGradient>
</defs>
</svg>
