<svg width="26" height="33" viewBox="0 0 26 33" fill="none" xmlns="http://www.w3.org/2000/svg">
<mask id="path-1-inside-1_1_134" fill="white">
<path d="M2.98192e-07 0.994142C3.04739e-07 0.445092 0.445291 -0.00198439 0.993939 0.0190033C4.68134 0.160059 8.30055 1.08467 11.6092 2.73571C15.2146 4.53487 18.3526 7.14741 20.7753 10.3671C23.1981 13.5868 24.8393 17.3256 25.5695 21.2883C26.2396 24.9248 26.1257 28.6585 25.2399 32.2407C25.1081 32.7737 24.5552 33.0777 24.0276 32.9257V32.9257C23.5001 32.7736 23.1978 32.2231 23.3279 31.6896C24.1293 28.4039 24.2284 24.982 23.6142 21.6486C22.9398 17.989 21.424 14.5361 19.1866 11.5626C16.9491 8.58911 14.0511 6.17636 10.7214 4.51478C7.6885 3.00134 4.37303 2.14884 0.993882 2.00886C0.445304 1.98613 2.91645e-07 1.54319 2.98192e-07 0.994142V0.994142Z"/>
</mask>
<path d="M2.98192e-07 0.994142C3.04739e-07 0.445092 0.445291 -0.00198439 0.993939 0.0190033C4.68134 0.160059 8.30055 1.08467 11.6092 2.73571C15.2146 4.53487 18.3526 7.14741 20.7753 10.3671C23.1981 13.5868 24.8393 17.3256 25.5695 21.2883C26.2396 24.9248 26.1257 28.6585 25.2399 32.2407C25.1081 32.7737 24.5552 33.0777 24.0276 32.9257V32.9257C23.5001 32.7736 23.1978 32.2231 23.3279 31.6896C24.1293 28.4039 24.2284 24.982 23.6142 21.6486C22.9398 17.989 21.424 14.5361 19.1866 11.5626C16.9491 8.58911 14.0511 6.17636 10.7214 4.51478C7.6885 3.00134 4.37303 2.14884 0.993882 2.00886C0.445304 1.98613 2.91645e-07 1.54319 2.98192e-07 0.994142V0.994142Z" stroke="url(#paint0_linear_1_134)" stroke-width="4" mask="url(#path-1-inside-1_1_134)"/>
<defs>
<linearGradient id="paint0_linear_1_134" x1="-26" y1="26" x2="26" y2="26" gradientUnits="userSpaceOnUse">
<stop stop-color="#F7797D"/>
<stop offset="0.520833" stop-color="#C471ED"/>
<stop offset="1" stop-color="#12C2E9"/>
</linearGradient>
</defs>
</svg>
