<svg width="234" height="239" viewBox="0 0 234 239" fill="none" xmlns="http://www.w3.org/2000/svg">
<mask id="path-1-inside-1_1_198" fill="white">
<path d="M114.5 7.29893C114.5 3.26784 117.771 -0.0232942 121.794 0.22344C141.541 1.43437 160.718 7.54671 177.569 18.0579C196.488 29.8594 211.717 46.7324 221.524 66.7587C231.33 86.785 235.321 109.161 233.043 131.343C230.764 153.525 222.308 174.622 208.635 192.237C194.962 209.851 176.621 223.276 155.698 230.985C134.774 238.694 112.108 240.378 90.2748 235.845C68.4419 231.312 48.3189 220.744 32.1935 205.343C17.8312 191.626 7.15349 174.565 1.08254 155.735C-0.154454 151.899 2.22248 147.913 6.12761 146.913V146.913C10.0327 145.914 13.9843 148.279 15.254 152.105C20.626 168.292 29.8894 182.956 42.276 194.787C56.426 208.301 74.084 217.574 93.2423 221.552C112.401 225.53 132.291 224.052 150.651 217.288C169.011 210.523 185.106 198.742 197.103 183.286C209.101 167.829 216.522 149.316 218.521 129.851C220.52 110.387 217.018 90.7518 208.413 73.1787C199.808 55.6056 186.445 40.7995 169.843 30.4437C155.31 21.3785 138.806 16.0418 121.793 14.8525C117.772 14.5713 114.5 11.33 114.5 7.29893V7.29893Z"/>
</mask>
<path d="M114.5 7.29893C114.5 3.26784 117.771 -0.0232942 121.794 0.22344C141.541 1.43437 160.718 7.54671 177.569 18.0579C196.488 29.8594 211.717 46.7324 221.524 66.7587C231.33 86.785 235.321 109.161 233.043 131.343C230.764 153.525 222.308 174.622 208.635 192.237C194.962 209.851 176.621 223.276 155.698 230.985C134.774 238.694 112.108 240.378 90.2748 235.845C68.4419 231.312 48.3189 220.744 32.1935 205.343C17.8312 191.626 7.15349 174.565 1.08254 155.735C-0.154454 151.899 2.22248 147.913 6.12761 146.913V146.913C10.0327 145.914 13.9843 148.279 15.254 152.105C20.626 168.292 29.8894 182.956 42.276 194.787C56.426 208.301 74.084 217.574 93.2423 221.552C112.401 225.53 132.291 224.052 150.651 217.288C169.011 210.523 185.106 198.742 197.103 183.286C209.101 167.829 216.522 149.316 218.521 129.851C220.52 110.387 217.018 90.7518 208.413 73.1787C199.808 55.6056 186.445 40.7995 169.843 30.4437C155.31 21.3785 138.806 16.0418 121.793 14.8525C117.772 14.5713 114.5 11.33 114.5 7.29893V7.29893Z" stroke="url(#paint0_linear_1_198)" stroke-width="29.3333" mask="url(#path-1-inside-1_1_198)"/>
<defs>
<linearGradient id="paint0_linear_1_198" x1="-4.66699" y1="119.167" x2="233.666" y2="119.167" gradientUnits="userSpaceOnUse">
<stop stop-color="#F7797D"/>
<stop offset="0.520833" stop-color="#C471ED"/>
<stop offset="1" stop-color="#12C2E9"/>
</linearGradient>
</defs>
</svg>
