<svg width="191" height="54" viewBox="0 0 191 54" fill="none" xmlns="http://www.w3.org/2000/svg">
<rect x="0.447724" y="0.447724" width="189.942" height="52.8314" rx="4.92496" stroke="white" stroke-opacity="0.2" stroke-width="0.895447"/>
<path fill-rule="evenodd" clip-rule="evenodd" d="M29.1802 12.9896C28.8289 13.3439 28.627 13.8892 28.627 14.5979V39.8048C28.627 40.5135 28.8289 41.0588 29.1933 41.4008L29.2885 41.4763L44.339 27.3523V27.035L29.2754 12.9141L29.1802 12.9896V12.9896Z" fill="url(#paint0_linear_1_327)"/>
<path fill-rule="evenodd" clip-rule="evenodd" d="M49.3463 32.0752L44.3262 27.3626V27.0329L49.3479 22.3203L49.4563 22.3835L55.3957 25.5509C57.0965 26.4506 57.0965 27.9326 55.3957 28.8446L49.4563 32.0121C49.4546 32.0121 49.3463 32.0752 49.3463 32.0752V32.0752Z" fill="url(#paint1_linear_1_327)"/>
<path fill-rule="evenodd" clip-rule="evenodd" d="M49.4539 32.0174L44.3254 27.2031L29.1797 41.4165C29.7329 41.9742 30.6637 42.0373 31.7045 41.4919L49.4539 32.0174Z" fill="url(#paint2_linear_1_327)"/>
<path fill-rule="evenodd" clip-rule="evenodd" d="M49.4538 22.3837L31.7045 12.9215C30.6653 12.3638 29.7329 12.4393 29.1796 12.997L44.3237 27.1965L49.4538 22.3837Z" fill="url(#paint3_linear_1_327)"/>
<path opacity="0.2" fill-rule="evenodd" clip-rule="evenodd" d="M49.3461 31.9141L31.7182 41.3131C30.7332 41.8446 29.8549 41.8076 29.2886 41.3254L29.1934 41.4148L29.2886 41.4903C29.8549 41.9709 30.7332 42.0094 31.7182 41.4779L49.4676 32.0157L49.3461 31.9141V31.9141Z" fill="black"/>
<path opacity="0.12" fill-rule="evenodd" clip-rule="evenodd" d="M55.3949 28.6852L49.334 31.9157L49.4423 32.0174L55.3818 28.85C56.2321 28.394 56.6508 27.7993 56.6508 27.2031C56.5966 27.7485 56.1648 28.2677 55.3949 28.6852V28.6852Z" fill="black"/>
<path opacity="0.25" fill-rule="evenodd" clip-rule="evenodd" d="M31.705 13.0905L55.3938 25.7201C56.1638 26.1253 56.5955 26.6568 56.6628 27.2021C56.6628 26.6075 56.2442 26.0113 55.3938 25.5552L31.705 12.9256C30.0043 12.0136 28.627 12.7731 28.627 14.5971V14.762C28.627 12.9379 30.0043 12.1908 31.705 13.0905Z" fill="white"/>
<path fill-rule="evenodd" clip-rule="evenodd" d="M62.4466 26.3957C62.4466 22.3579 66.0632 19.0703 70.3659 19.0703C72.7446 19.0703 74.4372 19.9469 75.7143 21.0885L74.2106 22.4996C73.2979 21.6955 72.0601 21.0715 70.3643 21.0715C67.2222 21.0715 64.7663 23.4455 64.7663 26.3942C64.7663 29.3429 67.2222 31.72 70.3626 31.72C72.3999 31.72 73.5589 30.9528 74.3025 30.2533C74.9116 29.6818 75.3105 28.8607 75.4648 27.7345H70.3659V25.7379H77.5431C77.6186 26.0953 77.658 26.5236 77.658 26.9873C77.658 28.4863 77.2197 30.3458 75.8096 31.6691C74.4372 33.0094 72.6872 33.7243 70.3643 33.7243C66.0599 33.7243 62.4434 30.4397 62.4434 26.3988L62.4466 26.3957ZM83.4596 24.2882C80.6803 24.2882 78.4116 26.2725 78.4116 29.0039C78.4116 31.7215 80.6787 33.7196 83.4596 33.7196C86.2405 33.7196 88.5043 31.7184 88.5043 29.0024C88.5043 26.271 86.2389 24.2867 83.4596 24.2882V24.2882ZM83.4596 31.8648C81.9378 31.8648 80.6228 30.6862 80.6228 29.0055C80.6228 27.3078 81.9361 26.1462 83.4596 26.1462C84.9814 26.1462 86.2947 27.3062 86.2947 29.0055C86.2947 30.6847 84.983 31.8648 83.4596 31.8648ZM94.4668 24.2882C91.6875 24.2882 89.422 26.2725 89.422 29.0039C89.422 31.7215 91.6875 33.7196 94.4668 33.7196C97.246 33.7196 99.5115 31.7184 99.5115 29.0024C99.5115 26.271 97.2477 24.2867 94.4668 24.2882V24.2882ZM94.4668 31.8648C92.945 31.8648 91.63 30.6862 91.63 29.0055C91.63 27.3078 92.9433 26.1462 94.4668 26.1462C95.9885 26.1462 97.3035 27.3062 97.3035 29.0055C97.3035 30.6847 95.9885 31.8648 94.4668 31.8648ZM107.976 24.5748V25.342H107.9C107.406 24.7858 106.454 24.2867 105.256 24.2867C102.742 24.2867 100.436 26.3603 100.436 29.024C100.436 31.666 102.741 33.7227 105.256 33.7227C106.454 33.7227 107.406 33.2236 107.9 32.652H107.976V33.3299C107.976 35.1339 106.948 36.0998 105.292 36.0998C103.939 36.0998 103.102 35.1878 102.759 34.4221L100.835 35.1724C101.386 36.4218 102.854 37.9593 105.29 37.9593C107.877 37.9593 110.067 36.5281 110.067 33.0449V24.5732L107.976 24.5748ZM105.444 31.8648C103.923 31.8648 102.644 30.6662 102.644 29.024C102.644 27.3632 103.921 26.1477 105.444 26.1477C106.948 26.1477 108.128 27.3617 108.128 29.024C108.13 30.6662 106.95 31.8648 105.444 31.8648ZM111.592 19.571H113.802V33.4362H111.592V19.571ZM119.858 31.8648C118.735 31.8648 117.934 31.381 117.423 30.4367L124.144 27.8254L123.913 27.2893C123.496 26.2371 122.219 24.2882 119.61 24.2882C117.021 24.2882 114.869 26.2001 114.869 29.0055C114.869 31.6476 117.001 33.7212 119.858 33.7212C122.163 33.7212 123.496 32.4009 124.047 31.6306L122.334 30.5599C121.761 31.3471 120.979 31.8663 119.858 31.8648V31.8648ZM119.686 26.1107C120.561 26.1107 121.303 26.5221 121.55 27.1106L117.056 28.8622C117 27.0397 118.561 26.1107 119.686 26.1107V26.1107Z" fill="white"/>
<path fill-rule="evenodd" clip-rule="evenodd" d="M133.841 19.5781H128.559V33.4433H130.763V28.1915H133.843C136.287 28.1915 138.691 26.5307 138.691 23.884C138.691 21.2419 136.289 19.5797 133.846 19.5797L133.841 19.5781ZM133.899 26.2611H130.763V21.5069H133.899C135.547 21.5069 136.486 22.7902 136.486 23.884C136.486 24.9594 135.547 26.2611 133.899 26.2611V26.2611ZM142.11 33.4433V19.5781H139.906V33.4433H142.11ZM152.014 33.4186V28.1037C152.014 25.6418 150.054 24.2692 147.524 24.2692C145.93 24.2692 144.277 24.9301 143.593 26.3921L145.55 27.1577C145.968 26.3921 146.746 26.141 147.565 26.141C148.705 26.141 149.864 26.7834 149.882 27.9265V28.0698C149.483 27.8556 148.629 27.5337 147.582 27.5337C145.472 27.5337 143.325 28.6213 143.325 30.6549C143.325 32.5112 145.055 33.7052 146.994 33.7052C148.478 33.7052 149.294 33.0813 149.806 32.351H149.882V33.4217H152.013L152.014 33.4186ZM147.262 31.8688C146.539 31.8688 145.531 31.5299 145.531 30.6934C145.531 29.6227 146.787 29.2098 147.871 29.2098C148.841 29.2098 149.296 29.4054 149.887 29.6735C149.718 30.9183 148.596 31.8534 147.262 31.8688V31.8688ZM159.768 24.5727L157.24 30.5824H157.164L154.541 24.5727H152.165L156.099 32.975L153.855 37.6475H156.154L162.217 24.5727H159.768Z" fill="white"/>
<defs>
<linearGradient id="paint0_linear_1_327" x1="42.9876" y1="14.327" x2="19.0939" y2="21.1111" gradientUnits="userSpaceOnUse">
<stop stop-color="#00A0FF"/>
<stop offset="0.007" stop-color="#00A1FF"/>
<stop offset="0.26" stop-color="#00BEFF"/>
<stop offset="0.512" stop-color="#00D2FF"/>
<stop offset="0.76" stop-color="#00DFFF"/>
<stop offset="1" stop-color="#00E3FF"/>
</linearGradient>
<linearGradient id="paint1_linear_1_327" x1="57.6088" y1="27.1985" x2="28.2139" y2="27.1985" gradientUnits="userSpaceOnUse">
<stop stop-color="#FFE000"/>
<stop offset="0.409" stop-color="#FFBD00"/>
<stop offset="0.775" stop-color="#FFA500"/>
<stop offset="1" stop-color="#FF9C00"/>
</linearGradient>
<linearGradient id="paint2_linear_1_327" x1="46.6652" y1="29.8221" x2="29.0728" y2="61.3736" gradientUnits="userSpaceOnUse">
<stop stop-color="#FF3A44"/>
<stop offset="1" stop-color="#C31162"/>
</linearGradient>
<linearGradient id="paint3_linear_1_327" x1="25.3671" y1="4.59963" x2="33.2152" y2="18.6903" gradientUnits="userSpaceOnUse">
<stop stop-color="#32A071"/>
<stop offset="0.069" stop-color="#2DA771"/>
<stop offset="0.476" stop-color="#15CF74"/>
<stop offset="0.801" stop-color="#06E775"/>
<stop offset="1" stop-color="#00F076"/>
</linearGradient>
</defs>
</svg>
