<svg width="43" height="43" viewBox="0 0 43 43" fill="none" xmlns="http://www.w3.org/2000/svg">
<circle opacity="0.2" cx="21.5" cy="21.5" r="21" stroke="white"/>
<g opacity="0.6">
<path d="M31 26.19C31 29.83 28.83 32 25.19 32H24C23.45 32 23 31.55 23 31V25.23C23 24.96 23.22 24.73 23.49 24.73L25.25 24.7C25.39 24.69 25.51 24.59 25.54 24.45L25.89 22.54C25.92 22.36 25.78 22.19 25.59 22.19L23.46 22.22C23.18 22.22 22.96 22 22.95 21.73L22.91 19.28C22.91 19.12 23.04 18.98 23.21 18.98L25.61 18.94C25.78 18.94 25.91 18.81 25.91 18.64L25.87 16.24C25.87 16.07 25.74 15.94 25.57 15.94L22.87 15.98C21.21 16.01 19.89 17.37 19.92 19.03L19.97 21.78C19.98 22.06 19.76 22.28 19.48 22.29L18.28 22.31C18.11 22.31 17.98 22.44 17.98 22.61L18.01 24.51C18.01 24.68 18.14 24.81 18.31 24.81L19.51 24.79C19.79 24.79 20.01 25.01 20.02 25.28L20.11 30.98C20.12 31.54 19.67 32 19.11 32H16.81C13.17 32 11 29.83 11 26.18V17.81C11 14.17 13.17 12 16.81 12H25.19C28.83 12 31 14.17 31 17.81V26.19V26.19Z" fill="white"/>
</g>
</svg>
