<svg width="43" height="43" viewBox="0 0 43 43" fill="none" xmlns="http://www.w3.org/2000/svg">
<circle cx="21.5" cy="21.5" r="21" stroke="url(#paint0_linear_1_379)"/>
<path d="M21 18.4703C19.0473 18.4703 17.4643 20.0506 17.4643 22C17.4643 23.9494 19.0473 25.5297 21 25.5297C22.9527 25.5297 24.5356 23.9494 24.5356 22C24.5356 20.0506 22.9527 18.4703 21 18.4703Z" fill="white"/>
<path fill-rule="evenodd" clip-rule="evenodd" d="M15.3098 12.3139C19.061 11.8954 22.939 11.8954 26.6902 12.3139C28.7554 12.5443 30.4212 14.1689 30.6636 16.2379C31.1121 20.0662 31.1121 23.9338 30.6636 27.7621C30.4212 29.8311 28.7554 31.4557 26.6902 31.6861C22.939 32.1046 19.061 32.1046 15.3098 31.6861C13.2446 31.4557 11.5788 29.8311 11.3364 27.7621C10.8879 23.9338 10.8879 20.0662 11.3364 16.2379C11.5788 14.1689 13.2446 12.5443 15.3098 12.3139ZM26.4394 15.4836C25.8386 15.4836 25.3516 15.9699 25.3516 16.5697C25.3516 17.1695 25.8386 17.6557 26.4394 17.6557C27.0403 17.6557 27.5273 17.1695 27.5273 16.5697C27.5273 15.9699 27.0403 15.4836 26.4394 15.4836ZM15.8325 22C15.8325 19.1509 18.1461 16.8412 21 16.8412C23.8539 16.8412 26.1675 19.1509 26.1675 22C26.1675 24.8491 23.8539 27.1588 21 27.1588C18.1461 27.1588 15.8325 24.8491 15.8325 22Z" fill="white"/>
<defs>
<linearGradient id="paint0_linear_1_379" x1="2.40281e-07" y1="21.5" x2="43" y2="21.5" gradientUnits="userSpaceOnUse">
<stop stop-color="#F7797D"/>
<stop offset="0.520833" stop-color="#C471ED"/>
<stop offset="1" stop-color="#12C2E9"/>
</linearGradient>
</defs>
</svg>
