<svg width="43" height="43" viewBox="0 0 43 43" fill="none" xmlns="http://www.w3.org/2000/svg">
<circle opacity="0.2" cx="21.5" cy="21.5" r="21" stroke="white"/>
<path d="M30.97 28.33C30.97 28.69 30.89 29.06 30.72 29.42C30.55 29.78 30.33 30.12 30.04 30.44C29.55 30.98 29.01 31.37 28.4 31.62C27.8 31.87 27.15 32 26.45 32C25.43 32 24.34 31.76 23.19 31.27C22.04 30.78 20.89 30.12 19.75 29.29C18.6 28.45 17.51 27.52 16.47 26.49C15.44 25.45 14.51 24.36 13.68 23.22C12.86 22.08 12.2 20.94 11.72 19.81C11.24 18.67 11 17.58 11 16.54C11 15.86 11.12 15.21 11.36 14.61C11.6 14 11.98 13.44 12.51 12.94C13.15 12.31 13.85 12 14.59 12C14.87 12 15.15 12.06 15.4 12.18C15.66 12.3 15.89 12.48 16.07 12.74L18.39 16.01C18.57 16.26 18.7 16.49 18.79 16.71C18.88 16.92 18.93 17.13 18.93 17.32C18.93 17.56 18.86 17.8 18.72 18.03C18.59 18.26 18.4 18.5 18.16 18.74L17.4 19.53C17.29 19.64 17.24 19.77 17.24 19.93C17.24 20.01 17.25 20.08 17.27 20.16C17.3 20.24 17.33 20.3 17.35 20.36C17.53 20.69 17.84 21.12 18.28 21.64C18.73 22.16 19.21 22.69 19.73 23.22C20.27 23.75 20.79 24.24 21.32 24.69C21.84 25.13 22.27 25.43 22.61 25.61C22.66 25.63 22.72 25.66 22.79 25.69C22.87 25.72 22.95 25.73 23.04 25.73C23.21 25.73 23.34 25.67 23.45 25.56L24.21 24.81C24.46 24.56 24.7 24.37 24.93 24.25C25.16 24.11 25.39 24.04 25.64 24.04C25.83 24.04 26.03 24.08 26.25 24.17C26.47 24.26 26.7 24.39 26.95 24.56L30.26 26.91C30.52 27.09 30.7 27.3 30.81 27.55C30.91 27.8 30.97 28.05 30.97 28.33Z" stroke="white" stroke-width="1.5" stroke-miterlimit="10"/>
<path d="M27.5 19C27.5 18.4 27.03 17.48 26.33 16.73C25.69 16.04 24.84 15.5 24 15.5" stroke="white" stroke-width="1.5" stroke-linecap="round" stroke-linejoin="round"/>
<path d="M31 19C31 15.13 27.87 12 24 12" stroke="white" stroke-width="1.5" stroke-linecap="round" stroke-linejoin="round"/>
</svg>
