<svg width="79" height="79" viewBox="0 0 79 79" fill="none" xmlns="http://www.w3.org/2000/svg">
<path fill-rule="evenodd" clip-rule="evenodd" d="M0.137695 10.3761V19.8769H9.6385H19.1393V10.3761V0.875244H9.6385H0.137695V10.3761ZM24.1691 3.6696V6.46395H25.5663H26.9635V7.87566V9.28765L28.4305 9.20298L29.8976 9.11859L29.9781 6.53381L30.0582 3.94903H31.3054H32.5522V2.41214V0.875244H31.0153H29.4784V2.1327V3.39016H28.3607H27.2429V2.1327V0.875244H25.706H24.1691V3.6696ZM40.3764 3.6696V6.46395H41.6339H42.8913V7.72141V8.97887H40.3764H37.8615V6.18452V3.39016H36.4643H35.0671V8.83916V14.2881H33.8097H32.5522V12.891V11.4938H31.0153H29.4784V13.0307V14.5676H30.8756H32.2728V18.6194V22.6712H33.67H35.0671V23.789V24.9067H33.67H32.2728V26.4436V27.9805H33.8097H35.3466V26.5833V25.1861H36.4643H37.5821V26.5833V27.9805H39.1189H40.6558V25.3258V22.6712H41.7736H42.8913V23.9287V25.1861H44.2885H45.6857V26.4436V27.7011H44.2885H42.8913V28.9585V30.216H41.6339H40.3764V31.7529V33.2898H41.6339H42.8913V35.9444V38.599H44.2885H45.6857V39.9962V41.3934H46.9431H48.2006V42.5111V43.6289H44.4282H40.6558V42.3714V41.114H39.2587H37.8615V39.8565V38.599H39.2587H40.6558V37.2019V35.8047H39.1189H37.5821V37.0621V38.3196H36.3246H35.0671V42.3714V46.4232H33.8097H32.5522V43.7686V41.114H31.0153H29.4784V43.7686V46.4232H28.3607H27.2429V43.7686V41.114H24.4486H21.6542V42.5111V43.9083H22.9117H24.1691V45.3055V46.7027H25.5663H26.9635V47.8204V48.9381H24.4486H21.9337V47.6807V46.4232H20.5365H19.1393V45.0261V43.6289H17.8818H16.6244V42.5111V41.3934H17.8818H19.1393V39.9962V38.599H20.5365H21.9337V37.3416V36.0841H23.0514H24.1691V37.3416V38.599H27.1032H30.0373V30.4954V22.3918H28.6401H27.2429V21.1343V19.8769H28.6546H30.0666L29.982 18.4098L29.8976 16.9428L28.5703 16.8576L27.2429 16.7723V15.5302V14.2881H24.4486H21.6542V18.4797V22.6712H22.9117H24.1691V23.789V24.9067H22.9117H21.6542V27.5613V30.216H20.3968H19.1393V28.9585V27.7011H17.8818H16.6244V26.4436V25.1861H17.8818H19.1393V23.789V22.3918H17.6024H16.0655V23.6492V24.9067H13.4109H10.7562V26.3039V27.7011H9.6385H8.52076V25.0464V22.3918H5.58669H2.65261V25.1861V27.9805H5.44697H8.24132V29.3777V30.7748H9.6385H11.0357V29.3777V27.9805H13.5352H16.0348L16.12 29.3078L16.2052 30.6351L17.5326 30.7203L18.8599 30.8056V31.9079V33.0103H11.0357H3.21149V31.6131V30.216H1.67459H0.137695V34.4075V38.599H2.93205H5.72641V37.3416V36.0841H6.98386H8.24132V37.3416V38.599H12.1534H16.0655V39.8565V41.114H12.1534H8.24132V42.5111V43.9083H12.1534H16.0655V45.3055V46.7027H17.4627H18.8599V47.8204V48.9381H16.345H13.83V47.6807V46.4232H12.2931H10.7562V47.6807V48.9381H9.6385H8.52076V47.6807V46.4232H7.12358H5.72641V45.0261V43.6289H2.93205H0.137695V46.5629V49.497H1.67459H3.21149V48.0998V46.7027H4.32923H5.44697V49.2176V51.7325H2.79233H0.137695V53.2694V54.8063H2.79233H5.44697V56.0638V57.3212H6.98386H8.52076V54.6666V52.0119H11.0357H13.5506V53.2694V54.5269H12.1534H10.7562V55.924V57.3212H16.2052H21.6542V58.7184V60.1156H24.3089H26.9635V61.2333V62.3511H25.5663H24.1691V66.4029V70.4547H22.9117H21.6542V73.3888V76.3228H22.9117H24.1691V77.5803V78.8377H29.7579H35.3466V76.1831V73.5285H36.4643H37.5821V74.9256V76.3228H38.9792H40.3764V77.5803V78.8377H43.1708H45.9651V77.3008V75.764H43.3105H40.6558V74.6462V73.5285H41.9133H43.1708V71.9916V70.4547H41.9133H40.6558V67.9398V65.4248H41.9133H43.1708V62.7702V60.1156H45.9651H48.7595V58.5787V57.0418H47.3623H45.9651V51.8722V46.7027H47.0829H48.2006V48.0998V49.497H49.5978H50.995V50.5994V51.7018L49.6676 51.787L48.3403 51.8722L48.2559 53.3393L48.1713 54.8063H49.5832H50.995V56.0638V57.3212H52.3921H53.7893V59.8361V62.3511H52.3921H50.995V66.4029V70.4547H49.8848H48.7748L48.6972 66.4727L48.6198 62.4908L47.1527 62.4064L45.6857 62.3217V67.9252V73.5285H46.9278H48.1699L48.2551 74.8558L48.3403 76.1831L49.8074 76.2675L51.2744 76.3522V73.543V70.7341H52.5318H53.7893V74.7859V78.8377H56.5837H59.378V77.3008V75.764H57.9808H56.5837V74.6462V73.5285H57.9808H59.378V70.8738V68.2192H60.4958H61.6135V70.8738V73.5285H64.4079H67.2022V74.6361V75.7438L64.4777 75.8238L61.7532 75.9037L61.6688 77.3707L61.5842 78.8377H65.7905H69.9966V76.1831V73.5285H74.0484H78.1002V71.9916V70.4547H76.8427H75.5853V66.6823V62.9099H76.8427H78.1002V59.9758V57.0418H76.8427H75.5853V54.5269V52.0119H76.8427H78.1002V47.8204V43.6289H75.3058H72.5115V45.1658V46.7027H73.7689H75.0264V49.2176V51.7325H73.9087H72.7909V50.3353V48.9381H71.3937H69.9966V47.6807V46.4232H68.5994H67.2022V47.6807V48.9381H65.805H64.4079V50.475V52.0119H65.805H67.2022V53.2694V54.5269H64.6873H62.1724V53.1297V51.7325H58.1206H54.0687V50.3353V48.9381H52.6716H51.2744V46.4232V43.9083H52.5318H53.7893V45.3055V46.7027H55.0468H56.3042V48.1096V49.5166L59.1684 49.4369L62.0327 49.3573L62.1179 48.03L62.2031 46.7027H63.4452H64.6873V45.3055V43.9083H67.3419H69.9966V42.6508V41.3934H71.3937H72.7909V39.8565V38.3196H71.3937H69.9966V34.5472V30.7748H71.3937H72.7909V29.3777V27.9805H73.8933H74.9957L75.0809 29.3078L75.1661 30.6351L76.6332 30.7195L78.1002 30.8042V27.8553V24.9067H75.3058H72.5115V26.3039V27.7011H71.254H69.9966V25.0464V22.3918H68.5994H67.2022V25.1861V27.9805H68.4597H69.7171V29.0982V30.216H67.2022H64.6873V26.3039V22.3918H61.8929H59.0986V25.1861V27.9805H60.356H61.6135V29.0982V30.216H59.0986H56.5837V23.5095V16.8031H55.1865H53.7893V18.2002V19.5974H52.5318H51.2744V15.5456V11.4938H50.0169H48.7595V8.97887V6.46395H49.8772H50.995V7.86113V9.25831H53.7893H56.5837V5.06678V0.875244H53.7893H50.995V2.11733V3.35943L49.6676 3.44465L48.3403 3.52988L48.2551 4.8572L48.1699 6.18452H45.6703H43.1708V5.06678V3.94903H44.5679H45.9651V2.41214V0.875244H43.1708H40.3764V3.6696ZM59.0986 10.3761V19.8769H68.5994H78.1002V10.3761V0.875244H68.5994H59.0986V10.3761ZM16.0655 10.3761V16.8031H9.6385H3.21149V10.3761V3.94903H9.6385H16.0655V10.3761ZM53.7893 5.06678V6.18452H52.5318H51.2744V5.06678V3.94903H52.5318H53.7893V5.06678ZM75.0264 10.3761V16.8031H68.5994H62.1724V10.3761V3.94903H68.5994H75.0264V10.3761ZM5.44697 10.3761V14.5676H9.6385H13.83V10.3761V6.18452H9.6385H5.44697V10.3761ZM64.4079 10.3761V14.5676H68.5994H72.7909V10.3761V6.18452H68.5994H64.4079V10.3761ZM21.6542 10.3761V11.7732H23.0514H24.4486V10.3761V8.97887H23.0514H21.6542V10.3761ZM45.6857 10.3761V11.4938H44.4282H43.1708V10.3761V9.25831H44.4282H45.6857V10.3761ZM42.8913 15.6853V19.5974H41.7736H40.6558V15.6853V11.7732H41.7736H42.8913V15.6853ZM48.2006 13.0307V14.2881H47.0829H45.9651V13.0307V11.7732H47.0829H48.2006V13.0307ZM37.5821 17.0825V19.5974H36.4643H35.3466V17.0825V14.5676H36.4643H37.5821V17.0825ZM26.9635 18.4797V19.5974H25.706H24.4486V18.4797V17.3619H25.706H26.9635V18.4797ZM48.2006 18.4797V19.5974H47.0829H45.9651V18.4797V17.3619H47.0829H48.2006V18.4797ZM45.6857 21.1343V22.3918H44.4282H43.1708V21.1343V19.8769H44.4282H45.6857V21.1343ZM50.995 21.274V22.6712H52.3921H53.7893V26.4436V30.216H52.3921H50.995V31.7529V33.2898H52.3921H53.7893V34.5472V35.8047H50.995H48.2006V37.0621V38.3196H47.0829H45.9651V35.665V33.0103H44.5679H43.1708V31.8926V30.7748H44.5679H45.9651V29.3777V27.9805H47.3623H48.7595V23.9287V19.8769H49.8772H50.995V21.274ZM26.9635 31.8926V33.0103H25.706H24.4486V31.8926V30.7748H25.706H26.9635V31.8926ZM72.5115 34.5472V36.0841H73.7689H75.0264V38.7388V41.3934H76.5633H78.1002V38.599V35.8047H76.8427H75.5853V34.4075V33.0103H74.0484H72.5115V34.5472ZM21.6542 34.5472V35.8047H20.3968H19.1393V34.5472V33.2898H20.3968H21.6542V34.5472ZM67.2022 37.2019V41.114H65.9448H64.6873V39.7168V38.3196H63.4298H62.1724V37.2019V36.0841H63.4298H64.6873V34.6869V33.2898H65.9448H67.2022V37.2019ZM18.8599 37.2019V38.3196H17.7421H16.6244V37.2019V36.0841H17.7421H18.8599V37.2019ZM59.0986 37.3416V38.599H60.356H61.6135V39.8565V41.114H59.0986H56.5837V39.7168V38.3196H55.3262H54.0687V37.2019V36.0841H56.5837H59.0986V37.3416ZM64.4079 42.5111V43.6289H63.2901H62.1724V42.5111V41.3934H63.2901H64.4079V42.5111ZM59.0986 45.1658V46.4232H57.8411H56.5837V45.1658V43.9083H57.8411H59.0986V45.1658ZM42.8913 49.2176V51.7325H41.7736H40.6558V50.3353V48.9381H39.2587H37.8615V47.8204V46.7027H40.3764H42.8913V49.2176ZM21.6542 50.6148V51.7325H20.3968H19.1393V50.6148V49.497H20.3968H21.6542V50.6148ZM29.4784 50.6148V51.7325H28.3607H27.2429V50.6148V49.497H28.3607H29.4784V50.6148ZM18.8599 53.2694V54.5269H17.7421H16.6244V53.2694V52.0119H17.7421H18.8599V53.2694ZM24.1691 53.2694V54.5269H23.0514H21.9337V53.2694V52.0119H23.0514H24.1691V53.2694ZM37.5821 53.2694V54.5269H36.4643H35.3466V53.2694V52.0119H36.4643H37.5821V53.2694ZM72.5115 55.924V59.8361H71.254H69.9966V55.924V52.0119H71.254H72.5115V55.924ZM26.9635 55.924V57.0418H25.706H24.4486V55.924V54.8063H25.706H26.9635V55.924ZM32.2728 56.0638V57.3212H34.9274H37.5821V58.5787V59.8361H32.4125H27.2429V58.5787V57.3212H28.6401H30.0373V56.0638V54.8063H31.155H32.2728V56.0638ZM42.8913 55.924V57.0418H40.3764H37.8615V55.924V54.8063H40.3764H42.8913V55.924ZM64.4079 61.2333V65.1454H60.4958H56.5837V61.2333V57.3212H60.4958H64.4079V61.2333ZM0.137695 69.3369V78.8377H9.6385H19.1393V69.3369V59.8361H9.6385H0.137695V69.3369ZM59.0986 61.3876V62.9393L60.5656 62.8546L62.0327 62.7702L62.117 61.3032L62.2017 59.8361H60.65H59.0986V61.3876ZM75.0264 61.2333V62.3511H73.9087H72.7909V61.2333V60.1156H73.9087H75.0264V61.2333ZM16.0655 69.3369V75.764H9.6385H3.21149V69.3369V62.9099H9.6385H16.0655V69.3369ZM35.0671 66.6823V70.4547H33.67H32.2728V73.1093V75.764H29.7579H27.2429V74.5065V73.249H25.8458H24.4486V71.9916V70.7341H25.8458H27.2429V69.4767V68.2192H29.8976H32.5522V66.6823V65.1454H31.2948H30.0373V64.0277V62.9099H32.5522H35.0671V66.6823ZM40.3764 64.0277V65.1454H39.1189H37.8615V64.0277V62.9099H39.1189H40.3764V64.0277ZM72.5115 65.4248V67.9398H71.1143H69.7171V70.5944V73.249H68.5994H67.4816V69.3369V65.4248H68.7391H69.9966V64.1674V62.9099H71.254H72.5115V65.4248ZM5.44697 69.3369V73.5285H9.6385H13.83V69.3369V65.1454H9.6385H5.44697V69.3369ZM56.3042 69.3369V70.4547H55.1865H54.0687V69.3369V68.2192H55.1865H56.3042V69.3369ZM75.2128 75.9503C75.1102 76.0526 75.0264 76.7442 75.0264 77.4872V78.8377H76.5633H78.1002V77.3008V75.764H76.7497C76.0067 75.764 75.3151 75.8478 75.2128 75.9503Z" fill="black"/>
<path fill-rule="evenodd" clip-rule="evenodd" d="M0.137695 10.3761V19.8769H9.6385H19.1393V10.3761V0.875244H9.6385H0.137695V10.3761ZM24.1691 3.6696V6.46395H25.5663H26.9635V7.87566V9.28765L28.4305 9.20298L29.8976 9.11859L29.9781 6.53381L30.0582 3.94903H31.3054H32.5522V2.41214V0.875244H31.0153H29.4784V2.1327V3.39016H28.3607H27.2429V2.1327V0.875244H25.706H24.1691V3.6696ZM40.3764 3.6696V6.46395H41.6339H42.8913V7.72141V8.97887H40.3764H37.8615V6.18452V3.39016H36.4643H35.0671V8.83916V14.2881H33.8097H32.5522V12.891V11.4938H31.0153H29.4784V13.0307V14.5676H30.8756H32.2728V18.6194V22.6712H33.67H35.0671V23.789V24.9067H33.67H32.2728V26.4436V27.9805H33.8097H35.3466V26.5833V25.1861H36.4643H37.5821V26.5833V27.9805H39.1189H40.6558V25.3258V22.6712H41.7736H42.8913V23.9287V25.1861H44.2885H45.6857V26.4436V27.7011H44.2885H42.8913V28.9585V30.216H41.6339H40.3764V31.7529V33.2898H41.6339H42.8913V35.9444V38.599H44.2885H45.6857V39.9962V41.3934H46.9431H48.2006V42.5111V43.6289H44.4282H40.6558V42.3714V41.114H39.2587H37.8615V39.8565V38.599H39.2587H40.6558V37.2019V35.8047H39.1189H37.5821V37.0621V38.3196H36.3246H35.0671V42.3714V46.4232H33.8097H32.5522V43.7686V41.114H31.0153H29.4784V43.7686V46.4232H28.3607H27.2429V43.7686V41.114H24.4486H21.6542V42.5111V43.9083H22.9117H24.1691V45.3055V46.7027H25.5663H26.9635V47.8204V48.9381H24.4486H21.9337V47.6807V46.4232H20.5365H19.1393V45.0261V43.6289H17.8818H16.6244V42.5111V41.3934H17.8818H19.1393V39.9962V38.599H20.5365H21.9337V37.3416V36.0841H23.0514H24.1691V37.3416V38.599H27.1032H30.0373V30.4954V22.3918H28.6401H27.2429V21.1343V19.8769H28.6546H30.0666L29.982 18.4098L29.8976 16.9428L28.5703 16.8576L27.2429 16.7723V15.5302V14.2881H24.4486H21.6542V18.4797V22.6712H22.9117H24.1691V23.789V24.9067H22.9117H21.6542V27.5613V30.216H20.3968H19.1393V28.9585V27.7011H17.8818H16.6244V26.4436V25.1861H17.8818H19.1393V23.789V22.3918H17.6024H16.0655V23.6492V24.9067H13.4109H10.7562V26.3039V27.7011H9.6385H8.52076V25.0464V22.3918H5.58669H2.65261V25.1861V27.9805H5.44697H8.24132V29.3777V30.7748H9.6385H11.0357V29.3777V27.9805H13.5352H16.0348L16.12 29.3078L16.2052 30.6351L17.5326 30.7203L18.8599 30.8056V31.9079V33.0103H11.0357H3.21149V31.6131V30.216H1.67459H0.137695V34.4075V38.599H2.93205H5.72641V37.3416V36.0841H6.98386H8.24132V37.3416V38.599H12.1534H16.0655V39.8565V41.114H12.1534H8.24132V42.5111V43.9083H12.1534H16.0655V45.3055V46.7027H17.4627H18.8599V47.8204V48.9381H16.345H13.83V47.6807V46.4232H12.2931H10.7562V47.6807V48.9381H9.6385H8.52076V47.6807V46.4232H7.12358H5.72641V45.0261V43.6289H2.93205H0.137695V46.5629V49.497H1.67459H3.21149V48.0998V46.7027H4.32923H5.44697V49.2176V51.7325H2.79233H0.137695V53.2694V54.8063H2.79233H5.44697V56.0638V57.3212H6.98386H8.52076V54.6666V52.0119H11.0357H13.5506V53.2694V54.5269H12.1534H10.7562V55.924V57.3212H16.2052H21.6542V58.7184V60.1156H24.3089H26.9635V61.2333V62.3511H25.5663H24.1691V66.4029V70.4547H22.9117H21.6542V73.3888V76.3228H22.9117H24.1691V77.5803V78.8377H29.7579H35.3466V76.1831V73.5285H36.4643H37.5821V74.9256V76.3228H38.9792H40.3764V77.5803V78.8377H43.1708H45.9651V77.3008V75.764H43.3105H40.6558V74.6462V73.5285H41.9133H43.1708V71.9916V70.4547H41.9133H40.6558V67.9398V65.4248H41.9133H43.1708V62.7702V60.1156H45.9651H48.7595V58.5787V57.0418H47.3623H45.9651V51.8722V46.7027H47.0829H48.2006V48.0998V49.497H49.5978H50.995V50.5994V51.7018L49.6676 51.787L48.3403 51.8722L48.2559 53.3393L48.1713 54.8063H49.5832H50.995V56.0638V57.3212H52.3921H53.7893V59.8361V62.3511H52.3921H50.995V66.4029V70.4547H49.8848H48.7748L48.6972 66.4727L48.6198 62.4908L47.1527 62.4064L45.6857 62.3217V67.9252V73.5285H46.9278H48.1699L48.2551 74.8558L48.3403 76.1831L49.8074 76.2675L51.2744 76.3522V73.543V70.7341H52.5318H53.7893V74.7859V78.8377H56.5837H59.378V77.3008V75.764H57.9808H56.5837V74.6462V73.5285H57.9808H59.378V70.8738V68.2192H60.4958H61.6135V70.8738V73.5285H64.4079H67.2022V74.6361V75.7438L64.4777 75.8238L61.7532 75.9037L61.6688 77.3707L61.5842 78.8377H65.7905H69.9966V76.1831V73.5285H74.0484H78.1002V71.9916V70.4547H76.8427H75.5853V66.6823V62.9099H76.8427H78.1002V59.9758V57.0418H76.8427H75.5853V54.5269V52.0119H76.8427H78.1002V47.8204V43.6289H75.3058H72.5115V45.1658V46.7027H73.7689H75.0264V49.2176V51.7325H73.9087H72.7909V50.3353V48.9381H71.3937H69.9966V47.6807V46.4232H68.5994H67.2022V47.6807V48.9381H65.805H64.4079V50.475V52.0119H65.805H67.2022V53.2694V54.5269H64.6873H62.1724V53.1297V51.7325H58.1206H54.0687V50.3353V48.9381H52.6716H51.2744V46.4232V43.9083H52.5318H53.7893V45.3055V46.7027H55.0468H56.3042V48.1096V49.5166L59.1684 49.4369L62.0327 49.3573L62.1179 48.03L62.2031 46.7027H63.4452H64.6873V45.3055V43.9083H67.3419H69.9966V42.6508V41.3934H71.3937H72.7909V39.8565V38.3196H71.3937H69.9966V34.5472V30.7748H71.3937H72.7909V29.3777V27.9805H73.8933H74.9957L75.0809 29.3078L75.1661 30.6351L76.6332 30.7195L78.1002 30.8042V27.8553V24.9067H75.3058H72.5115V26.3039V27.7011H71.254H69.9966V25.0464V22.3918H68.5994H67.2022V25.1861V27.9805H68.4597H69.7171V29.0982V30.216H67.2022H64.6873V26.3039V22.3918H61.8929H59.0986V25.1861V27.9805H60.356H61.6135V29.0982V30.216H59.0986H56.5837V23.5095V16.8031H55.1865H53.7893V18.2002V19.5974H52.5318H51.2744V15.5456V11.4938H50.0169H48.7595V8.97887V6.46395H49.8772H50.995V7.86113V9.25831H53.7893H56.5837V5.06678V0.875244H53.7893H50.995V2.11733V3.35943L49.6676 3.44465L48.3403 3.52988L48.2551 4.8572L48.1699 6.18452H45.6703H43.1708V5.06678V3.94903H44.5679H45.9651V2.41214V0.875244H43.1708H40.3764V3.6696ZM59.0986 10.3761V19.8769H68.5994H78.1002V10.3761V0.875244H68.5994H59.0986V10.3761ZM16.0655 10.3761V16.8031H9.6385H3.21149V10.3761V3.94903H9.6385H16.0655V10.3761ZM53.7893 5.06678V6.18452H52.5318H51.2744V5.06678V3.94903H52.5318H53.7893V5.06678ZM75.0264 10.3761V16.8031H68.5994H62.1724V10.3761V3.94903H68.5994H75.0264V10.3761ZM5.44697 10.3761V14.5676H9.6385H13.83V10.3761V6.18452H9.6385H5.44697V10.3761ZM64.4079 10.3761V14.5676H68.5994H72.7909V10.3761V6.18452H68.5994H64.4079V10.3761ZM21.6542 10.3761V11.7732H23.0514H24.4486V10.3761V8.97887H23.0514H21.6542V10.3761ZM45.6857 10.3761V11.4938H44.4282H43.1708V10.3761V9.25831H44.4282H45.6857V10.3761ZM42.8913 15.6853V19.5974H41.7736H40.6558V15.6853V11.7732H41.7736H42.8913V15.6853ZM48.2006 13.0307V14.2881H47.0829H45.9651V13.0307V11.7732H47.0829H48.2006V13.0307ZM37.5821 17.0825V19.5974H36.4643H35.3466V17.0825V14.5676H36.4643H37.5821V17.0825ZM26.9635 18.4797V19.5974H25.706H24.4486V18.4797V17.3619H25.706H26.9635V18.4797ZM48.2006 18.4797V19.5974H47.0829H45.9651V18.4797V17.3619H47.0829H48.2006V18.4797ZM45.6857 21.1343V22.3918H44.4282H43.1708V21.1343V19.8769H44.4282H45.6857V21.1343ZM50.995 21.274V22.6712H52.3921H53.7893V26.4436V30.216H52.3921H50.995V31.7529V33.2898H52.3921H53.7893V34.5472V35.8047H50.995H48.2006V37.0621V38.3196H47.0829H45.9651V35.665V33.0103H44.5679H43.1708V31.8926V30.7748H44.5679H45.9651V29.3777V27.9805H47.3623H48.7595V23.9287V19.8769H49.8772H50.995V21.274ZM26.9635 31.8926V33.0103H25.706H24.4486V31.8926V30.7748H25.706H26.9635V31.8926ZM72.5115 34.5472V36.0841H73.7689H75.0264V38.7388V41.3934H76.5633H78.1002V38.599V35.8047H76.8427H75.5853V34.4075V33.0103H74.0484H72.5115V34.5472ZM21.6542 34.5472V35.8047H20.3968H19.1393V34.5472V33.2898H20.3968H21.6542V34.5472ZM67.2022 37.2019V41.114H65.9448H64.6873V39.7168V38.3196H63.4298H62.1724V37.2019V36.0841H63.4298H64.6873V34.6869V33.2898H65.9448H67.2022V37.2019ZM18.8599 37.2019V38.3196H17.7421H16.6244V37.2019V36.0841H17.7421H18.8599V37.2019ZM59.0986 37.3416V38.599H60.356H61.6135V39.8565V41.114H59.0986H56.5837V39.7168V38.3196H55.3262H54.0687V37.2019V36.0841H56.5837H59.0986V37.3416ZM64.4079 42.5111V43.6289H63.2901H62.1724V42.5111V41.3934H63.2901H64.4079V42.5111ZM59.0986 45.1658V46.4232H57.8411H56.5837V45.1658V43.9083H57.8411H59.0986V45.1658ZM42.8913 49.2176V51.7325H41.7736H40.6558V50.3353V48.9381H39.2587H37.8615V47.8204V46.7027H40.3764H42.8913V49.2176ZM21.6542 50.6148V51.7325H20.3968H19.1393V50.6148V49.497H20.3968H21.6542V50.6148ZM29.4784 50.6148V51.7325H28.3607H27.2429V50.6148V49.497H28.3607H29.4784V50.6148ZM18.8599 53.2694V54.5269H17.7421H16.6244V53.2694V52.0119H17.7421H18.8599V53.2694ZM24.1691 53.2694V54.5269H23.0514H21.9337V53.2694V52.0119H23.0514H24.1691V53.2694ZM37.5821 53.2694V54.5269H36.4643H35.3466V53.2694V52.0119H36.4643H37.5821V53.2694ZM72.5115 55.924V59.8361H71.254H69.9966V55.924V52.0119H71.254H72.5115V55.924ZM26.9635 55.924V57.0418H25.706H24.4486V55.924V54.8063H25.706H26.9635V55.924ZM32.2728 56.0638V57.3212H34.9274H37.5821V58.5787V59.8361H32.4125H27.2429V58.5787V57.3212H28.6401H30.0373V56.0638V54.8063H31.155H32.2728V56.0638ZM42.8913 55.924V57.0418H40.3764H37.8615V55.924V54.8063H40.3764H42.8913V55.924ZM64.4079 61.2333V65.1454H60.4958H56.5837V61.2333V57.3212H60.4958H64.4079V61.2333ZM0.137695 69.3369V78.8377H9.6385H19.1393V69.3369V59.8361H9.6385H0.137695V69.3369ZM59.0986 61.3876V62.9393L60.5656 62.8546L62.0327 62.7702L62.117 61.3032L62.2017 59.8361H60.65H59.0986V61.3876ZM75.0264 61.2333V62.3511H73.9087H72.7909V61.2333V60.1156H73.9087H75.0264V61.2333ZM16.0655 69.3369V75.764H9.6385H3.21149V69.3369V62.9099H9.6385H16.0655V69.3369ZM35.0671 66.6823V70.4547H33.67H32.2728V73.1093V75.764H29.7579H27.2429V74.5065V73.249H25.8458H24.4486V71.9916V70.7341H25.8458H27.2429V69.4767V68.2192H29.8976H32.5522V66.6823V65.1454H31.2948H30.0373V64.0277V62.9099H32.5522H35.0671V66.6823ZM40.3764 64.0277V65.1454H39.1189H37.8615V64.0277V62.9099H39.1189H40.3764V64.0277ZM72.5115 65.4248V67.9398H71.1143H69.7171V70.5944V73.249H68.5994H67.4816V69.3369V65.4248H68.7391H69.9966V64.1674V62.9099H71.254H72.5115V65.4248ZM5.44697 69.3369V73.5285H9.6385H13.83V69.3369V65.1454H9.6385H5.44697V69.3369ZM56.3042 69.3369V70.4547H55.1865H54.0687V69.3369V68.2192H55.1865H56.3042V69.3369ZM75.2128 75.9503C75.1102 76.0526 75.0264 76.7442 75.0264 77.4872V78.8377H76.5633H78.1002V77.3008V75.764H76.7497C76.0067 75.764 75.3151 75.8478 75.2128 75.9503Z" fill="black"/>
<path fill-rule="evenodd" clip-rule="evenodd" d="M0.137695 10.3761V19.8769H9.6385H19.1393V10.3761V0.875244H9.6385H0.137695V10.3761ZM24.1691 3.6696V6.46395H25.5663H26.9635V7.87566V9.28765L28.4305 9.20298L29.8976 9.11859L29.9781 6.53381L30.0582 3.94903H31.3054H32.5522V2.41214V0.875244H31.0153H29.4784V2.1327V3.39016H28.3607H27.2429V2.1327V0.875244H25.706H24.1691V3.6696ZM40.3764 3.6696V6.46395H41.6339H42.8913V7.72141V8.97887H40.3764H37.8615V6.18452V3.39016H36.4643H35.0671V8.83916V14.2881H33.8097H32.5522V12.891V11.4938H31.0153H29.4784V13.0307V14.5676H30.8756H32.2728V18.6194V22.6712H33.67H35.0671V23.789V24.9067H33.67H32.2728V26.4436V27.9805H33.8097H35.3466V26.5833V25.1861H36.4643H37.5821V26.5833V27.9805H39.1189H40.6558V25.3258V22.6712H41.7736H42.8913V23.9287V25.1861H44.2885H45.6857V26.4436V27.7011H44.2885H42.8913V28.9585V30.216H41.6339H40.3764V31.7529V33.2898H41.6339H42.8913V35.9444V38.599H44.2885H45.6857V39.9962V41.3934H46.9431H48.2006V42.5111V43.6289H44.4282H40.6558V42.3714V41.114H39.2587H37.8615V39.8565V38.599H39.2587H40.6558V37.2019V35.8047H39.1189H37.5821V37.0621V38.3196H36.3246H35.0671V42.3714V46.4232H33.8097H32.5522V43.7686V41.114H31.0153H29.4784V43.7686V46.4232H28.3607H27.2429V43.7686V41.114H24.4486H21.6542V42.5111V43.9083H22.9117H24.1691V45.3055V46.7027H25.5663H26.9635V47.8204V48.9381H24.4486H21.9337V47.6807V46.4232H20.5365H19.1393V45.0261V43.6289H17.8818H16.6244V42.5111V41.3934H17.8818H19.1393V39.9962V38.599H20.5365H21.9337V37.3416V36.0841H23.0514H24.1691V37.3416V38.599H27.1032H30.0373V30.4954V22.3918H28.6401H27.2429V21.1343V19.8769H28.6546H30.0666L29.982 18.4098L29.8976 16.9428L28.5703 16.8576L27.2429 16.7723V15.5302V14.2881H24.4486H21.6542V18.4797V22.6712H22.9117H24.1691V23.789V24.9067H22.9117H21.6542V27.5613V30.216H20.3968H19.1393V28.9585V27.7011H17.8818H16.6244V26.4436V25.1861H17.8818H19.1393V23.789V22.3918H17.6024H16.0655V23.6492V24.9067H13.4109H10.7562V26.3039V27.7011H9.6385H8.52076V25.0464V22.3918H5.58669H2.65261V25.1861V27.9805H5.44697H8.24132V29.3777V30.7748H9.6385H11.0357V29.3777V27.9805H13.5352H16.0348L16.12 29.3078L16.2052 30.6351L17.5326 30.7203L18.8599 30.8056V31.9079V33.0103H11.0357H3.21149V31.6131V30.216H1.67459H0.137695V34.4075V38.599H2.93205H5.72641V37.3416V36.0841H6.98386H8.24132V37.3416V38.599H12.1534H16.0655V39.8565V41.114H12.1534H8.24132V42.5111V43.9083H12.1534H16.0655V45.3055V46.7027H17.4627H18.8599V47.8204V48.9381H16.345H13.83V47.6807V46.4232H12.2931H10.7562V47.6807V48.9381H9.6385H8.52076V47.6807V46.4232H7.12358H5.72641V45.0261V43.6289H2.93205H0.137695V46.5629V49.497H1.67459H3.21149V48.0998V46.7027H4.32923H5.44697V49.2176V51.7325H2.79233H0.137695V53.2694V54.8063H2.79233H5.44697V56.0638V57.3212H6.98386H8.52076V54.6666V52.0119H11.0357H13.5506V53.2694V54.5269H12.1534H10.7562V55.924V57.3212H16.2052H21.6542V58.7184V60.1156H24.3089H26.9635V61.2333V62.3511H25.5663H24.1691V66.4029V70.4547H22.9117H21.6542V73.3888V76.3228H22.9117H24.1691V77.5803V78.8377H29.7579H35.3466V76.1831V73.5285H36.4643H37.5821V74.9256V76.3228H38.9792H40.3764V77.5803V78.8377H43.1708H45.9651V77.3008V75.764H43.3105H40.6558V74.6462V73.5285H41.9133H43.1708V71.9916V70.4547H41.9133H40.6558V67.9398V65.4248H41.9133H43.1708V62.7702V60.1156H45.9651H48.7595V58.5787V57.0418H47.3623H45.9651V51.8722V46.7027H47.0829H48.2006V48.0998V49.497H49.5978H50.995V50.5994V51.7018L49.6676 51.787L48.3403 51.8722L48.2559 53.3393L48.1713 54.8063H49.5832H50.995V56.0638V57.3212H52.3921H53.7893V59.8361V62.3511H52.3921H50.995V66.4029V70.4547H49.8848H48.7748L48.6972 66.4727L48.6198 62.4908L47.1527 62.4064L45.6857 62.3217V67.9252V73.5285H46.9278H48.1699L48.2551 74.8558L48.3403 76.1831L49.8074 76.2675L51.2744 76.3522V73.543V70.7341H52.5318H53.7893V74.7859V78.8377H56.5837H59.378V77.3008V75.764H57.9808H56.5837V74.6462V73.5285H57.9808H59.378V70.8738V68.2192H60.4958H61.6135V70.8738V73.5285H64.4079H67.2022V74.6361V75.7438L64.4777 75.8238L61.7532 75.9037L61.6688 77.3707L61.5842 78.8377H65.7905H69.9966V76.1831V73.5285H74.0484H78.1002V71.9916V70.4547H76.8427H75.5853V66.6823V62.9099H76.8427H78.1002V59.9758V57.0418H76.8427H75.5853V54.5269V52.0119H76.8427H78.1002V47.8204V43.6289H75.3058H72.5115V45.1658V46.7027H73.7689H75.0264V49.2176V51.7325H73.9087H72.7909V50.3353V48.9381H71.3937H69.9966V47.6807V46.4232H68.5994H67.2022V47.6807V48.9381H65.805H64.4079V50.475V52.0119H65.805H67.2022V53.2694V54.5269H64.6873H62.1724V53.1297V51.7325H58.1206H54.0687V50.3353V48.9381H52.6716H51.2744V46.4232V43.9083H52.5318H53.7893V45.3055V46.7027H55.0468H56.3042V48.1096V49.5166L59.1684 49.4369L62.0327 49.3573L62.1179 48.03L62.2031 46.7027H63.4452H64.6873V45.3055V43.9083H67.3419H69.9966V42.6508V41.3934H71.3937H72.7909V39.8565V38.3196H71.3937H69.9966V34.5472V30.7748H71.3937H72.7909V29.3777V27.9805H73.8933H74.9957L75.0809 29.3078L75.1661 30.6351L76.6332 30.7195L78.1002 30.8042V27.8553V24.9067H75.3058H72.5115V26.3039V27.7011H71.254H69.9966V25.0464V22.3918H68.5994H67.2022V25.1861V27.9805H68.4597H69.7171V29.0982V30.216H67.2022H64.6873V26.3039V22.3918H61.8929H59.0986V25.1861V27.9805H60.356H61.6135V29.0982V30.216H59.0986H56.5837V23.5095V16.8031H55.1865H53.7893V18.2002V19.5974H52.5318H51.2744V15.5456V11.4938H50.0169H48.7595V8.97887V6.46395H49.8772H50.995V7.86113V9.25831H53.7893H56.5837V5.06678V0.875244H53.7893H50.995V2.11733V3.35943L49.6676 3.44465L48.3403 3.52988L48.2551 4.8572L48.1699 6.18452H45.6703H43.1708V5.06678V3.94903H44.5679H45.9651V2.41214V0.875244H43.1708H40.3764V3.6696ZM59.0986 10.3761V19.8769H68.5994H78.1002V10.3761V0.875244H68.5994H59.0986V10.3761ZM16.0655 10.3761V16.8031H9.6385H3.21149V10.3761V3.94903H9.6385H16.0655V10.3761ZM53.7893 5.06678V6.18452H52.5318H51.2744V5.06678V3.94903H52.5318H53.7893V5.06678ZM75.0264 10.3761V16.8031H68.5994H62.1724V10.3761V3.94903H68.5994H75.0264V10.3761ZM5.44697 10.3761V14.5676H9.6385H13.83V10.3761V6.18452H9.6385H5.44697V10.3761ZM64.4079 10.3761V14.5676H68.5994H72.7909V10.3761V6.18452H68.5994H64.4079V10.3761ZM21.6542 10.3761V11.7732H23.0514H24.4486V10.3761V8.97887H23.0514H21.6542V10.3761ZM45.6857 10.3761V11.4938H44.4282H43.1708V10.3761V9.25831H44.4282H45.6857V10.3761ZM42.8913 15.6853V19.5974H41.7736H40.6558V15.6853V11.7732H41.7736H42.8913V15.6853ZM48.2006 13.0307V14.2881H47.0829H45.9651V13.0307V11.7732H47.0829H48.2006V13.0307ZM37.5821 17.0825V19.5974H36.4643H35.3466V17.0825V14.5676H36.4643H37.5821V17.0825ZM26.9635 18.4797V19.5974H25.706H24.4486V18.4797V17.3619H25.706H26.9635V18.4797ZM48.2006 18.4797V19.5974H47.0829H45.9651V18.4797V17.3619H47.0829H48.2006V18.4797ZM45.6857 21.1343V22.3918H44.4282H43.1708V21.1343V19.8769H44.4282H45.6857V21.1343ZM50.995 21.274V22.6712H52.3921H53.7893V26.4436V30.216H52.3921H50.995V31.7529V33.2898H52.3921H53.7893V34.5472V35.8047H50.995H48.2006V37.0621V38.3196H47.0829H45.9651V35.665V33.0103H44.5679H43.1708V31.8926V30.7748H44.5679H45.9651V29.3777V27.9805H47.3623H48.7595V23.9287V19.8769H49.8772H50.995V21.274ZM26.9635 31.8926V33.0103H25.706H24.4486V31.8926V30.7748H25.706H26.9635V31.8926ZM72.5115 34.5472V36.0841H73.7689H75.0264V38.7388V41.3934H76.5633H78.1002V38.599V35.8047H76.8427H75.5853V34.4075V33.0103H74.0484H72.5115V34.5472ZM21.6542 34.5472V35.8047H20.3968H19.1393V34.5472V33.2898H20.3968H21.6542V34.5472ZM67.2022 37.2019V41.114H65.9448H64.6873V39.7168V38.3196H63.4298H62.1724V37.2019V36.0841H63.4298H64.6873V34.6869V33.2898H65.9448H67.2022V37.2019ZM18.8599 37.2019V38.3196H17.7421H16.6244V37.2019V36.0841H17.7421H18.8599V37.2019ZM59.0986 37.3416V38.599H60.356H61.6135V39.8565V41.114H59.0986H56.5837V39.7168V38.3196H55.3262H54.0687V37.2019V36.0841H56.5837H59.0986V37.3416ZM64.4079 42.5111V43.6289H63.2901H62.1724V42.5111V41.3934H63.2901H64.4079V42.5111ZM59.0986 45.1658V46.4232H57.8411H56.5837V45.1658V43.9083H57.8411H59.0986V45.1658ZM42.8913 49.2176V51.7325H41.7736H40.6558V50.3353V48.9381H39.2587H37.8615V47.8204V46.7027H40.3764H42.8913V49.2176ZM21.6542 50.6148V51.7325H20.3968H19.1393V50.6148V49.497H20.3968H21.6542V50.6148ZM29.4784 50.6148V51.7325H28.3607H27.2429V50.6148V49.497H28.3607H29.4784V50.6148ZM18.8599 53.2694V54.5269H17.7421H16.6244V53.2694V52.0119H17.7421H18.8599V53.2694ZM24.1691 53.2694V54.5269H23.0514H21.9337V53.2694V52.0119H23.0514H24.1691V53.2694ZM37.5821 53.2694V54.5269H36.4643H35.3466V53.2694V52.0119H36.4643H37.5821V53.2694ZM72.5115 55.924V59.8361H71.254H69.9966V55.924V52.0119H71.254H72.5115V55.924ZM26.9635 55.924V57.0418H25.706H24.4486V55.924V54.8063H25.706H26.9635V55.924ZM32.2728 56.0638V57.3212H34.9274H37.5821V58.5787V59.8361H32.4125H27.2429V58.5787V57.3212H28.6401H30.0373V56.0638V54.8063H31.155H32.2728V56.0638ZM42.8913 55.924V57.0418H40.3764H37.8615V55.924V54.8063H40.3764H42.8913V55.924ZM64.4079 61.2333V65.1454H60.4958H56.5837V61.2333V57.3212H60.4958H64.4079V61.2333ZM0.137695 69.3369V78.8377H9.6385H19.1393V69.3369V59.8361H9.6385H0.137695V69.3369ZM59.0986 61.3876V62.9393L60.5656 62.8546L62.0327 62.7702L62.117 61.3032L62.2017 59.8361H60.65H59.0986V61.3876ZM75.0264 61.2333V62.3511H73.9087H72.7909V61.2333V60.1156H73.9087H75.0264V61.2333ZM16.0655 69.3369V75.764H9.6385H3.21149V69.3369V62.9099H9.6385H16.0655V69.3369ZM35.0671 66.6823V70.4547H33.67H32.2728V73.1093V75.764H29.7579H27.2429V74.5065V73.249H25.8458H24.4486V71.9916V70.7341H25.8458H27.2429V69.4767V68.2192H29.8976H32.5522V66.6823V65.1454H31.2948H30.0373V64.0277V62.9099H32.5522H35.0671V66.6823ZM40.3764 64.0277V65.1454H39.1189H37.8615V64.0277V62.9099H39.1189H40.3764V64.0277ZM72.5115 65.4248V67.9398H71.1143H69.7171V70.5944V73.249H68.5994H67.4816V69.3369V65.4248H68.7391H69.9966V64.1674V62.9099H71.254H72.5115V65.4248ZM5.44697 69.3369V73.5285H9.6385H13.83V69.3369V65.1454H9.6385H5.44697V69.3369ZM56.3042 69.3369V70.4547H55.1865H54.0687V69.3369V68.2192H55.1865H56.3042V69.3369ZM75.2128 75.9503C75.1102 76.0526 75.0264 76.7442 75.0264 77.4872V78.8377H76.5633H78.1002V77.3008V75.764H76.7497C76.0067 75.764 75.3151 75.8478 75.2128 75.9503Z" fill="black"/>
<path fill-rule="evenodd" clip-rule="evenodd" d="M0.137695 10.3761V19.8769H9.6385H19.1393V10.3761V0.875244H9.6385H0.137695V10.3761ZM24.1691 3.6696V6.46395H25.5663H26.9635V7.87566V9.28765L28.4305 9.20298L29.8976 9.11859L29.9781 6.53381L30.0582 3.94903H31.3054H32.5522V2.41214V0.875244H31.0153H29.4784V2.1327V3.39016H28.3607H27.2429V2.1327V0.875244H25.706H24.1691V3.6696ZM40.3764 3.6696V6.46395H41.6339H42.8913V7.72141V8.97887H40.3764H37.8615V6.18452V3.39016H36.4643H35.0671V8.83916V14.2881H33.8097H32.5522V12.891V11.4938H31.0153H29.4784V13.0307V14.5676H30.8756H32.2728V18.6194V22.6712H33.67H35.0671V23.789V24.9067H33.67H32.2728V26.4436V27.9805H33.8097H35.3466V26.5833V25.1861H36.4643H37.5821V26.5833V27.9805H39.1189H40.6558V25.3258V22.6712H41.7736H42.8913V23.9287V25.1861H44.2885H45.6857V26.4436V27.7011H44.2885H42.8913V28.9585V30.216H41.6339H40.3764V31.7529V33.2898H41.6339H42.8913V35.9444V38.599H44.2885H45.6857V39.9962V41.3934H46.9431H48.2006V42.5111V43.6289H44.4282H40.6558V42.3714V41.114H39.2587H37.8615V39.8565V38.599H39.2587H40.6558V37.2019V35.8047H39.1189H37.5821V37.0621V38.3196H36.3246H35.0671V42.3714V46.4232H33.8097H32.5522V43.7686V41.114H31.0153H29.4784V43.7686V46.4232H28.3607H27.2429V43.7686V41.114H24.4486H21.6542V42.5111V43.9083H22.9117H24.1691V45.3055V46.7027H25.5663H26.9635V47.8204V48.9381H24.4486H21.9337V47.6807V46.4232H20.5365H19.1393V45.0261V43.6289H17.8818H16.6244V42.5111V41.3934H17.8818H19.1393V39.9962V38.599H20.5365H21.9337V37.3416V36.0841H23.0514H24.1691V37.3416V38.599H27.1032H30.0373V30.4954V22.3918H28.6401H27.2429V21.1343V19.8769H28.6546H30.0666L29.982 18.4098L29.8976 16.9428L28.5703 16.8576L27.2429 16.7723V15.5302V14.2881H24.4486H21.6542V18.4797V22.6712H22.9117H24.1691V23.789V24.9067H22.9117H21.6542V27.5613V30.216H20.3968H19.1393V28.9585V27.7011H17.8818H16.6244V26.4436V25.1861H17.8818H19.1393V23.789V22.3918H17.6024H16.0655V23.6492V24.9067H13.4109H10.7562V26.3039V27.7011H9.6385H8.52076V25.0464V22.3918H5.58669H2.65261V25.1861V27.9805H5.44697H8.24132V29.3777V30.7748H9.6385H11.0357V29.3777V27.9805H13.5352H16.0348L16.12 29.3078L16.2052 30.6351L17.5326 30.7203L18.8599 30.8056V31.9079V33.0103H11.0357H3.21149V31.6131V30.216H1.67459H0.137695V34.4075V38.599H2.93205H5.72641V37.3416V36.0841H6.98386H8.24132V37.3416V38.599H12.1534H16.0655V39.8565V41.114H12.1534H8.24132V42.5111V43.9083H12.1534H16.0655V45.3055V46.7027H17.4627H18.8599V47.8204V48.9381H16.345H13.83V47.6807V46.4232H12.2931H10.7562V47.6807V48.9381H9.6385H8.52076V47.6807V46.4232H7.12358H5.72641V45.0261V43.6289H2.93205H0.137695V46.5629V49.497H1.67459H3.21149V48.0998V46.7027H4.32923H5.44697V49.2176V51.7325H2.79233H0.137695V53.2694V54.8063H2.79233H5.44697V56.0638V57.3212H6.98386H8.52076V54.6666V52.0119H11.0357H13.5506V53.2694V54.5269H12.1534H10.7562V55.924V57.3212H16.2052H21.6542V58.7184V60.1156H24.3089H26.9635V61.2333V62.3511H25.5663H24.1691V66.4029V70.4547H22.9117H21.6542V73.3888V76.3228H22.9117H24.1691V77.5803V78.8377H29.7579H35.3466V76.1831V73.5285H36.4643H37.5821V74.9256V76.3228H38.9792H40.3764V77.5803V78.8377H43.1708H45.9651V77.3008V75.764H43.3105H40.6558V74.6462V73.5285H41.9133H43.1708V71.9916V70.4547H41.9133H40.6558V67.9398V65.4248H41.9133H43.1708V62.7702V60.1156H45.9651H48.7595V58.5787V57.0418H47.3623H45.9651V51.8722V46.7027H47.0829H48.2006V48.0998V49.497H49.5978H50.995V50.5994V51.7018L49.6676 51.787L48.3403 51.8722L48.2559 53.3393L48.1713 54.8063H49.5832H50.995V56.0638V57.3212H52.3921H53.7893V59.8361V62.3511H52.3921H50.995V66.4029V70.4547H49.8848H48.7748L48.6972 66.4727L48.6198 62.4908L47.1527 62.4064L45.6857 62.3217V67.9252V73.5285H46.9278H48.1699L48.2551 74.8558L48.3403 76.1831L49.8074 76.2675L51.2744 76.3522V73.543V70.7341H52.5318H53.7893V74.7859V78.8377H56.5837H59.378V77.3008V75.764H57.9808H56.5837V74.6462V73.5285H57.9808H59.378V70.8738V68.2192H60.4958H61.6135V70.8738V73.5285H64.4079H67.2022V74.6361V75.7438L64.4777 75.8238L61.7532 75.9037L61.6688 77.3707L61.5842 78.8377H65.7905H69.9966V76.1831V73.5285H74.0484H78.1002V71.9916V70.4547H76.8427H75.5853V66.6823V62.9099H76.8427H78.1002V59.9758V57.0418H76.8427H75.5853V54.5269V52.0119H76.8427H78.1002V47.8204V43.6289H75.3058H72.5115V45.1658V46.7027H73.7689H75.0264V49.2176V51.7325H73.9087H72.7909V50.3353V48.9381H71.3937H69.9966V47.6807V46.4232H68.5994H67.2022V47.6807V48.9381H65.805H64.4079V50.475V52.0119H65.805H67.2022V53.2694V54.5269H64.6873H62.1724V53.1297V51.7325H58.1206H54.0687V50.3353V48.9381H52.6716H51.2744V46.4232V43.9083H52.5318H53.7893V45.3055V46.7027H55.0468H56.3042V48.1096V49.5166L59.1684 49.4369L62.0327 49.3573L62.1179 48.03L62.2031 46.7027H63.4452H64.6873V45.3055V43.9083H67.3419H69.9966V42.6508V41.3934H71.3937H72.7909V39.8565V38.3196H71.3937H69.9966V34.5472V30.7748H71.3937H72.7909V29.3777V27.9805H73.8933H74.9957L75.0809 29.3078L75.1661 30.6351L76.6332 30.7195L78.1002 30.8042V27.8553V24.9067H75.3058H72.5115V26.3039V27.7011H71.254H69.9966V25.0464V22.3918H68.5994H67.2022V25.1861V27.9805H68.4597H69.7171V29.0982V30.216H67.2022H64.6873V26.3039V22.3918H61.8929H59.0986V25.1861V27.9805H60.356H61.6135V29.0982V30.216H59.0986H56.5837V23.5095V16.8031H55.1865H53.7893V18.2002V19.5974H52.5318H51.2744V15.5456V11.4938H50.0169H48.7595V8.97887V6.46395H49.8772H50.995V7.86113V9.25831H53.7893H56.5837V5.06678V0.875244H53.7893H50.995V2.11733V3.35943L49.6676 3.44465L48.3403 3.52988L48.2551 4.8572L48.1699 6.18452H45.6703H43.1708V5.06678V3.94903H44.5679H45.9651V2.41214V0.875244H43.1708H40.3764V3.6696ZM59.0986 10.3761V19.8769H68.5994H78.1002V10.3761V0.875244H68.5994H59.0986V10.3761ZM16.0655 10.3761V16.8031H9.6385H3.21149V10.3761V3.94903H9.6385H16.0655V10.3761ZM53.7893 5.06678V6.18452H52.5318H51.2744V5.06678V3.94903H52.5318H53.7893V5.06678ZM75.0264 10.3761V16.8031H68.5994H62.1724V10.3761V3.94903H68.5994H75.0264V10.3761ZM5.44697 10.3761V14.5676H9.6385H13.83V10.3761V6.18452H9.6385H5.44697V10.3761ZM64.4079 10.3761V14.5676H68.5994H72.7909V10.3761V6.18452H68.5994H64.4079V10.3761ZM21.6542 10.3761V11.7732H23.0514H24.4486V10.3761V8.97887H23.0514H21.6542V10.3761ZM45.6857 10.3761V11.4938H44.4282H43.1708V10.3761V9.25831H44.4282H45.6857V10.3761ZM42.8913 15.6853V19.5974H41.7736H40.6558V15.6853V11.7732H41.7736H42.8913V15.6853ZM48.2006 13.0307V14.2881H47.0829H45.9651V13.0307V11.7732H47.0829H48.2006V13.0307ZM37.5821 17.0825V19.5974H36.4643H35.3466V17.0825V14.5676H36.4643H37.5821V17.0825ZM26.9635 18.4797V19.5974H25.706H24.4486V18.4797V17.3619H25.706H26.9635V18.4797ZM48.2006 18.4797V19.5974H47.0829H45.9651V18.4797V17.3619H47.0829H48.2006V18.4797ZM45.6857 21.1343V22.3918H44.4282H43.1708V21.1343V19.8769H44.4282H45.6857V21.1343ZM50.995 21.274V22.6712H52.3921H53.7893V26.4436V30.216H52.3921H50.995V31.7529V33.2898H52.3921H53.7893V34.5472V35.8047H50.995H48.2006V37.0621V38.3196H47.0829H45.9651V35.665V33.0103H44.5679H43.1708V31.8926V30.7748H44.5679H45.9651V29.3777V27.9805H47.3623H48.7595V23.9287V19.8769H49.8772H50.995V21.274ZM26.9635 31.8926V33.0103H25.706H24.4486V31.8926V30.7748H25.706H26.9635V31.8926ZM72.5115 34.5472V36.0841H73.7689H75.0264V38.7388V41.3934H76.5633H78.1002V38.599V35.8047H76.8427H75.5853V34.4075V33.0103H74.0484H72.5115V34.5472ZM21.6542 34.5472V35.8047H20.3968H19.1393V34.5472V33.2898H20.3968H21.6542V34.5472ZM67.2022 37.2019V41.114H65.9448H64.6873V39.7168V38.3196H63.4298H62.1724V37.2019V36.0841H63.4298H64.6873V34.6869V33.2898H65.9448H67.2022V37.2019ZM18.8599 37.2019V38.3196H17.7421H16.6244V37.2019V36.0841H17.7421H18.8599V37.2019ZM59.0986 37.3416V38.599H60.356H61.6135V39.8565V41.114H59.0986H56.5837V39.7168V38.3196H55.3262H54.0687V37.2019V36.0841H56.5837H59.0986V37.3416ZM64.4079 42.5111V43.6289H63.2901H62.1724V42.5111V41.3934H63.2901H64.4079V42.5111ZM59.0986 45.1658V46.4232H57.8411H56.5837V45.1658V43.9083H57.8411H59.0986V45.1658ZM42.8913 49.2176V51.7325H41.7736H40.6558V50.3353V48.9381H39.2587H37.8615V47.8204V46.7027H40.3764H42.8913V49.2176ZM21.6542 50.6148V51.7325H20.3968H19.1393V50.6148V49.497H20.3968H21.6542V50.6148ZM29.4784 50.6148V51.7325H28.3607H27.2429V50.6148V49.497H28.3607H29.4784V50.6148ZM18.8599 53.2694V54.5269H17.7421H16.6244V53.2694V52.0119H17.7421H18.8599V53.2694ZM24.1691 53.2694V54.5269H23.0514H21.9337V53.2694V52.0119H23.0514H24.1691V53.2694ZM37.5821 53.2694V54.5269H36.4643H35.3466V53.2694V52.0119H36.4643H37.5821V53.2694ZM72.5115 55.924V59.8361H71.254H69.9966V55.924V52.0119H71.254H72.5115V55.924ZM26.9635 55.924V57.0418H25.706H24.4486V55.924V54.8063H25.706H26.9635V55.924ZM32.2728 56.0638V57.3212H34.9274H37.5821V58.5787V59.8361H32.4125H27.2429V58.5787V57.3212H28.6401H30.0373V56.0638V54.8063H31.155H32.2728V56.0638ZM42.8913 55.924V57.0418H40.3764H37.8615V55.924V54.8063H40.3764H42.8913V55.924ZM64.4079 61.2333V65.1454H60.4958H56.5837V61.2333V57.3212H60.4958H64.4079V61.2333ZM0.137695 69.3369V78.8377H9.6385H19.1393V69.3369V59.8361H9.6385H0.137695V69.3369ZM59.0986 61.3876V62.9393L60.5656 62.8546L62.0327 62.7702L62.117 61.3032L62.2017 59.8361H60.65H59.0986V61.3876ZM75.0264 61.2333V62.3511H73.9087H72.7909V61.2333V60.1156H73.9087H75.0264V61.2333ZM16.0655 69.3369V75.764H9.6385H3.21149V69.3369V62.9099H9.6385H16.0655V69.3369ZM35.0671 66.6823V70.4547H33.67H32.2728V73.1093V75.764H29.7579H27.2429V74.5065V73.249H25.8458H24.4486V71.9916V70.7341H25.8458H27.2429V69.4767V68.2192H29.8976H32.5522V66.6823V65.1454H31.2948H30.0373V64.0277V62.9099H32.5522H35.0671V66.6823ZM40.3764 64.0277V65.1454H39.1189H37.8615V64.0277V62.9099H39.1189H40.3764V64.0277ZM72.5115 65.4248V67.9398H71.1143H69.7171V70.5944V73.249H68.5994H67.4816V69.3369V65.4248H68.7391H69.9966V64.1674V62.9099H71.254H72.5115V65.4248ZM5.44697 69.3369V73.5285H9.6385H13.83V69.3369V65.1454H9.6385H5.44697V69.3369ZM56.3042 69.3369V70.4547H55.1865H54.0687V69.3369V68.2192H55.1865H56.3042V69.3369ZM75.2128 75.9503C75.1102 76.0526 75.0264 76.7442 75.0264 77.4872V78.8377H76.5633H78.1002V77.3008V75.764H76.7497C76.0067 75.764 75.3151 75.8478 75.2128 75.9503Z" fill="black"/>
<path fill-rule="evenodd" clip-rule="evenodd" d="M0.137695 10.3761V19.8769H9.6385H19.1393V10.3761V0.875244H9.6385H0.137695V10.3761ZM24.1691 3.6696V6.46395H25.5663H26.9635V7.87566V9.28765L28.4305 9.20298L29.8976 9.11859L29.9781 6.53381L30.0582 3.94903H31.3054H32.5522V2.41214V0.875244H31.0153H29.4784V2.1327V3.39016H28.3607H27.2429V2.1327V0.875244H25.706H24.1691V3.6696ZM40.3764 3.6696V6.46395H41.6339H42.8913V7.72141V8.97887H40.3764H37.8615V6.18452V3.39016H36.4643H35.0671V8.83916V14.2881H33.8097H32.5522V12.891V11.4938H31.0153H29.4784V13.0307V14.5676H30.8756H32.2728V18.6194V22.6712H33.67H35.0671V23.789V24.9067H33.67H32.2728V26.4436V27.9805H33.8097H35.3466V26.5833V25.1861H36.4643H37.5821V26.5833V27.9805H39.1189H40.6558V25.3258V22.6712H41.7736H42.8913V23.9287V25.1861H44.2885H45.6857V26.4436V27.7011H44.2885H42.8913V28.9585V30.216H41.6339H40.3764V31.7529V33.2898H41.6339H42.8913V35.9444V38.599H44.2885H45.6857V39.9962V41.3934H46.9431H48.2006V42.5111V43.6289H44.4282H40.6558V42.3714V41.114H39.2587H37.8615V39.8565V38.599H39.2587H40.6558V37.2019V35.8047H39.1189H37.5821V37.0621V38.3196H36.3246H35.0671V42.3714V46.4232H33.8097H32.5522V43.7686V41.114H31.0153H29.4784V43.7686V46.4232H28.3607H27.2429V43.7686V41.114H24.4486H21.6542V42.5111V43.9083H22.9117H24.1691V45.3055V46.7027H25.5663H26.9635V47.8204V48.9381H24.4486H21.9337V47.6807V46.4232H20.5365H19.1393V45.0261V43.6289H17.8818H16.6244V42.5111V41.3934H17.8818H19.1393V39.9962V38.599H20.5365H21.9337V37.3416V36.0841H23.0514H24.1691V37.3416V38.599H27.1032H30.0373V30.4954V22.3918H28.6401H27.2429V21.1343V19.8769H28.6546H30.0666L29.982 18.4098L29.8976 16.9428L28.5703 16.8576L27.2429 16.7723V15.5302V14.2881H24.4486H21.6542V18.4797V22.6712H22.9117H24.1691V23.789V24.9067H22.9117H21.6542V27.5613V30.216H20.3968H19.1393V28.9585V27.7011H17.8818H16.6244V26.4436V25.1861H17.8818H19.1393V23.789V22.3918H17.6024H16.0655V23.6492V24.9067H13.4109H10.7562V26.3039V27.7011H9.6385H8.52076V25.0464V22.3918H5.58669H2.65261V25.1861V27.9805H5.44697H8.24132V29.3777V30.7748H9.6385H11.0357V29.3777V27.9805H13.5352H16.0348L16.12 29.3078L16.2052 30.6351L17.5326 30.7203L18.8599 30.8056V31.9079V33.0103H11.0357H3.21149V31.6131V30.216H1.67459H0.137695V34.4075V38.599H2.93205H5.72641V37.3416V36.0841H6.98386H8.24132V37.3416V38.599H12.1534H16.0655V39.8565V41.114H12.1534H8.24132V42.5111V43.9083H12.1534H16.0655V45.3055V46.7027H17.4627H18.8599V47.8204V48.9381H16.345H13.83V47.6807V46.4232H12.2931H10.7562V47.6807V48.9381H9.6385H8.52076V47.6807V46.4232H7.12358H5.72641V45.0261V43.6289H2.93205H0.137695V46.5629V49.497H1.67459H3.21149V48.0998V46.7027H4.32923H5.44697V49.2176V51.7325H2.79233H0.137695V53.2694V54.8063H2.79233H5.44697V56.0638V57.3212H6.98386H8.52076V54.6666V52.0119H11.0357H13.5506V53.2694V54.5269H12.1534H10.7562V55.924V57.3212H16.2052H21.6542V58.7184V60.1156H24.3089H26.9635V61.2333V62.3511H25.5663H24.1691V66.4029V70.4547H22.9117H21.6542V73.3888V76.3228H22.9117H24.1691V77.5803V78.8377H29.7579H35.3466V76.1831V73.5285H36.4643H37.5821V74.9256V76.3228H38.9792H40.3764V77.5803V78.8377H43.1708H45.9651V77.3008V75.764H43.3105H40.6558V74.6462V73.5285H41.9133H43.1708V71.9916V70.4547H41.9133H40.6558V67.9398V65.4248H41.9133H43.1708V62.7702V60.1156H45.9651H48.7595V58.5787V57.0418H47.3623H45.9651V51.8722V46.7027H47.0829H48.2006V48.0998V49.497H49.5978H50.995V50.5994V51.7018L49.6676 51.787L48.3403 51.8722L48.2559 53.3393L48.1713 54.8063H49.5832H50.995V56.0638V57.3212H52.3921H53.7893V59.8361V62.3511H52.3921H50.995V66.4029V70.4547H49.8848H48.7748L48.6972 66.4727L48.6198 62.4908L47.1527 62.4064L45.6857 62.3217V67.9252V73.5285H46.9278H48.1699L48.2551 74.8558L48.3403 76.1831L49.8074 76.2675L51.2744 76.3522V73.543V70.7341H52.5318H53.7893V74.7859V78.8377H56.5837H59.378V77.3008V75.764H57.9808H56.5837V74.6462V73.5285H57.9808H59.378V70.8738V68.2192H60.4958H61.6135V70.8738V73.5285H64.4079H67.2022V74.6361V75.7438L64.4777 75.8238L61.7532 75.9037L61.6688 77.3707L61.5842 78.8377H65.7905H69.9966V76.1831V73.5285H74.0484H78.1002V71.9916V70.4547H76.8427H75.5853V66.6823V62.9099H76.8427H78.1002V59.9758V57.0418H76.8427H75.5853V54.5269V52.0119H76.8427H78.1002V47.8204V43.6289H75.3058H72.5115V45.1658V46.7027H73.7689H75.0264V49.2176V51.7325H73.9087H72.7909V50.3353V48.9381H71.3937H69.9966V47.6807V46.4232H68.5994H67.2022V47.6807V48.9381H65.805H64.4079V50.475V52.0119H65.805H67.2022V53.2694V54.5269H64.6873H62.1724V53.1297V51.7325H58.1206H54.0687V50.3353V48.9381H52.6716H51.2744V46.4232V43.9083H52.5318H53.7893V45.3055V46.7027H55.0468H56.3042V48.1096V49.5166L59.1684 49.4369L62.0327 49.3573L62.1179 48.03L62.2031 46.7027H63.4452H64.6873V45.3055V43.9083H67.3419H69.9966V42.6508V41.3934H71.3937H72.7909V39.8565V38.3196H71.3937H69.9966V34.5472V30.7748H71.3937H72.7909V29.3777V27.9805H73.8933H74.9957L75.0809 29.3078L75.1661 30.6351L76.6332 30.7195L78.1002 30.8042V27.8553V24.9067H75.3058H72.5115V26.3039V27.7011H71.254H69.9966V25.0464V22.3918H68.5994H67.2022V25.1861V27.9805H68.4597H69.7171V29.0982V30.216H67.2022H64.6873V26.3039V22.3918H61.8929H59.0986V25.1861V27.9805H60.356H61.6135V29.0982V30.216H59.0986H56.5837V23.5095V16.8031H55.1865H53.7893V18.2002V19.5974H52.5318H51.2744V15.5456V11.4938H50.0169H48.7595V8.97887V6.46395H49.8772H50.995V7.86113V9.25831H53.7893H56.5837V5.06678V0.875244H53.7893H50.995V2.11733V3.35943L49.6676 3.44465L48.3403 3.52988L48.2551 4.8572L48.1699 6.18452H45.6703H43.1708V5.06678V3.94903H44.5679H45.9651V2.41214V0.875244H43.1708H40.3764V3.6696ZM59.0986 10.3761V19.8769H68.5994H78.1002V10.3761V0.875244H68.5994H59.0986V10.3761ZM16.0655 10.3761V16.8031H9.6385H3.21149V10.3761V3.94903H9.6385H16.0655V10.3761ZM53.7893 5.06678V6.18452H52.5318H51.2744V5.06678V3.94903H52.5318H53.7893V5.06678ZM75.0264 10.3761V16.8031H68.5994H62.1724V10.3761V3.94903H68.5994H75.0264V10.3761ZM5.44697 10.3761V14.5676H9.6385H13.83V10.3761V6.18452H9.6385H5.44697V10.3761ZM64.4079 10.3761V14.5676H68.5994H72.7909V10.3761V6.18452H68.5994H64.4079V10.3761ZM21.6542 10.3761V11.7732H23.0514H24.4486V10.3761V8.97887H23.0514H21.6542V10.3761ZM45.6857 10.3761V11.4938H44.4282H43.1708V10.3761V9.25831H44.4282H45.6857V10.3761ZM42.8913 15.6853V19.5974H41.7736H40.6558V15.6853V11.7732H41.7736H42.8913V15.6853ZM48.2006 13.0307V14.2881H47.0829H45.9651V13.0307V11.7732H47.0829H48.2006V13.0307ZM37.5821 17.0825V19.5974H36.4643H35.3466V17.0825V14.5676H36.4643H37.5821V17.0825ZM26.9635 18.4797V19.5974H25.706H24.4486V18.4797V17.3619H25.706H26.9635V18.4797ZM48.2006 18.4797V19.5974H47.0829H45.9651V18.4797V17.3619H47.0829H48.2006V18.4797ZM45.6857 21.1343V22.3918H44.4282H43.1708V21.1343V19.8769H44.4282H45.6857V21.1343ZM50.995 21.274V22.6712H52.3921H53.7893V26.4436V30.216H52.3921H50.995V31.7529V33.2898H52.3921H53.7893V34.5472V35.8047H50.995H48.2006V37.0621V38.3196H47.0829H45.9651V35.665V33.0103H44.5679H43.1708V31.8926V30.7748H44.5679H45.9651V29.3777V27.9805H47.3623H48.7595V23.9287V19.8769H49.8772H50.995V21.274ZM26.9635 31.8926V33.0103H25.706H24.4486V31.8926V30.7748H25.706H26.9635V31.8926ZM72.5115 34.5472V36.0841H73.7689H75.0264V38.7388V41.3934H76.5633H78.1002V38.599V35.8047H76.8427H75.5853V34.4075V33.0103H74.0484H72.5115V34.5472ZM21.6542 34.5472V35.8047H20.3968H19.1393V34.5472V33.2898H20.3968H21.6542V34.5472ZM67.2022 37.2019V41.114H65.9448H64.6873V39.7168V38.3196H63.4298H62.1724V37.2019V36.0841H63.4298H64.6873V34.6869V33.2898H65.9448H67.2022V37.2019ZM18.8599 37.2019V38.3196H17.7421H16.6244V37.2019V36.0841H17.7421H18.8599V37.2019ZM59.0986 37.3416V38.599H60.356H61.6135V39.8565V41.114H59.0986H56.5837V39.7168V38.3196H55.3262H54.0687V37.2019V36.0841H56.5837H59.0986V37.3416ZM64.4079 42.5111V43.6289H63.2901H62.1724V42.5111V41.3934H63.2901H64.4079V42.5111ZM59.0986 45.1658V46.4232H57.8411H56.5837V45.1658V43.9083H57.8411H59.0986V45.1658ZM42.8913 49.2176V51.7325H41.7736H40.6558V50.3353V48.9381H39.2587H37.8615V47.8204V46.7027H40.3764H42.8913V49.2176ZM21.6542 50.6148V51.7325H20.3968H19.1393V50.6148V49.497H20.3968H21.6542V50.6148ZM29.4784 50.6148V51.7325H28.3607H27.2429V50.6148V49.497H28.3607H29.4784V50.6148ZM18.8599 53.2694V54.5269H17.7421H16.6244V53.2694V52.0119H17.7421H18.8599V53.2694ZM24.1691 53.2694V54.5269H23.0514H21.9337V53.2694V52.0119H23.0514H24.1691V53.2694ZM37.5821 53.2694V54.5269H36.4643H35.3466V53.2694V52.0119H36.4643H37.5821V53.2694ZM72.5115 55.924V59.8361H71.254H69.9966V55.924V52.0119H71.254H72.5115V55.924ZM26.9635 55.924V57.0418H25.706H24.4486V55.924V54.8063H25.706H26.9635V55.924ZM32.2728 56.0638V57.3212H34.9274H37.5821V58.5787V59.8361H32.4125H27.2429V58.5787V57.3212H28.6401H30.0373V56.0638V54.8063H31.155H32.2728V56.0638ZM42.8913 55.924V57.0418H40.3764H37.8615V55.924V54.8063H40.3764H42.8913V55.924ZM64.4079 61.2333V65.1454H60.4958H56.5837V61.2333V57.3212H60.4958H64.4079V61.2333ZM0.137695 69.3369V78.8377H9.6385H19.1393V69.3369V59.8361H9.6385H0.137695V69.3369ZM59.0986 61.3876V62.9393L60.5656 62.8546L62.0327 62.7702L62.117 61.3032L62.2017 59.8361H60.65H59.0986V61.3876ZM75.0264 61.2333V62.3511H73.9087H72.7909V61.2333V60.1156H73.9087H75.0264V61.2333ZM16.0655 69.3369V75.764H9.6385H3.21149V69.3369V62.9099H9.6385H16.0655V69.3369ZM35.0671 66.6823V70.4547H33.67H32.2728V73.1093V75.764H29.7579H27.2429V74.5065V73.249H25.8458H24.4486V71.9916V70.7341H25.8458H27.2429V69.4767V68.2192H29.8976H32.5522V66.6823V65.1454H31.2948H30.0373V64.0277V62.9099H32.5522H35.0671V66.6823ZM40.3764 64.0277V65.1454H39.1189H37.8615V64.0277V62.9099H39.1189H40.3764V64.0277ZM72.5115 65.4248V67.9398H71.1143H69.7171V70.5944V73.249H68.5994H67.4816V69.3369V65.4248H68.7391H69.9966V64.1674V62.9099H71.254H72.5115V65.4248ZM5.44697 69.3369V73.5285H9.6385H13.83V69.3369V65.1454H9.6385H5.44697V69.3369ZM56.3042 69.3369V70.4547H55.1865H54.0687V69.3369V68.2192H55.1865H56.3042V69.3369ZM75.2128 75.9503C75.1102 76.0526 75.0264 76.7442 75.0264 77.4872V78.8377H76.5633H78.1002V77.3008V75.764H76.7497C76.0067 75.764 75.3151 75.8478 75.2128 75.9503Z" fill="black"/>
<path fill-rule="evenodd" clip-rule="evenodd" d="M0.137695 10.3761V19.8769H9.6385H19.1393V10.3761V0.875244H9.6385H0.137695V10.3761ZM24.1691 3.6696V6.46395H25.5663H26.9635V7.87566V9.28765L28.4305 9.20298L29.8976 9.11859L29.9781 6.53381L30.0582 3.94903H31.3054H32.5522V2.41214V0.875244H31.0153H29.4784V2.1327V3.39016H28.3607H27.2429V2.1327V0.875244H25.706H24.1691V3.6696ZM40.3764 3.6696V6.46395H41.6339H42.8913V7.72141V8.97887H40.3764H37.8615V6.18452V3.39016H36.4643H35.0671V8.83916V14.2881H33.8097H32.5522V12.891V11.4938H31.0153H29.4784V13.0307V14.5676H30.8756H32.2728V18.6194V22.6712H33.67H35.0671V23.789V24.9067H33.67H32.2728V26.4436V27.9805H33.8097H35.3466V26.5833V25.1861H36.4643H37.5821V26.5833V27.9805H39.1189H40.6558V25.3258V22.6712H41.7736H42.8913V23.9287V25.1861H44.2885H45.6857V26.4436V27.7011H44.2885H42.8913V28.9585V30.216H41.6339H40.3764V31.7529V33.2898H41.6339H42.8913V35.9444V38.599H44.2885H45.6857V39.9962V41.3934H46.9431H48.2006V42.5111V43.6289H44.4282H40.6558V42.3714V41.114H39.2587H37.8615V39.8565V38.599H39.2587H40.6558V37.2019V35.8047H39.1189H37.5821V37.0621V38.3196H36.3246H35.0671V42.3714V46.4232H33.8097H32.5522V43.7686V41.114H31.0153H29.4784V43.7686V46.4232H28.3607H27.2429V43.7686V41.114H24.4486H21.6542V42.5111V43.9083H22.9117H24.1691V45.3055V46.7027H25.5663H26.9635V47.8204V48.9381H24.4486H21.9337V47.6807V46.4232H20.5365H19.1393V45.0261V43.6289H17.8818H16.6244V42.5111V41.3934H17.8818H19.1393V39.9962V38.599H20.5365H21.9337V37.3416V36.0841H23.0514H24.1691V37.3416V38.599H27.1032H30.0373V30.4954V22.3918H28.6401H27.2429V21.1343V19.8769H28.6546H30.0666L29.982 18.4098L29.8976 16.9428L28.5703 16.8576L27.2429 16.7723V15.5302V14.2881H24.4486H21.6542V18.4797V22.6712H22.9117H24.1691V23.789V24.9067H22.9117H21.6542V27.5613V30.216H20.3968H19.1393V28.9585V27.7011H17.8818H16.6244V26.4436V25.1861H17.8818H19.1393V23.789V22.3918H17.6024H16.0655V23.6492V24.9067H13.4109H10.7562V26.3039V27.7011H9.6385H8.52076V25.0464V22.3918H5.58669H2.65261V25.1861V27.9805H5.44697H8.24132V29.3777V30.7748H9.6385H11.0357V29.3777V27.9805H13.5352H16.0348L16.12 29.3078L16.2052 30.6351L17.5326 30.7203L18.8599 30.8056V31.9079V33.0103H11.0357H3.21149V31.6131V30.216H1.67459H0.137695V34.4075V38.599H2.93205H5.72641V37.3416V36.0841H6.98386H8.24132V37.3416V38.599H12.1534H16.0655V39.8565V41.114H12.1534H8.24132V42.5111V43.9083H12.1534H16.0655V45.3055V46.7027H17.4627H18.8599V47.8204V48.9381H16.345H13.83V47.6807V46.4232H12.2931H10.7562V47.6807V48.9381H9.6385H8.52076V47.6807V46.4232H7.12358H5.72641V45.0261V43.6289H2.93205H0.137695V46.5629V49.497H1.67459H3.21149V48.0998V46.7027H4.32923H5.44697V49.2176V51.7325H2.79233H0.137695V53.2694V54.8063H2.79233H5.44697V56.0638V57.3212H6.98386H8.52076V54.6666V52.0119H11.0357H13.5506V53.2694V54.5269H12.1534H10.7562V55.924V57.3212H16.2052H21.6542V58.7184V60.1156H24.3089H26.9635V61.2333V62.3511H25.5663H24.1691V66.4029V70.4547H22.9117H21.6542V73.3888V76.3228H22.9117H24.1691V77.5803V78.8377H29.7579H35.3466V76.1831V73.5285H36.4643H37.5821V74.9256V76.3228H38.9792H40.3764V77.5803V78.8377H43.1708H45.9651V77.3008V75.764H43.3105H40.6558V74.6462V73.5285H41.9133H43.1708V71.9916V70.4547H41.9133H40.6558V67.9398V65.4248H41.9133H43.1708V62.7702V60.1156H45.9651H48.7595V58.5787V57.0418H47.3623H45.9651V51.8722V46.7027H47.0829H48.2006V48.0998V49.497H49.5978H50.995V50.5994V51.7018L49.6676 51.787L48.3403 51.8722L48.2559 53.3393L48.1713 54.8063H49.5832H50.995V56.0638V57.3212H52.3921H53.7893V59.8361V62.3511H52.3921H50.995V66.4029V70.4547H49.8848H48.7748L48.6972 66.4727L48.6198 62.4908L47.1527 62.4064L45.6857 62.3217V67.9252V73.5285H46.9278H48.1699L48.2551 74.8558L48.3403 76.1831L49.8074 76.2675L51.2744 76.3522V73.543V70.7341H52.5318H53.7893V74.7859V78.8377H56.5837H59.378V77.3008V75.764H57.9808H56.5837V74.6462V73.5285H57.9808H59.378V70.8738V68.2192H60.4958H61.6135V70.8738V73.5285H64.4079H67.2022V74.6361V75.7438L64.4777 75.8238L61.7532 75.9037L61.6688 77.3707L61.5842 78.8377H65.7905H69.9966V76.1831V73.5285H74.0484H78.1002V71.9916V70.4547H76.8427H75.5853V66.6823V62.9099H76.8427H78.1002V59.9758V57.0418H76.8427H75.5853V54.5269V52.0119H76.8427H78.1002V47.8204V43.6289H75.3058H72.5115V45.1658V46.7027H73.7689H75.0264V49.2176V51.7325H73.9087H72.7909V50.3353V48.9381H71.3937H69.9966V47.6807V46.4232H68.5994H67.2022V47.6807V48.9381H65.805H64.4079V50.475V52.0119H65.805H67.2022V53.2694V54.5269H64.6873H62.1724V53.1297V51.7325H58.1206H54.0687V50.3353V48.9381H52.6716H51.2744V46.4232V43.9083H52.5318H53.7893V45.3055V46.7027H55.0468H56.3042V48.1096V49.5166L59.1684 49.4369L62.0327 49.3573L62.1179 48.03L62.2031 46.7027H63.4452H64.6873V45.3055V43.9083H67.3419H69.9966V42.6508V41.3934H71.3937H72.7909V39.8565V38.3196H71.3937H69.9966V34.5472V30.7748H71.3937H72.7909V29.3777V27.9805H73.8933H74.9957L75.0809 29.3078L75.1661 30.6351L76.6332 30.7195L78.1002 30.8042V27.8553V24.9067H75.3058H72.5115V26.3039V27.7011H71.254H69.9966V25.0464V22.3918H68.5994H67.2022V25.1861V27.9805H68.4597H69.7171V29.0982V30.216H67.2022H64.6873V26.3039V22.3918H61.8929H59.0986V25.1861V27.9805H60.356H61.6135V29.0982V30.216H59.0986H56.5837V23.5095V16.8031H55.1865H53.7893V18.2002V19.5974H52.5318H51.2744V15.5456V11.4938H50.0169H48.7595V8.97887V6.46395H49.8772H50.995V7.86113V9.25831H53.7893H56.5837V5.06678V0.875244H53.7893H50.995V2.11733V3.35943L49.6676 3.44465L48.3403 3.52988L48.2551 4.8572L48.1699 6.18452H45.6703H43.1708V5.06678V3.94903H44.5679H45.9651V2.41214V0.875244H43.1708H40.3764V3.6696ZM59.0986 10.3761V19.8769H68.5994H78.1002V10.3761V0.875244H68.5994H59.0986V10.3761ZM16.0655 10.3761V16.8031H9.6385H3.21149V10.3761V3.94903H9.6385H16.0655V10.3761ZM53.7893 5.06678V6.18452H52.5318H51.2744V5.06678V3.94903H52.5318H53.7893V5.06678ZM75.0264 10.3761V16.8031H68.5994H62.1724V10.3761V3.94903H68.5994H75.0264V10.3761ZM5.44697 10.3761V14.5676H9.6385H13.83V10.3761V6.18452H9.6385H5.44697V10.3761ZM64.4079 10.3761V14.5676H68.5994H72.7909V10.3761V6.18452H68.5994H64.4079V10.3761ZM21.6542 10.3761V11.7732H23.0514H24.4486V10.3761V8.97887H23.0514H21.6542V10.3761ZM45.6857 10.3761V11.4938H44.4282H43.1708V10.3761V9.25831H44.4282H45.6857V10.3761ZM42.8913 15.6853V19.5974H41.7736H40.6558V15.6853V11.7732H41.7736H42.8913V15.6853ZM48.2006 13.0307V14.2881H47.0829H45.9651V13.0307V11.7732H47.0829H48.2006V13.0307ZM37.5821 17.0825V19.5974H36.4643H35.3466V17.0825V14.5676H36.4643H37.5821V17.0825ZM26.9635 18.4797V19.5974H25.706H24.4486V18.4797V17.3619H25.706H26.9635V18.4797ZM48.2006 18.4797V19.5974H47.0829H45.9651V18.4797V17.3619H47.0829H48.2006V18.4797ZM45.6857 21.1343V22.3918H44.4282H43.1708V21.1343V19.8769H44.4282H45.6857V21.1343ZM50.995 21.274V22.6712H52.3921H53.7893V26.4436V30.216H52.3921H50.995V31.7529V33.2898H52.3921H53.7893V34.5472V35.8047H50.995H48.2006V37.0621V38.3196H47.0829H45.9651V35.665V33.0103H44.5679H43.1708V31.8926V30.7748H44.5679H45.9651V29.3777V27.9805H47.3623H48.7595V23.9287V19.8769H49.8772H50.995V21.274ZM26.9635 31.8926V33.0103H25.706H24.4486V31.8926V30.7748H25.706H26.9635V31.8926ZM72.5115 34.5472V36.0841H73.7689H75.0264V38.7388V41.3934H76.5633H78.1002V38.599V35.8047H76.8427H75.5853V34.4075V33.0103H74.0484H72.5115V34.5472ZM21.6542 34.5472V35.8047H20.3968H19.1393V34.5472V33.2898H20.3968H21.6542V34.5472ZM67.2022 37.2019V41.114H65.9448H64.6873V39.7168V38.3196H63.4298H62.1724V37.2019V36.0841H63.4298H64.6873V34.6869V33.2898H65.9448H67.2022V37.2019ZM18.8599 37.2019V38.3196H17.7421H16.6244V37.2019V36.0841H17.7421H18.8599V37.2019ZM59.0986 37.3416V38.599H60.356H61.6135V39.8565V41.114H59.0986H56.5837V39.7168V38.3196H55.3262H54.0687V37.2019V36.0841H56.5837H59.0986V37.3416ZM64.4079 42.5111V43.6289H63.2901H62.1724V42.5111V41.3934H63.2901H64.4079V42.5111ZM59.0986 45.1658V46.4232H57.8411H56.5837V45.1658V43.9083H57.8411H59.0986V45.1658ZM42.8913 49.2176V51.7325H41.7736H40.6558V50.3353V48.9381H39.2587H37.8615V47.8204V46.7027H40.3764H42.8913V49.2176ZM21.6542 50.6148V51.7325H20.3968H19.1393V50.6148V49.497H20.3968H21.6542V50.6148ZM29.4784 50.6148V51.7325H28.3607H27.2429V50.6148V49.497H28.3607H29.4784V50.6148ZM18.8599 53.2694V54.5269H17.7421H16.6244V53.2694V52.0119H17.7421H18.8599V53.2694ZM24.1691 53.2694V54.5269H23.0514H21.9337V53.2694V52.0119H23.0514H24.1691V53.2694ZM37.5821 53.2694V54.5269H36.4643H35.3466V53.2694V52.0119H36.4643H37.5821V53.2694ZM72.5115 55.924V59.8361H71.254H69.9966V55.924V52.0119H71.254H72.5115V55.924ZM26.9635 55.924V57.0418H25.706H24.4486V55.924V54.8063H25.706H26.9635V55.924ZM32.2728 56.0638V57.3212H34.9274H37.5821V58.5787V59.8361H32.4125H27.2429V58.5787V57.3212H28.6401H30.0373V56.0638V54.8063H31.155H32.2728V56.0638ZM42.8913 55.924V57.0418H40.3764H37.8615V55.924V54.8063H40.3764H42.8913V55.924ZM64.4079 61.2333V65.1454H60.4958H56.5837V61.2333V57.3212H60.4958H64.4079V61.2333ZM0.137695 69.3369V78.8377H9.6385H19.1393V69.3369V59.8361H9.6385H0.137695V69.3369ZM59.0986 61.3876V62.9393L60.5656 62.8546L62.0327 62.7702L62.117 61.3032L62.2017 59.8361H60.65H59.0986V61.3876ZM75.0264 61.2333V62.3511H73.9087H72.7909V61.2333V60.1156H73.9087H75.0264V61.2333ZM16.0655 69.3369V75.764H9.6385H3.21149V69.3369V62.9099H9.6385H16.0655V69.3369ZM35.0671 66.6823V70.4547H33.67H32.2728V73.1093V75.764H29.7579H27.2429V74.5065V73.249H25.8458H24.4486V71.9916V70.7341H25.8458H27.2429V69.4767V68.2192H29.8976H32.5522V66.6823V65.1454H31.2948H30.0373V64.0277V62.9099H32.5522H35.0671V66.6823ZM40.3764 64.0277V65.1454H39.1189H37.8615V64.0277V62.9099H39.1189H40.3764V64.0277ZM72.5115 65.4248V67.9398H71.1143H69.7171V70.5944V73.249H68.5994H67.4816V69.3369V65.4248H68.7391H69.9966V64.1674V62.9099H71.254H72.5115V65.4248ZM5.44697 69.3369V73.5285H9.6385H13.83V69.3369V65.1454H9.6385H5.44697V69.3369ZM56.3042 69.3369V70.4547H55.1865H54.0687V69.3369V68.2192H55.1865H56.3042V69.3369ZM75.2128 75.9503C75.1102 76.0526 75.0264 76.7442 75.0264 77.4872V78.8377H76.5633H78.1002V77.3008V75.764H76.7497C76.0067 75.764 75.3151 75.8478 75.2128 75.9503Z" fill="black"/>
<path fill-rule="evenodd" clip-rule="evenodd" d="M0.137695 10.3761V19.8769H9.6385H19.1393V10.3761V0.875244H9.6385H0.137695V10.3761ZM24.1691 3.6696V6.46395H25.5663H26.9635V7.87566V9.28765L28.4305 9.20298L29.8976 9.11859L29.9781 6.53381L30.0582 3.94903H31.3054H32.5522V2.41214V0.875244H31.0153H29.4784V2.1327V3.39016H28.3607H27.2429V2.1327V0.875244H25.706H24.1691V3.6696ZM40.3764 3.6696V6.46395H41.6339H42.8913V7.72141V8.97887H40.3764H37.8615V6.18452V3.39016H36.4643H35.0671V8.83916V14.2881H33.8097H32.5522V12.891V11.4938H31.0153H29.4784V13.0307V14.5676H30.8756H32.2728V18.6194V22.6712H33.67H35.0671V23.789V24.9067H33.67H32.2728V26.4436V27.9805H33.8097H35.3466V26.5833V25.1861H36.4643H37.5821V26.5833V27.9805H39.1189H40.6558V25.3258V22.6712H41.7736H42.8913V23.9287V25.1861H44.2885H45.6857V26.4436V27.7011H44.2885H42.8913V28.9585V30.216H41.6339H40.3764V31.7529V33.2898H41.6339H42.8913V35.9444V38.599H44.2885H45.6857V39.9962V41.3934H46.9431H48.2006V42.5111V43.6289H44.4282H40.6558V42.3714V41.114H39.2587H37.8615V39.8565V38.599H39.2587H40.6558V37.2019V35.8047H39.1189H37.5821V37.0621V38.3196H36.3246H35.0671V42.3714V46.4232H33.8097H32.5522V43.7686V41.114H31.0153H29.4784V43.7686V46.4232H28.3607H27.2429V43.7686V41.114H24.4486H21.6542V42.5111V43.9083H22.9117H24.1691V45.3055V46.7027H25.5663H26.9635V47.8204V48.9381H24.4486H21.9337V47.6807V46.4232H20.5365H19.1393V45.0261V43.6289H17.8818H16.6244V42.5111V41.3934H17.8818H19.1393V39.9962V38.599H20.5365H21.9337V37.3416V36.0841H23.0514H24.1691V37.3416V38.599H27.1032H30.0373V30.4954V22.3918H28.6401H27.2429V21.1343V19.8769H28.6546H30.0666L29.982 18.4098L29.8976 16.9428L28.5703 16.8576L27.2429 16.7723V15.5302V14.2881H24.4486H21.6542V18.4797V22.6712H22.9117H24.1691V23.789V24.9067H22.9117H21.6542V27.5613V30.216H20.3968H19.1393V28.9585V27.7011H17.8818H16.6244V26.4436V25.1861H17.8818H19.1393V23.789V22.3918H17.6024H16.0655V23.6492V24.9067H13.4109H10.7562V26.3039V27.7011H9.6385H8.52076V25.0464V22.3918H5.58669H2.65261V25.1861V27.9805H5.44697H8.24132V29.3777V30.7748H9.6385H11.0357V29.3777V27.9805H13.5352H16.0348L16.12 29.3078L16.2052 30.6351L17.5326 30.7203L18.8599 30.8056V31.9079V33.0103H11.0357H3.21149V31.6131V30.216H1.67459H0.137695V34.4075V38.599H2.93205H5.72641V37.3416V36.0841H6.98386H8.24132V37.3416V38.599H12.1534H16.0655V39.8565V41.114H12.1534H8.24132V42.5111V43.9083H12.1534H16.0655V45.3055V46.7027H17.4627H18.8599V47.8204V48.9381H16.345H13.83V47.6807V46.4232H12.2931H10.7562V47.6807V48.9381H9.6385H8.52076V47.6807V46.4232H7.12358H5.72641V45.0261V43.6289H2.93205H0.137695V46.5629V49.497H1.67459H3.21149V48.0998V46.7027H4.32923H5.44697V49.2176V51.7325H2.79233H0.137695V53.2694V54.8063H2.79233H5.44697V56.0638V57.3212H6.98386H8.52076V54.6666V52.0119H11.0357H13.5506V53.2694V54.5269H12.1534H10.7562V55.924V57.3212H16.2052H21.6542V58.7184V60.1156H24.3089H26.9635V61.2333V62.3511H25.5663H24.1691V66.4029V70.4547H22.9117H21.6542V73.3888V76.3228H22.9117H24.1691V77.5803V78.8377H29.7579H35.3466V76.1831V73.5285H36.4643H37.5821V74.9256V76.3228H38.9792H40.3764V77.5803V78.8377H43.1708H45.9651V77.3008V75.764H43.3105H40.6558V74.6462V73.5285H41.9133H43.1708V71.9916V70.4547H41.9133H40.6558V67.9398V65.4248H41.9133H43.1708V62.7702V60.1156H45.9651H48.7595V58.5787V57.0418H47.3623H45.9651V51.8722V46.7027H47.0829H48.2006V48.0998V49.497H49.5978H50.995V50.5994V51.7018L49.6676 51.787L48.3403 51.8722L48.2559 53.3393L48.1713 54.8063H49.5832H50.995V56.0638V57.3212H52.3921H53.7893V59.8361V62.3511H52.3921H50.995V66.4029V70.4547H49.8848H48.7748L48.6972 66.4727L48.6198 62.4908L47.1527 62.4064L45.6857 62.3217V67.9252V73.5285H46.9278H48.1699L48.2551 74.8558L48.3403 76.1831L49.8074 76.2675L51.2744 76.3522V73.543V70.7341H52.5318H53.7893V74.7859V78.8377H56.5837H59.378V77.3008V75.764H57.9808H56.5837V74.6462V73.5285H57.9808H59.378V70.8738V68.2192H60.4958H61.6135V70.8738V73.5285H64.4079H67.2022V74.6361V75.7438L64.4777 75.8238L61.7532 75.9037L61.6688 77.3707L61.5842 78.8377H65.7905H69.9966V76.1831V73.5285H74.0484H78.1002V71.9916V70.4547H76.8427H75.5853V66.6823V62.9099H76.8427H78.1002V59.9758V57.0418H76.8427H75.5853V54.5269V52.0119H76.8427H78.1002V47.8204V43.6289H75.3058H72.5115V45.1658V46.7027H73.7689H75.0264V49.2176V51.7325H73.9087H72.7909V50.3353V48.9381H71.3937H69.9966V47.6807V46.4232H68.5994H67.2022V47.6807V48.9381H65.805H64.4079V50.475V52.0119H65.805H67.2022V53.2694V54.5269H64.6873H62.1724V53.1297V51.7325H58.1206H54.0687V50.3353V48.9381H52.6716H51.2744V46.4232V43.9083H52.5318H53.7893V45.3055V46.7027H55.0468H56.3042V48.1096V49.5166L59.1684 49.4369L62.0327 49.3573L62.1179 48.03L62.2031 46.7027H63.4452H64.6873V45.3055V43.9083H67.3419H69.9966V42.6508V41.3934H71.3937H72.7909V39.8565V38.3196H71.3937H69.9966V34.5472V30.7748H71.3937H72.7909V29.3777V27.9805H73.8933H74.9957L75.0809 29.3078L75.1661 30.6351L76.6332 30.7195L78.1002 30.8042V27.8553V24.9067H75.3058H72.5115V26.3039V27.7011H71.254H69.9966V25.0464V22.3918H68.5994H67.2022V25.1861V27.9805H68.4597H69.7171V29.0982V30.216H67.2022H64.6873V26.3039V22.3918H61.8929H59.0986V25.1861V27.9805H60.356H61.6135V29.0982V30.216H59.0986H56.5837V23.5095V16.8031H55.1865H53.7893V18.2002V19.5974H52.5318H51.2744V15.5456V11.4938H50.0169H48.7595V8.97887V6.46395H49.8772H50.995V7.86113V9.25831H53.7893H56.5837V5.06678V0.875244H53.7893H50.995V2.11733V3.35943L49.6676 3.44465L48.3403 3.52988L48.2551 4.8572L48.1699 6.18452H45.6703H43.1708V5.06678V3.94903H44.5679H45.9651V2.41214V0.875244H43.1708H40.3764V3.6696ZM59.0986 10.3761V19.8769H68.5994H78.1002V10.3761V0.875244H68.5994H59.0986V10.3761ZM16.0655 10.3761V16.8031H9.6385H3.21149V10.3761V3.94903H9.6385H16.0655V10.3761ZM53.7893 5.06678V6.18452H52.5318H51.2744V5.06678V3.94903H52.5318H53.7893V5.06678ZM75.0264 10.3761V16.8031H68.5994H62.1724V10.3761V3.94903H68.5994H75.0264V10.3761ZM5.44697 10.3761V14.5676H9.6385H13.83V10.3761V6.18452H9.6385H5.44697V10.3761ZM64.4079 10.3761V14.5676H68.5994H72.7909V10.3761V6.18452H68.5994H64.4079V10.3761ZM21.6542 10.3761V11.7732H23.0514H24.4486V10.3761V8.97887H23.0514H21.6542V10.3761ZM45.6857 10.3761V11.4938H44.4282H43.1708V10.3761V9.25831H44.4282H45.6857V10.3761ZM42.8913 15.6853V19.5974H41.7736H40.6558V15.6853V11.7732H41.7736H42.8913V15.6853ZM48.2006 13.0307V14.2881H47.0829H45.9651V13.0307V11.7732H47.0829H48.2006V13.0307ZM37.5821 17.0825V19.5974H36.4643H35.3466V17.0825V14.5676H36.4643H37.5821V17.0825ZM26.9635 18.4797V19.5974H25.706H24.4486V18.4797V17.3619H25.706H26.9635V18.4797ZM48.2006 18.4797V19.5974H47.0829H45.9651V18.4797V17.3619H47.0829H48.2006V18.4797ZM45.6857 21.1343V22.3918H44.4282H43.1708V21.1343V19.8769H44.4282H45.6857V21.1343ZM50.995 21.274V22.6712H52.3921H53.7893V26.4436V30.216H52.3921H50.995V31.7529V33.2898H52.3921H53.7893V34.5472V35.8047H50.995H48.2006V37.0621V38.3196H47.0829H45.9651V35.665V33.0103H44.5679H43.1708V31.8926V30.7748H44.5679H45.9651V29.3777V27.9805H47.3623H48.7595V23.9287V19.8769H49.8772H50.995V21.274ZM26.9635 31.8926V33.0103H25.706H24.4486V31.8926V30.7748H25.706H26.9635V31.8926ZM72.5115 34.5472V36.0841H73.7689H75.0264V38.7388V41.3934H76.5633H78.1002V38.599V35.8047H76.8427H75.5853V34.4075V33.0103H74.0484H72.5115V34.5472ZM21.6542 34.5472V35.8047H20.3968H19.1393V34.5472V33.2898H20.3968H21.6542V34.5472ZM67.2022 37.2019V41.114H65.9448H64.6873V39.7168V38.3196H63.4298H62.1724V37.2019V36.0841H63.4298H64.6873V34.6869V33.2898H65.9448H67.2022V37.2019ZM18.8599 37.2019V38.3196H17.7421H16.6244V37.2019V36.0841H17.7421H18.8599V37.2019ZM59.0986 37.3416V38.599H60.356H61.6135V39.8565V41.114H59.0986H56.5837V39.7168V38.3196H55.3262H54.0687V37.2019V36.0841H56.5837H59.0986V37.3416ZM64.4079 42.5111V43.6289H63.2901H62.1724V42.5111V41.3934H63.2901H64.4079V42.5111ZM59.0986 45.1658V46.4232H57.8411H56.5837V45.1658V43.9083H57.8411H59.0986V45.1658ZM42.8913 49.2176V51.7325H41.7736H40.6558V50.3353V48.9381H39.2587H37.8615V47.8204V46.7027H40.3764H42.8913V49.2176ZM21.6542 50.6148V51.7325H20.3968H19.1393V50.6148V49.497H20.3968H21.6542V50.6148ZM29.4784 50.6148V51.7325H28.3607H27.2429V50.6148V49.497H28.3607H29.4784V50.6148ZM18.8599 53.2694V54.5269H17.7421H16.6244V53.2694V52.0119H17.7421H18.8599V53.2694ZM24.1691 53.2694V54.5269H23.0514H21.9337V53.2694V52.0119H23.0514H24.1691V53.2694ZM37.5821 53.2694V54.5269H36.4643H35.3466V53.2694V52.0119H36.4643H37.5821V53.2694ZM72.5115 55.924V59.8361H71.254H69.9966V55.924V52.0119H71.254H72.5115V55.924ZM26.9635 55.924V57.0418H25.706H24.4486V55.924V54.8063H25.706H26.9635V55.924ZM32.2728 56.0638V57.3212H34.9274H37.5821V58.5787V59.8361H32.4125H27.2429V58.5787V57.3212H28.6401H30.0373V56.0638V54.8063H31.155H32.2728V56.0638ZM42.8913 55.924V57.0418H40.3764H37.8615V55.924V54.8063H40.3764H42.8913V55.924ZM64.4079 61.2333V65.1454H60.4958H56.5837V61.2333V57.3212H60.4958H64.4079V61.2333ZM0.137695 69.3369V78.8377H9.6385H19.1393V69.3369V59.8361H9.6385H0.137695V69.3369ZM59.0986 61.3876V62.9393L60.5656 62.8546L62.0327 62.7702L62.117 61.3032L62.2017 59.8361H60.65H59.0986V61.3876ZM75.0264 61.2333V62.3511H73.9087H72.7909V61.2333V60.1156H73.9087H75.0264V61.2333ZM16.0655 69.3369V75.764H9.6385H3.21149V69.3369V62.9099H9.6385H16.0655V69.3369ZM35.0671 66.6823V70.4547H33.67H32.2728V73.1093V75.764H29.7579H27.2429V74.5065V73.249H25.8458H24.4486V71.9916V70.7341H25.8458H27.2429V69.4767V68.2192H29.8976H32.5522V66.6823V65.1454H31.2948H30.0373V64.0277V62.9099H32.5522H35.0671V66.6823ZM40.3764 64.0277V65.1454H39.1189H37.8615V64.0277V62.9099H39.1189H40.3764V64.0277ZM72.5115 65.4248V67.9398H71.1143H69.7171V70.5944V73.249H68.5994H67.4816V69.3369V65.4248H68.7391H69.9966V64.1674V62.9099H71.254H72.5115V65.4248ZM5.44697 69.3369V73.5285H9.6385H13.83V69.3369V65.1454H9.6385H5.44697V69.3369ZM56.3042 69.3369V70.4547H55.1865H54.0687V69.3369V68.2192H55.1865H56.3042V69.3369ZM75.2128 75.9503C75.1102 76.0526 75.0264 76.7442 75.0264 77.4872V78.8377H76.5633H78.1002V77.3008V75.764H76.7497C76.0067 75.764 75.3151 75.8478 75.2128 75.9503Z" fill="black"/>
<path fill-rule="evenodd" clip-rule="evenodd" d="M0.137695 10.3761V19.8769H9.6385H19.1393V10.3761V0.875244H9.6385H0.137695V10.3761ZM24.1691 3.6696V6.46395H25.5663H26.9635V7.87566V9.28765L28.4305 9.20298L29.8976 9.11859L29.9781 6.53381L30.0582 3.94903H31.3054H32.5522V2.41214V0.875244H31.0153H29.4784V2.1327V3.39016H28.3607H27.2429V2.1327V0.875244H25.706H24.1691V3.6696ZM40.3764 3.6696V6.46395H41.6339H42.8913V7.72141V8.97887H40.3764H37.8615V6.18452V3.39016H36.4643H35.0671V8.83916V14.2881H33.8097H32.5522V12.891V11.4938H31.0153H29.4784V13.0307V14.5676H30.8756H32.2728V18.6194V22.6712H33.67H35.0671V23.789V24.9067H33.67H32.2728V26.4436V27.9805H33.8097H35.3466V26.5833V25.1861H36.4643H37.5821V26.5833V27.9805H39.1189H40.6558V25.3258V22.6712H41.7736H42.8913V23.9287V25.1861H44.2885H45.6857V26.4436V27.7011H44.2885H42.8913V28.9585V30.216H41.6339H40.3764V31.7529V33.2898H41.6339H42.8913V35.9444V38.599H44.2885H45.6857V39.9962V41.3934H46.9431H48.2006V42.5111V43.6289H44.4282H40.6558V42.3714V41.114H39.2587H37.8615V39.8565V38.599H39.2587H40.6558V37.2019V35.8047H39.1189H37.5821V37.0621V38.3196H36.3246H35.0671V42.3714V46.4232H33.8097H32.5522V43.7686V41.114H31.0153H29.4784V43.7686V46.4232H28.3607H27.2429V43.7686V41.114H24.4486H21.6542V42.5111V43.9083H22.9117H24.1691V45.3055V46.7027H25.5663H26.9635V47.8204V48.9381H24.4486H21.9337V47.6807V46.4232H20.5365H19.1393V45.0261V43.6289H17.8818H16.6244V42.5111V41.3934H17.8818H19.1393V39.9962V38.599H20.5365H21.9337V37.3416V36.0841H23.0514H24.1691V37.3416V38.599H27.1032H30.0373V30.4954V22.3918H28.6401H27.2429V21.1343V19.8769H28.6546H30.0666L29.982 18.4098L29.8976 16.9428L28.5703 16.8576L27.2429 16.7723V15.5302V14.2881H24.4486H21.6542V18.4797V22.6712H22.9117H24.1691V23.789V24.9067H22.9117H21.6542V27.5613V30.216H20.3968H19.1393V28.9585V27.7011H17.8818H16.6244V26.4436V25.1861H17.8818H19.1393V23.789V22.3918H17.6024H16.0655V23.6492V24.9067H13.4109H10.7562V26.3039V27.7011H9.6385H8.52076V25.0464V22.3918H5.58669H2.65261V25.1861V27.9805H5.44697H8.24132V29.3777V30.7748H9.6385H11.0357V29.3777V27.9805H13.5352H16.0348L16.12 29.3078L16.2052 30.6351L17.5326 30.7203L18.8599 30.8056V31.9079V33.0103H11.0357H3.21149V31.6131V30.216H1.67459H0.137695V34.4075V38.599H2.93205H5.72641V37.3416V36.0841H6.98386H8.24132V37.3416V38.599H12.1534H16.0655V39.8565V41.114H12.1534H8.24132V42.5111V43.9083H12.1534H16.0655V45.3055V46.7027H17.4627H18.8599V47.8204V48.9381H16.345H13.83V47.6807V46.4232H12.2931H10.7562V47.6807V48.9381H9.6385H8.52076V47.6807V46.4232H7.12358H5.72641V45.0261V43.6289H2.93205H0.137695V46.5629V49.497H1.67459H3.21149V48.0998V46.7027H4.32923H5.44697V49.2176V51.7325H2.79233H0.137695V53.2694V54.8063H2.79233H5.44697V56.0638V57.3212H6.98386H8.52076V54.6666V52.0119H11.0357H13.5506V53.2694V54.5269H12.1534H10.7562V55.924V57.3212H16.2052H21.6542V58.7184V60.1156H24.3089H26.9635V61.2333V62.3511H25.5663H24.1691V66.4029V70.4547H22.9117H21.6542V73.3888V76.3228H22.9117H24.1691V77.5803V78.8377H29.7579H35.3466V76.1831V73.5285H36.4643H37.5821V74.9256V76.3228H38.9792H40.3764V77.5803V78.8377H43.1708H45.9651V77.3008V75.764H43.3105H40.6558V74.6462V73.5285H41.9133H43.1708V71.9916V70.4547H41.9133H40.6558V67.9398V65.4248H41.9133H43.1708V62.7702V60.1156H45.9651H48.7595V58.5787V57.0418H47.3623H45.9651V51.8722V46.7027H47.0829H48.2006V48.0998V49.497H49.5978H50.995V50.5994V51.7018L49.6676 51.787L48.3403 51.8722L48.2559 53.3393L48.1713 54.8063H49.5832H50.995V56.0638V57.3212H52.3921H53.7893V59.8361V62.3511H52.3921H50.995V66.4029V70.4547H49.8848H48.7748L48.6972 66.4727L48.6198 62.4908L47.1527 62.4064L45.6857 62.3217V67.9252V73.5285H46.9278H48.1699L48.2551 74.8558L48.3403 76.1831L49.8074 76.2675L51.2744 76.3522V73.543V70.7341H52.5318H53.7893V74.7859V78.8377H56.5837H59.378V77.3008V75.764H57.9808H56.5837V74.6462V73.5285H57.9808H59.378V70.8738V68.2192H60.4958H61.6135V70.8738V73.5285H64.4079H67.2022V74.6361V75.7438L64.4777 75.8238L61.7532 75.9037L61.6688 77.3707L61.5842 78.8377H65.7905H69.9966V76.1831V73.5285H74.0484H78.1002V71.9916V70.4547H76.8427H75.5853V66.6823V62.9099H76.8427H78.1002V59.9758V57.0418H76.8427H75.5853V54.5269V52.0119H76.8427H78.1002V47.8204V43.6289H75.3058H72.5115V45.1658V46.7027H73.7689H75.0264V49.2176V51.7325H73.9087H72.7909V50.3353V48.9381H71.3937H69.9966V47.6807V46.4232H68.5994H67.2022V47.6807V48.9381H65.805H64.4079V50.475V52.0119H65.805H67.2022V53.2694V54.5269H64.6873H62.1724V53.1297V51.7325H58.1206H54.0687V50.3353V48.9381H52.6716H51.2744V46.4232V43.9083H52.5318H53.7893V45.3055V46.7027H55.0468H56.3042V48.1096V49.5166L59.1684 49.4369L62.0327 49.3573L62.1179 48.03L62.2031 46.7027H63.4452H64.6873V45.3055V43.9083H67.3419H69.9966V42.6508V41.3934H71.3937H72.7909V39.8565V38.3196H71.3937H69.9966V34.5472V30.7748H71.3937H72.7909V29.3777V27.9805H73.8933H74.9957L75.0809 29.3078L75.1661 30.6351L76.6332 30.7195L78.1002 30.8042V27.8553V24.9067H75.3058H72.5115V26.3039V27.7011H71.254H69.9966V25.0464V22.3918H68.5994H67.2022V25.1861V27.9805H68.4597H69.7171V29.0982V30.216H67.2022H64.6873V26.3039V22.3918H61.8929H59.0986V25.1861V27.9805H60.356H61.6135V29.0982V30.216H59.0986H56.5837V23.5095V16.8031H55.1865H53.7893V18.2002V19.5974H52.5318H51.2744V15.5456V11.4938H50.0169H48.7595V8.97887V6.46395H49.8772H50.995V7.86113V9.25831H53.7893H56.5837V5.06678V0.875244H53.7893H50.995V2.11733V3.35943L49.6676 3.44465L48.3403 3.52988L48.2551 4.8572L48.1699 6.18452H45.6703H43.1708V5.06678V3.94903H44.5679H45.9651V2.41214V0.875244H43.1708H40.3764V3.6696ZM59.0986 10.3761V19.8769H68.5994H78.1002V10.3761V0.875244H68.5994H59.0986V10.3761ZM16.0655 10.3761V16.8031H9.6385H3.21149V10.3761V3.94903H9.6385H16.0655V10.3761ZM53.7893 5.06678V6.18452H52.5318H51.2744V5.06678V3.94903H52.5318H53.7893V5.06678ZM75.0264 10.3761V16.8031H68.5994H62.1724V10.3761V3.94903H68.5994H75.0264V10.3761ZM5.44697 10.3761V14.5676H9.6385H13.83V10.3761V6.18452H9.6385H5.44697V10.3761ZM64.4079 10.3761V14.5676H68.5994H72.7909V10.3761V6.18452H68.5994H64.4079V10.3761ZM21.6542 10.3761V11.7732H23.0514H24.4486V10.3761V8.97887H23.0514H21.6542V10.3761ZM45.6857 10.3761V11.4938H44.4282H43.1708V10.3761V9.25831H44.4282H45.6857V10.3761ZM42.8913 15.6853V19.5974H41.7736H40.6558V15.6853V11.7732H41.7736H42.8913V15.6853ZM48.2006 13.0307V14.2881H47.0829H45.9651V13.0307V11.7732H47.0829H48.2006V13.0307ZM37.5821 17.0825V19.5974H36.4643H35.3466V17.0825V14.5676H36.4643H37.5821V17.0825ZM26.9635 18.4797V19.5974H25.706H24.4486V18.4797V17.3619H25.706H26.9635V18.4797ZM48.2006 18.4797V19.5974H47.0829H45.9651V18.4797V17.3619H47.0829H48.2006V18.4797ZM45.6857 21.1343V22.3918H44.4282H43.1708V21.1343V19.8769H44.4282H45.6857V21.1343ZM50.995 21.274V22.6712H52.3921H53.7893V26.4436V30.216H52.3921H50.995V31.7529V33.2898H52.3921H53.7893V34.5472V35.8047H50.995H48.2006V37.0621V38.3196H47.0829H45.9651V35.665V33.0103H44.5679H43.1708V31.8926V30.7748H44.5679H45.9651V29.3777V27.9805H47.3623H48.7595V23.9287V19.8769H49.8772H50.995V21.274ZM26.9635 31.8926V33.0103H25.706H24.4486V31.8926V30.7748H25.706H26.9635V31.8926ZM72.5115 34.5472V36.0841H73.7689H75.0264V38.7388V41.3934H76.5633H78.1002V38.599V35.8047H76.8427H75.5853V34.4075V33.0103H74.0484H72.5115V34.5472ZM21.6542 34.5472V35.8047H20.3968H19.1393V34.5472V33.2898H20.3968H21.6542V34.5472ZM67.2022 37.2019V41.114H65.9448H64.6873V39.7168V38.3196H63.4298H62.1724V37.2019V36.0841H63.4298H64.6873V34.6869V33.2898H65.9448H67.2022V37.2019ZM18.8599 37.2019V38.3196H17.7421H16.6244V37.2019V36.0841H17.7421H18.8599V37.2019ZM59.0986 37.3416V38.599H60.356H61.6135V39.8565V41.114H59.0986H56.5837V39.7168V38.3196H55.3262H54.0687V37.2019V36.0841H56.5837H59.0986V37.3416ZM64.4079 42.5111V43.6289H63.2901H62.1724V42.5111V41.3934H63.2901H64.4079V42.5111ZM59.0986 45.1658V46.4232H57.8411H56.5837V45.1658V43.9083H57.8411H59.0986V45.1658ZM42.8913 49.2176V51.7325H41.7736H40.6558V50.3353V48.9381H39.2587H37.8615V47.8204V46.7027H40.3764H42.8913V49.2176ZM21.6542 50.6148V51.7325H20.3968H19.1393V50.6148V49.497H20.3968H21.6542V50.6148ZM29.4784 50.6148V51.7325H28.3607H27.2429V50.6148V49.497H28.3607H29.4784V50.6148ZM18.8599 53.2694V54.5269H17.7421H16.6244V53.2694V52.0119H17.7421H18.8599V53.2694ZM24.1691 53.2694V54.5269H23.0514H21.9337V53.2694V52.0119H23.0514H24.1691V53.2694ZM37.5821 53.2694V54.5269H36.4643H35.3466V53.2694V52.0119H36.4643H37.5821V53.2694ZM72.5115 55.924V59.8361H71.254H69.9966V55.924V52.0119H71.254H72.5115V55.924ZM26.9635 55.924V57.0418H25.706H24.4486V55.924V54.8063H25.706H26.9635V55.924ZM32.2728 56.0638V57.3212H34.9274H37.5821V58.5787V59.8361H32.4125H27.2429V58.5787V57.3212H28.6401H30.0373V56.0638V54.8063H31.155H32.2728V56.0638ZM42.8913 55.924V57.0418H40.3764H37.8615V55.924V54.8063H40.3764H42.8913V55.924ZM64.4079 61.2333V65.1454H60.4958H56.5837V61.2333V57.3212H60.4958H64.4079V61.2333ZM0.137695 69.3369V78.8377H9.6385H19.1393V69.3369V59.8361H9.6385H0.137695V69.3369ZM59.0986 61.3876V62.9393L60.5656 62.8546L62.0327 62.7702L62.117 61.3032L62.2017 59.8361H60.65H59.0986V61.3876ZM75.0264 61.2333V62.3511H73.9087H72.7909V61.2333V60.1156H73.9087H75.0264V61.2333ZM16.0655 69.3369V75.764H9.6385H3.21149V69.3369V62.9099H9.6385H16.0655V69.3369ZM35.0671 66.6823V70.4547H33.67H32.2728V73.1093V75.764H29.7579H27.2429V74.5065V73.249H25.8458H24.4486V71.9916V70.7341H25.8458H27.2429V69.4767V68.2192H29.8976H32.5522V66.6823V65.1454H31.2948H30.0373V64.0277V62.9099H32.5522H35.0671V66.6823ZM40.3764 64.0277V65.1454H39.1189H37.8615V64.0277V62.9099H39.1189H40.3764V64.0277ZM72.5115 65.4248V67.9398H71.1143H69.7171V70.5944V73.249H68.5994H67.4816V69.3369V65.4248H68.7391H69.9966V64.1674V62.9099H71.254H72.5115V65.4248ZM5.44697 69.3369V73.5285H9.6385H13.83V69.3369V65.1454H9.6385H5.44697V69.3369ZM56.3042 69.3369V70.4547H55.1865H54.0687V69.3369V68.2192H55.1865H56.3042V69.3369ZM75.2128 75.9503C75.1102 76.0526 75.0264 76.7442 75.0264 77.4872V78.8377H76.5633H78.1002V77.3008V75.764H76.7497C76.0067 75.764 75.3151 75.8478 75.2128 75.9503Z" fill="black"/>
</svg>
