<svg width="285" height="138" viewBox="0 0 285 138" fill="none" xmlns="http://www.w3.org/2000/svg">
<path fill-rule="evenodd" clip-rule="evenodd" d="M11.1932 1.67193C7.89421 4.66593 5.81622 8.71393 5.81622 12.1509C5.81622 15.9929 8.73122 24.4349 11.8862 29.7279C13.0972 31.7599 14.8842 34.8229 15.8582 36.5349C19.4142 42.7889 20.3312 44.3409 21.0802 45.3709C32.3592 60.8869 34.8162 64.3849 34.8162 64.9219C34.8162 65.2759 31.8502 68.6829 28.2252 72.4929C19.3242 81.8509 9.99421 93.9219 5.01421 102.523C1.80621 108.063 0.768214 111.029 0.291214 116.023C-0.314786 122.364 -0.285785 122.461 3.49821 126.719C8.17021 131.977 15.5362 134.435 21.3112 132.662C24.8562 131.574 26.1352 128.67 23.5662 127.538C22.8792 127.235 24.0212 127.251 26.1062 127.573C28.6842 127.972 30.4432 127.696 31.6062 126.71C32.5462 125.913 35.4012 124.071 37.9492 122.618C40.4972 121.164 42.8452 119.288 43.1672 118.449C43.4902 117.609 44.2802 116.922 44.9232 116.922C45.5672 116.922 49.0682 114.529 52.7052 111.604C56.3412 108.678 60.6302 105.291 62.2372 104.075L65.1572 101.866L76.7372 113.251C95.2312 131.437 105.401 137.952 115.193 137.889C123.989 137.832 131.641 130.613 131.768 122.254C131.836 117.792 130.912 115.922 128.642 115.922C127.106 115.922 126.805 116.409 127.254 118.172C127.788 120.271 127.744 120.259 126.591 117.999C125.614 116.083 125.613 115.49 126.586 115.165C127.262 114.94 127.816 114.124 127.816 113.353C127.816 111.155 121.688 100.177 115.736 91.7139C112.755 87.4749 108.516 81.0729 106.316 77.4859C104.116 73.8999 101.978 70.9559 101.566 70.9439C100.01 70.8989 100.923 68.9809 104.066 65.6939C105.853 63.8239 110.466 58.3449 114.316 53.5179C118.166 48.6919 122.748 43.2759 124.498 41.4819C127.658 38.2429 128.714 35.0449 132.836 16.2229C134.378 9.17993 132.897 6.17993 126.316 3.02393L121.316 0.62593L114.816 2.88093C109.449 4.74293 94.5972 13.5119 90.1892 17.4219C89.5682 17.9719 88.0542 19.0969 86.8242 19.9219C85.5942 20.7469 81.4702 24.0099 77.6602 27.1719C73.8512 30.3349 70.4742 32.9219 70.1562 32.9219C69.8382 32.9219 64.6782 28.1009 58.6902 22.2079C52.7022 16.3149 47.0182 11.0659 46.0592 10.5429C45.1002 10.0209 44.0522 9.19693 43.7302 8.71393C42.9362 7.52293 29.1772 2.92193 26.4112 2.92193C25.1942 2.92193 23.3252 2.26093 22.2572 1.45393C19.5722 -0.577067 13.5412 -0.458068 11.1932 1.67193ZM201.991 4.31893C180.114 9.86593 161.167 28.1419 154.194 50.4219C151.377 59.4229 151.532 80.0539 154.484 88.9219C163.423 115.775 185.444 133.472 212.438 135.497C239.123 137.498 262.328 125.636 275.518 103.251C282.743 90.9909 284.179 85.3959 284.206 69.4219C284.227 56.6039 283.991 54.7479 281.418 47.4339C274.652 28.2079 260.26 13.8029 239.816 5.79493C232.814 3.05293 210.431 2.17893 201.991 4.31893ZM122.316 5.92193C121.216 6.39493 119.191 6.76793 117.816 6.75193L115.316 6.72293L117.816 5.92193C119.191 5.48193 121.216 5.10793 122.316 5.09193L124.316 5.06293L122.316 5.92193ZM10.7862 11.1719C10.7612 14.6529 10.5632 15.0919 9.69521 13.5999C8.72521 11.9309 9.20521 6.92193 10.3352 6.92193C10.6002 6.92193 10.8022 8.83493 10.7862 11.1719ZM24.0782 24.2369C24.5572 30.5329 24.4902 30.8469 23.1972 28.3549C21.3952 24.8809 20.3782 18.5029 21.2622 16.2099C22.3812 13.3049 23.4872 16.4559 24.0782 24.2369ZM118.316 17.9219C117.976 18.4719 116.712 18.9269 115.507 18.9329C114.302 18.9389 111.107 19.6139 108.407 20.4329C101.454 22.5419 100.607 22.2109 105.816 19.4219C110.334 17.0029 119.569 15.8939 118.316 17.9219ZM42.2902 31.4869C49.7292 38.9479 55.7882 45.3599 55.7532 45.7369C55.6572 46.7809 43.0852 57.3819 41.5592 57.7059C40.8222 57.8629 39.4692 56.5129 38.5532 54.7059C37.6362 52.8999 35.2872 48.6139 33.3332 45.1809C31.3792 41.7489 29.4902 36.8209 29.1352 34.2309C28.7802 31.6399 27.9312 28.4449 27.2492 27.1299C26.3962 25.4849 26.2912 23.7539 26.9122 21.5869C27.4092 19.8529 27.8162 18.3199 27.8162 18.1789C27.8162 17.1799 30.3262 19.4889 42.2902 31.4869ZM230.688 22.9539C241.041 25.8229 250.559 32.2739 256.099 40.1749C261.841 48.3659 263.51 52.1809 265.506 61.6729C267.11 69.3059 267.095 69.8389 265.02 78.7359C261.72 92.8859 255.523 101.788 243.499 109.649C238.094 113.183 234.852 114.48 227.845 115.916C219.885 117.547 218.223 117.59 211.08 116.351C201.757 114.733 196.673 112.617 189.347 107.309C183.112 102.79 177.536 95.5079 173.991 87.2539C170.947 80.1669 169.919 66.5949 171.778 58.0359C175.269 41.9699 188.99 27.7149 205.492 23.0099C214.4 20.4699 221.666 20.4539 230.688 22.9539ZM115.816 23.5119C115.816 23.8359 114.733 25.2989 113.409 26.7619C112.086 28.2249 108.097 32.7969 104.545 36.9219C100.993 41.0469 96.0162 46.6709 93.4842 49.4189C88.2672 55.0839 89.3982 55.4389 80.9992 45.4979L75.9952 39.5749L79.8972 36.7479C82.0432 35.1939 84.2532 33.9219 84.8072 33.9219C85.3622 33.9219 85.8162 33.4719 85.8162 32.9219C85.8162 32.3719 86.4302 31.9219 87.1812 31.9219C87.9322 31.9219 89.6952 31.0179 91.1002 29.9129C92.5052 28.8079 95.1532 27.6079 96.9852 27.2449C98.8172 26.8819 102.116 25.7709 104.316 24.7759C108.081 23.0719 115.816 22.2219 115.816 23.5119ZM69.0992 58.4639C72.6972 62.0619 76.1202 65.5839 76.7062 66.2889C77.5042 67.2509 76.7122 68.6889 73.5432 72.0309C71.2182 74.4839 67.8432 78.1619 66.0422 80.2059C64.2412 82.2499 62.4412 83.8849 62.0422 83.8399C61.6432 83.7949 58.6162 80.6419 55.3162 76.8329C52.0162 73.0239 48.7602 69.2749 48.0802 68.5009C47.0652 67.3449 48.1082 65.7419 53.9292 59.5079C57.8262 55.3359 61.3612 51.9219 61.7852 51.9219C62.2102 51.9219 65.5012 54.8659 69.0992 58.4639ZM50.7982 84.5649C53.0082 87.3939 54.8162 90.1329 54.8162 90.6519C54.8162 91.7559 48.0542 98.1209 42.3162 102.418C28.1782 113.004 21.6682 115.858 18.9972 112.64C17.7852 111.18 21.2902 104.96 34.2162 85.6229L42.1042 73.8239L44.4422 76.6229C45.7272 78.1619 48.5882 81.7359 50.7982 84.5649ZM94.9492 86.1719C104.639 98.3439 111.816 110.817 111.816 115.484C111.816 119.534 110.228 120.543 106.736 118.708C104.202 117.377 81.8072 100.763 78.3792 97.6719C77.3122 96.7089 76.0742 95.9219 75.6272 95.9219C75.1812 95.9219 74.8162 95.3719 74.8162 94.6999C74.8162 93.1799 87.8632 81.0049 89.5432 80.9569C90.2172 80.9379 92.6502 83.2839 94.9492 86.1719Z" fill="url(#paint0_linear_1_122)"/>
<path fill-rule="evenodd" clip-rule="evenodd" d="M11.1932 1.67193C7.89421 4.66593 5.81622 8.71393 5.81622 12.1509C5.81622 15.9929 8.73122 24.4349 11.8862 29.7279C13.0972 31.7599 14.8842 34.8229 15.8582 36.5349C19.4142 42.7889 20.3312 44.3409 21.0802 45.3709C32.3592 60.8869 34.8162 64.3849 34.8162 64.9219C34.8162 65.2759 31.8502 68.6829 28.2252 72.4929C19.3242 81.8509 9.99421 93.9219 5.01421 102.523C1.80621 108.063 0.768214 111.029 0.291214 116.023C-0.314786 122.364 -0.285785 122.461 3.49821 126.719C8.17021 131.977 15.5362 134.435 21.3112 132.662C24.8562 131.574 26.1352 128.67 23.5662 127.538C22.8792 127.235 24.0212 127.251 26.1062 127.573C28.6842 127.972 30.4432 127.696 31.6062 126.71C32.5462 125.913 35.4012 124.071 37.9492 122.618C40.4972 121.164 42.8452 119.288 43.1672 118.449C43.4902 117.609 44.2802 116.922 44.9232 116.922C45.5672 116.922 49.0682 114.529 52.7052 111.604C56.3412 108.678 60.6302 105.291 62.2372 104.075L65.1572 101.866L76.7372 113.251C95.2312 131.437 105.401 137.952 115.193 137.889C123.989 137.832 131.641 130.613 131.768 122.254C131.836 117.792 130.912 115.922 128.642 115.922C127.106 115.922 126.805 116.409 127.254 118.172C127.788 120.271 127.744 120.259 126.591 117.999C125.614 116.083 125.613 115.49 126.586 115.165C127.262 114.94 127.816 114.124 127.816 113.353C127.816 111.155 121.688 100.177 115.736 91.7139C112.755 87.4749 108.516 81.0729 106.316 77.4859C104.116 73.8999 101.978 70.9559 101.566 70.9439C100.01 70.8989 100.923 68.9809 104.066 65.6939C105.853 63.8239 110.466 58.3449 114.316 53.5179C118.166 48.6919 122.748 43.2759 124.498 41.4819C127.658 38.2429 128.714 35.0449 132.836 16.2229C134.378 9.17993 132.897 6.17993 126.316 3.02393L121.316 0.62593L114.816 2.88093C109.449 4.74293 94.5972 13.5119 90.1892 17.4219C89.5682 17.9719 88.0542 19.0969 86.8242 19.9219C85.5942 20.7469 81.4702 24.0099 77.6602 27.1719C73.8512 30.3349 70.4742 32.9219 70.1562 32.9219C69.8382 32.9219 64.6782 28.1009 58.6902 22.2079C52.7022 16.3149 47.0182 11.0659 46.0592 10.5429C45.1002 10.0209 44.0522 9.19693 43.7302 8.71393C42.9362 7.52293 29.1772 2.92193 26.4112 2.92193C25.1942 2.92193 23.3252 2.26093 22.2572 1.45393C19.5722 -0.577067 13.5412 -0.458068 11.1932 1.67193ZM201.991 4.31893C180.114 9.86593 161.167 28.1419 154.194 50.4219C151.377 59.4229 151.532 80.0539 154.484 88.9219C163.423 115.775 185.444 133.472 212.438 135.497C239.123 137.498 262.328 125.636 275.518 103.251C282.743 90.9909 284.179 85.3959 284.206 69.4219C284.227 56.6039 283.991 54.7479 281.418 47.4339C274.652 28.2079 260.26 13.8029 239.816 5.79493C232.814 3.05293 210.431 2.17893 201.991 4.31893ZM122.316 5.92193C121.216 6.39493 119.191 6.76793 117.816 6.75193L115.316 6.72293L117.816 5.92193C119.191 5.48193 121.216 5.10793 122.316 5.09193L124.316 5.06293L122.316 5.92193ZM10.7862 11.1719C10.7612 14.6529 10.5632 15.0919 9.69521 13.5999C8.72521 11.9309 9.20521 6.92193 10.3352 6.92193C10.6002 6.92193 10.8022 8.83493 10.7862 11.1719ZM24.0782 24.2369C24.5572 30.5329 24.4902 30.8469 23.1972 28.3549C21.3952 24.8809 20.3782 18.5029 21.2622 16.2099C22.3812 13.3049 23.4872 16.4559 24.0782 24.2369ZM118.316 17.9219C117.976 18.4719 116.712 18.9269 115.507 18.9329C114.302 18.9389 111.107 19.6139 108.407 20.4329C101.454 22.5419 100.607 22.2109 105.816 19.4219C110.334 17.0029 119.569 15.8939 118.316 17.9219ZM42.2902 31.4869C49.7292 38.9479 55.7882 45.3599 55.7532 45.7369C55.6572 46.7809 43.0852 57.3819 41.5592 57.7059C40.8222 57.8629 39.4692 56.5129 38.5532 54.7059C37.6362 52.8999 35.2872 48.6139 33.3332 45.1809C31.3792 41.7489 29.4902 36.8209 29.1352 34.2309C28.7802 31.6399 27.9312 28.4449 27.2492 27.1299C26.3962 25.4849 26.2912 23.7539 26.9122 21.5869C27.4092 19.8529 27.8162 18.3199 27.8162 18.1789C27.8162 17.1799 30.3262 19.4889 42.2902 31.4869ZM230.688 22.9539C241.041 25.8229 250.559 32.2739 256.099 40.1749C261.841 48.3659 263.51 52.1809 265.506 61.6729C267.11 69.3059 267.095 69.8389 265.02 78.7359C261.72 92.8859 255.523 101.788 243.499 109.649C238.094 113.183 234.852 114.48 227.845 115.916C219.885 117.547 218.223 117.59 211.08 116.351C201.757 114.733 196.673 112.617 189.347 107.309C183.112 102.79 177.536 95.5079 173.991 87.2539C170.947 80.1669 169.919 66.5949 171.778 58.0359C175.269 41.9699 188.99 27.7149 205.492 23.0099C214.4 20.4699 221.666 20.4539 230.688 22.9539ZM115.816 23.5119C115.816 23.8359 114.733 25.2989 113.409 26.7619C112.086 28.2249 108.097 32.7969 104.545 36.9219C100.993 41.0469 96.0162 46.6709 93.4842 49.4189C88.2672 55.0839 89.3982 55.4389 80.9992 45.4979L75.9952 39.5749L79.8972 36.7479C82.0432 35.1939 84.2532 33.9219 84.8072 33.9219C85.3622 33.9219 85.8162 33.4719 85.8162 32.9219C85.8162 32.3719 86.4302 31.9219 87.1812 31.9219C87.9322 31.9219 89.6952 31.0179 91.1002 29.9129C92.5052 28.8079 95.1532 27.6079 96.9852 27.2449C98.8172 26.8819 102.116 25.7709 104.316 24.7759C108.081 23.0719 115.816 22.2219 115.816 23.5119ZM69.0992 58.4639C72.6972 62.0619 76.1202 65.5839 76.7062 66.2889C77.5042 67.2509 76.7122 68.6889 73.5432 72.0309C71.2182 74.4839 67.8432 78.1619 66.0422 80.2059C64.2412 82.2499 62.4412 83.8849 62.0422 83.8399C61.6432 83.7949 58.6162 80.6419 55.3162 76.8329C52.0162 73.0239 48.7602 69.2749 48.0802 68.5009C47.0652 67.3449 48.1082 65.7419 53.9292 59.5079C57.8262 55.3359 61.3612 51.9219 61.7852 51.9219C62.2102 51.9219 65.5012 54.8659 69.0992 58.4639ZM50.7982 84.5649C53.0082 87.3939 54.8162 90.1329 54.8162 90.6519C54.8162 91.7559 48.0542 98.1209 42.3162 102.418C28.1782 113.004 21.6682 115.858 18.9972 112.64C17.7852 111.18 21.2902 104.96 34.2162 85.6229L42.1042 73.8239L44.4422 76.6229C45.7272 78.1619 48.5882 81.7359 50.7982 84.5649ZM94.9492 86.1719C104.639 98.3439 111.816 110.817 111.816 115.484C111.816 119.534 110.228 120.543 106.736 118.708C104.202 117.377 81.8072 100.763 78.3792 97.6719C77.3122 96.7089 76.0742 95.9219 75.6272 95.9219C75.1812 95.9219 74.8162 95.3719 74.8162 94.6999C74.8162 93.1799 87.8632 81.0049 89.5432 80.9569C90.2172 80.9379 92.6502 83.2839 94.9492 86.1719Z" fill="url(#paint1_linear_1_122)"/>
<path fill-rule="evenodd" clip-rule="evenodd" d="M11.1932 1.67193C7.89421 4.66593 5.81622 8.71393 5.81622 12.1509C5.81622 15.9929 8.73122 24.4349 11.8862 29.7279C13.0972 31.7599 14.8842 34.8229 15.8582 36.5349C19.4142 42.7889 20.3312 44.3409 21.0802 45.3709C32.3592 60.8869 34.8162 64.3849 34.8162 64.9219C34.8162 65.2759 31.8502 68.6829 28.2252 72.4929C19.3242 81.8509 9.99421 93.9219 5.01421 102.523C1.80621 108.063 0.768214 111.029 0.291214 116.023C-0.314786 122.364 -0.285785 122.461 3.49821 126.719C8.17021 131.977 15.5362 134.435 21.3112 132.662C24.8562 131.574 26.1352 128.67 23.5662 127.538C22.8792 127.235 24.0212 127.251 26.1062 127.573C28.6842 127.972 30.4432 127.696 31.6062 126.71C32.5462 125.913 35.4012 124.071 37.9492 122.618C40.4972 121.164 42.8452 119.288 43.1672 118.449C43.4902 117.609 44.2802 116.922 44.9232 116.922C45.5672 116.922 49.0682 114.529 52.7052 111.604C56.3412 108.678 60.6302 105.291 62.2372 104.075L65.1572 101.866L76.7372 113.251C95.2312 131.437 105.401 137.952 115.193 137.889C123.989 137.832 131.641 130.613 131.768 122.254C131.836 117.792 130.912 115.922 128.642 115.922C127.106 115.922 126.805 116.409 127.254 118.172C127.788 120.271 127.744 120.259 126.591 117.999C125.614 116.083 125.613 115.49 126.586 115.165C127.262 114.94 127.816 114.124 127.816 113.353C127.816 111.155 121.688 100.177 115.736 91.7139C112.755 87.4749 108.516 81.0729 106.316 77.4859C104.116 73.8999 101.978 70.9559 101.566 70.9439C100.01 70.8989 100.923 68.9809 104.066 65.6939C105.853 63.8239 110.466 58.3449 114.316 53.5179C118.166 48.6919 122.748 43.2759 124.498 41.4819C127.658 38.2429 128.714 35.0449 132.836 16.2229C134.378 9.17993 132.897 6.17993 126.316 3.02393L121.316 0.62593L114.816 2.88093C109.449 4.74293 94.5972 13.5119 90.1892 17.4219C89.5682 17.9719 88.0542 19.0969 86.8242 19.9219C85.5942 20.7469 81.4702 24.0099 77.6602 27.1719C73.8512 30.3349 70.4742 32.9219 70.1562 32.9219C69.8382 32.9219 64.6782 28.1009 58.6902 22.2079C52.7022 16.3149 47.0182 11.0659 46.0592 10.5429C45.1002 10.0209 44.0522 9.19693 43.7302 8.71393C42.9362 7.52293 29.1772 2.92193 26.4112 2.92193C25.1942 2.92193 23.3252 2.26093 22.2572 1.45393C19.5722 -0.577067 13.5412 -0.458068 11.1932 1.67193ZM201.991 4.31893C180.114 9.86593 161.167 28.1419 154.194 50.4219C151.377 59.4229 151.532 80.0539 154.484 88.9219C163.423 115.775 185.444 133.472 212.438 135.497C239.123 137.498 262.328 125.636 275.518 103.251C282.743 90.9909 284.179 85.3959 284.206 69.4219C284.227 56.6039 283.991 54.7479 281.418 47.4339C274.652 28.2079 260.26 13.8029 239.816 5.79493C232.814 3.05293 210.431 2.17893 201.991 4.31893ZM122.316 5.92193C121.216 6.39493 119.191 6.76793 117.816 6.75193L115.316 6.72293L117.816 5.92193C119.191 5.48193 121.216 5.10793 122.316 5.09193L124.316 5.06293L122.316 5.92193ZM10.7862 11.1719C10.7612 14.6529 10.5632 15.0919 9.69521 13.5999C8.72521 11.9309 9.20521 6.92193 10.3352 6.92193C10.6002 6.92193 10.8022 8.83493 10.7862 11.1719ZM24.0782 24.2369C24.5572 30.5329 24.4902 30.8469 23.1972 28.3549C21.3952 24.8809 20.3782 18.5029 21.2622 16.2099C22.3812 13.3049 23.4872 16.4559 24.0782 24.2369ZM118.316 17.9219C117.976 18.4719 116.712 18.9269 115.507 18.9329C114.302 18.9389 111.107 19.6139 108.407 20.4329C101.454 22.5419 100.607 22.2109 105.816 19.4219C110.334 17.0029 119.569 15.8939 118.316 17.9219ZM42.2902 31.4869C49.7292 38.9479 55.7882 45.3599 55.7532 45.7369C55.6572 46.7809 43.0852 57.3819 41.5592 57.7059C40.8222 57.8629 39.4692 56.5129 38.5532 54.7059C37.6362 52.8999 35.2872 48.6139 33.3332 45.1809C31.3792 41.7489 29.4902 36.8209 29.1352 34.2309C28.7802 31.6399 27.9312 28.4449 27.2492 27.1299C26.3962 25.4849 26.2912 23.7539 26.9122 21.5869C27.4092 19.8529 27.8162 18.3199 27.8162 18.1789C27.8162 17.1799 30.3262 19.4889 42.2902 31.4869ZM230.688 22.9539C241.041 25.8229 250.559 32.2739 256.099 40.1749C261.841 48.3659 263.51 52.1809 265.506 61.6729C267.11 69.3059 267.095 69.8389 265.02 78.7359C261.72 92.8859 255.523 101.788 243.499 109.649C238.094 113.183 234.852 114.48 227.845 115.916C219.885 117.547 218.223 117.59 211.08 116.351C201.757 114.733 196.673 112.617 189.347 107.309C183.112 102.79 177.536 95.5079 173.991 87.2539C170.947 80.1669 169.919 66.5949 171.778 58.0359C175.269 41.9699 188.99 27.7149 205.492 23.0099C214.4 20.4699 221.666 20.4539 230.688 22.9539ZM115.816 23.5119C115.816 23.8359 114.733 25.2989 113.409 26.7619C112.086 28.2249 108.097 32.7969 104.545 36.9219C100.993 41.0469 96.0162 46.6709 93.4842 49.4189C88.2672 55.0839 89.3982 55.4389 80.9992 45.4979L75.9952 39.5749L79.8972 36.7479C82.0432 35.1939 84.2532 33.9219 84.8072 33.9219C85.3622 33.9219 85.8162 33.4719 85.8162 32.9219C85.8162 32.3719 86.4302 31.9219 87.1812 31.9219C87.9322 31.9219 89.6952 31.0179 91.1002 29.9129C92.5052 28.8079 95.1532 27.6079 96.9852 27.2449C98.8172 26.8819 102.116 25.7709 104.316 24.7759C108.081 23.0719 115.816 22.2219 115.816 23.5119ZM69.0992 58.4639C72.6972 62.0619 76.1202 65.5839 76.7062 66.2889C77.5042 67.2509 76.7122 68.6889 73.5432 72.0309C71.2182 74.4839 67.8432 78.1619 66.0422 80.2059C64.2412 82.2499 62.4412 83.8849 62.0422 83.8399C61.6432 83.7949 58.6162 80.6419 55.3162 76.8329C52.0162 73.0239 48.7602 69.2749 48.0802 68.5009C47.0652 67.3449 48.1082 65.7419 53.9292 59.5079C57.8262 55.3359 61.3612 51.9219 61.7852 51.9219C62.2102 51.9219 65.5012 54.8659 69.0992 58.4639ZM50.7982 84.5649C53.0082 87.3939 54.8162 90.1329 54.8162 90.6519C54.8162 91.7559 48.0542 98.1209 42.3162 102.418C28.1782 113.004 21.6682 115.858 18.9972 112.64C17.7852 111.18 21.2902 104.96 34.2162 85.6229L42.1042 73.8239L44.4422 76.6229C45.7272 78.1619 48.5882 81.7359 50.7982 84.5649ZM94.9492 86.1719C104.639 98.3439 111.816 110.817 111.816 115.484C111.816 119.534 110.228 120.543 106.736 118.708C104.202 117.377 81.8072 100.763 78.3792 97.6719C77.3122 96.7089 76.0742 95.9219 75.6272 95.9219C75.1812 95.9219 74.8162 95.3719 74.8162 94.6999C74.8162 93.1799 87.8632 81.0049 89.5432 80.9569C90.2172 80.9379 92.6502 83.2839 94.9492 86.1719Z" fill="url(#paint2_linear_1_122)"/>
<path fill-rule="evenodd" clip-rule="evenodd" d="M11.1932 1.67193C7.89421 4.66593 5.81622 8.71393 5.81622 12.1509C5.81622 15.9929 8.73122 24.4349 11.8862 29.7279C13.0972 31.7599 14.8842 34.8229 15.8582 36.5349C19.4142 42.7889 20.3312 44.3409 21.0802 45.3709C32.3592 60.8869 34.8162 64.3849 34.8162 64.9219C34.8162 65.2759 31.8502 68.6829 28.2252 72.4929C19.3242 81.8509 9.99421 93.9219 5.01421 102.523C1.80621 108.063 0.768214 111.029 0.291214 116.023C-0.314786 122.364 -0.285785 122.461 3.49821 126.719C8.17021 131.977 15.5362 134.435 21.3112 132.662C24.8562 131.574 26.1352 128.67 23.5662 127.538C22.8792 127.235 24.0212 127.251 26.1062 127.573C28.6842 127.972 30.4432 127.696 31.6062 126.71C32.5462 125.913 35.4012 124.071 37.9492 122.618C40.4972 121.164 42.8452 119.288 43.1672 118.449C43.4902 117.609 44.2802 116.922 44.9232 116.922C45.5672 116.922 49.0682 114.529 52.7052 111.604C56.3412 108.678 60.6302 105.291 62.2372 104.075L65.1572 101.866L76.7372 113.251C95.2312 131.437 105.401 137.952 115.193 137.889C123.989 137.832 131.641 130.613 131.768 122.254C131.836 117.792 130.912 115.922 128.642 115.922C127.106 115.922 126.805 116.409 127.254 118.172C127.788 120.271 127.744 120.259 126.591 117.999C125.614 116.083 125.613 115.49 126.586 115.165C127.262 114.94 127.816 114.124 127.816 113.353C127.816 111.155 121.688 100.177 115.736 91.7139C112.755 87.4749 108.516 81.0729 106.316 77.4859C104.116 73.8999 101.978 70.9559 101.566 70.9439C100.01 70.8989 100.923 68.9809 104.066 65.6939C105.853 63.8239 110.466 58.3449 114.316 53.5179C118.166 48.6919 122.748 43.2759 124.498 41.4819C127.658 38.2429 128.714 35.0449 132.836 16.2229C134.378 9.17993 132.897 6.17993 126.316 3.02393L121.316 0.62593L114.816 2.88093C109.449 4.74293 94.5972 13.5119 90.1892 17.4219C89.5682 17.9719 88.0542 19.0969 86.8242 19.9219C85.5942 20.7469 81.4702 24.0099 77.6602 27.1719C73.8512 30.3349 70.4742 32.9219 70.1562 32.9219C69.8382 32.9219 64.6782 28.1009 58.6902 22.2079C52.7022 16.3149 47.0182 11.0659 46.0592 10.5429C45.1002 10.0209 44.0522 9.19693 43.7302 8.71393C42.9362 7.52293 29.1772 2.92193 26.4112 2.92193C25.1942 2.92193 23.3252 2.26093 22.2572 1.45393C19.5722 -0.577067 13.5412 -0.458068 11.1932 1.67193ZM201.991 4.31893C180.114 9.86593 161.167 28.1419 154.194 50.4219C151.377 59.4229 151.532 80.0539 154.484 88.9219C163.423 115.775 185.444 133.472 212.438 135.497C239.123 137.498 262.328 125.636 275.518 103.251C282.743 90.9909 284.179 85.3959 284.206 69.4219C284.227 56.6039 283.991 54.7479 281.418 47.4339C274.652 28.2079 260.26 13.8029 239.816 5.79493C232.814 3.05293 210.431 2.17893 201.991 4.31893ZM122.316 5.92193C121.216 6.39493 119.191 6.76793 117.816 6.75193L115.316 6.72293L117.816 5.92193C119.191 5.48193 121.216 5.10793 122.316 5.09193L124.316 5.06293L122.316 5.92193ZM10.7862 11.1719C10.7612 14.6529 10.5632 15.0919 9.69521 13.5999C8.72521 11.9309 9.20521 6.92193 10.3352 6.92193C10.6002 6.92193 10.8022 8.83493 10.7862 11.1719ZM24.0782 24.2369C24.5572 30.5329 24.4902 30.8469 23.1972 28.3549C21.3952 24.8809 20.3782 18.5029 21.2622 16.2099C22.3812 13.3049 23.4872 16.4559 24.0782 24.2369ZM118.316 17.9219C117.976 18.4719 116.712 18.9269 115.507 18.9329C114.302 18.9389 111.107 19.6139 108.407 20.4329C101.454 22.5419 100.607 22.2109 105.816 19.4219C110.334 17.0029 119.569 15.8939 118.316 17.9219ZM42.2902 31.4869C49.7292 38.9479 55.7882 45.3599 55.7532 45.7369C55.6572 46.7809 43.0852 57.3819 41.5592 57.7059C40.8222 57.8629 39.4692 56.5129 38.5532 54.7059C37.6362 52.8999 35.2872 48.6139 33.3332 45.1809C31.3792 41.7489 29.4902 36.8209 29.1352 34.2309C28.7802 31.6399 27.9312 28.4449 27.2492 27.1299C26.3962 25.4849 26.2912 23.7539 26.9122 21.5869C27.4092 19.8529 27.8162 18.3199 27.8162 18.1789C27.8162 17.1799 30.3262 19.4889 42.2902 31.4869ZM230.688 22.9539C241.041 25.8229 250.559 32.2739 256.099 40.1749C261.841 48.3659 263.51 52.1809 265.506 61.6729C267.11 69.3059 267.095 69.8389 265.02 78.7359C261.72 92.8859 255.523 101.788 243.499 109.649C238.094 113.183 234.852 114.48 227.845 115.916C219.885 117.547 218.223 117.59 211.08 116.351C201.757 114.733 196.673 112.617 189.347 107.309C183.112 102.79 177.536 95.5079 173.991 87.2539C170.947 80.1669 169.919 66.5949 171.778 58.0359C175.269 41.9699 188.99 27.7149 205.492 23.0099C214.4 20.4699 221.666 20.4539 230.688 22.9539ZM115.816 23.5119C115.816 23.8359 114.733 25.2989 113.409 26.7619C112.086 28.2249 108.097 32.7969 104.545 36.9219C100.993 41.0469 96.0162 46.6709 93.4842 49.4189C88.2672 55.0839 89.3982 55.4389 80.9992 45.4979L75.9952 39.5749L79.8972 36.7479C82.0432 35.1939 84.2532 33.9219 84.8072 33.9219C85.3622 33.9219 85.8162 33.4719 85.8162 32.9219C85.8162 32.3719 86.4302 31.9219 87.1812 31.9219C87.9322 31.9219 89.6952 31.0179 91.1002 29.9129C92.5052 28.8079 95.1532 27.6079 96.9852 27.2449C98.8172 26.8819 102.116 25.7709 104.316 24.7759C108.081 23.0719 115.816 22.2219 115.816 23.5119ZM69.0992 58.4639C72.6972 62.0619 76.1202 65.5839 76.7062 66.2889C77.5042 67.2509 76.7122 68.6889 73.5432 72.0309C71.2182 74.4839 67.8432 78.1619 66.0422 80.2059C64.2412 82.2499 62.4412 83.8849 62.0422 83.8399C61.6432 83.7949 58.6162 80.6419 55.3162 76.8329C52.0162 73.0239 48.7602 69.2749 48.0802 68.5009C47.0652 67.3449 48.1082 65.7419 53.9292 59.5079C57.8262 55.3359 61.3612 51.9219 61.7852 51.9219C62.2102 51.9219 65.5012 54.8659 69.0992 58.4639ZM50.7982 84.5649C53.0082 87.3939 54.8162 90.1329 54.8162 90.6519C54.8162 91.7559 48.0542 98.1209 42.3162 102.418C28.1782 113.004 21.6682 115.858 18.9972 112.64C17.7852 111.18 21.2902 104.96 34.2162 85.6229L42.1042 73.8239L44.4422 76.6229C45.7272 78.1619 48.5882 81.7359 50.7982 84.5649ZM94.9492 86.1719C104.639 98.3439 111.816 110.817 111.816 115.484C111.816 119.534 110.228 120.543 106.736 118.708C104.202 117.377 81.8072 100.763 78.3792 97.6719C77.3122 96.7089 76.0742 95.9219 75.6272 95.9219C75.1812 95.9219 74.8162 95.3719 74.8162 94.6999C74.8162 93.1799 87.8632 81.0049 89.5432 80.9569C90.2172 80.9379 92.6502 83.2839 94.9492 86.1719Z" fill="url(#paint3_linear_1_122)"/>
<path fill-rule="evenodd" clip-rule="evenodd" d="M11.1932 1.67193C7.89421 4.66593 5.81622 8.71393 5.81622 12.1509C5.81622 15.9929 8.73122 24.4349 11.8862 29.7279C13.0972 31.7599 14.8842 34.8229 15.8582 36.5349C19.4142 42.7889 20.3312 44.3409 21.0802 45.3709C32.3592 60.8869 34.8162 64.3849 34.8162 64.9219C34.8162 65.2759 31.8502 68.6829 28.2252 72.4929C19.3242 81.8509 9.99421 93.9219 5.01421 102.523C1.80621 108.063 0.768214 111.029 0.291214 116.023C-0.314786 122.364 -0.285785 122.461 3.49821 126.719C8.17021 131.977 15.5362 134.435 21.3112 132.662C24.8562 131.574 26.1352 128.67 23.5662 127.538C22.8792 127.235 24.0212 127.251 26.1062 127.573C28.6842 127.972 30.4432 127.696 31.6062 126.71C32.5462 125.913 35.4012 124.071 37.9492 122.618C40.4972 121.164 42.8452 119.288 43.1672 118.449C43.4902 117.609 44.2802 116.922 44.9232 116.922C45.5672 116.922 49.0682 114.529 52.7052 111.604C56.3412 108.678 60.6302 105.291 62.2372 104.075L65.1572 101.866L76.7372 113.251C95.2312 131.437 105.401 137.952 115.193 137.889C123.989 137.832 131.641 130.613 131.768 122.254C131.836 117.792 130.912 115.922 128.642 115.922C127.106 115.922 126.805 116.409 127.254 118.172C127.788 120.271 127.744 120.259 126.591 117.999C125.614 116.083 125.613 115.49 126.586 115.165C127.262 114.94 127.816 114.124 127.816 113.353C127.816 111.155 121.688 100.177 115.736 91.7139C112.755 87.4749 108.516 81.0729 106.316 77.4859C104.116 73.8999 101.978 70.9559 101.566 70.9439C100.01 70.8989 100.923 68.9809 104.066 65.6939C105.853 63.8239 110.466 58.3449 114.316 53.5179C118.166 48.6919 122.748 43.2759 124.498 41.4819C127.658 38.2429 128.714 35.0449 132.836 16.2229C134.378 9.17993 132.897 6.17993 126.316 3.02393L121.316 0.62593L114.816 2.88093C109.449 4.74293 94.5972 13.5119 90.1892 17.4219C89.5682 17.9719 88.0542 19.0969 86.8242 19.9219C85.5942 20.7469 81.4702 24.0099 77.6602 27.1719C73.8512 30.3349 70.4742 32.9219 70.1562 32.9219C69.8382 32.9219 64.6782 28.1009 58.6902 22.2079C52.7022 16.3149 47.0182 11.0659 46.0592 10.5429C45.1002 10.0209 44.0522 9.19693 43.7302 8.71393C42.9362 7.52293 29.1772 2.92193 26.4112 2.92193C25.1942 2.92193 23.3252 2.26093 22.2572 1.45393C19.5722 -0.577067 13.5412 -0.458068 11.1932 1.67193ZM201.991 4.31893C180.114 9.86593 161.167 28.1419 154.194 50.4219C151.377 59.4229 151.532 80.0539 154.484 88.9219C163.423 115.775 185.444 133.472 212.438 135.497C239.123 137.498 262.328 125.636 275.518 103.251C282.743 90.9909 284.179 85.3959 284.206 69.4219C284.227 56.6039 283.991 54.7479 281.418 47.4339C274.652 28.2079 260.26 13.8029 239.816 5.79493C232.814 3.05293 210.431 2.17893 201.991 4.31893ZM122.316 5.92193C121.216 6.39493 119.191 6.76793 117.816 6.75193L115.316 6.72293L117.816 5.92193C119.191 5.48193 121.216 5.10793 122.316 5.09193L124.316 5.06293L122.316 5.92193ZM10.7862 11.1719C10.7612 14.6529 10.5632 15.0919 9.69521 13.5999C8.72521 11.9309 9.20521 6.92193 10.3352 6.92193C10.6002 6.92193 10.8022 8.83493 10.7862 11.1719ZM24.0782 24.2369C24.5572 30.5329 24.4902 30.8469 23.1972 28.3549C21.3952 24.8809 20.3782 18.5029 21.2622 16.2099C22.3812 13.3049 23.4872 16.4559 24.0782 24.2369ZM118.316 17.9219C117.976 18.4719 116.712 18.9269 115.507 18.9329C114.302 18.9389 111.107 19.6139 108.407 20.4329C101.454 22.5419 100.607 22.2109 105.816 19.4219C110.334 17.0029 119.569 15.8939 118.316 17.9219ZM42.2902 31.4869C49.7292 38.9479 55.7882 45.3599 55.7532 45.7369C55.6572 46.7809 43.0852 57.3819 41.5592 57.7059C40.8222 57.8629 39.4692 56.5129 38.5532 54.7059C37.6362 52.8999 35.2872 48.6139 33.3332 45.1809C31.3792 41.7489 29.4902 36.8209 29.1352 34.2309C28.7802 31.6399 27.9312 28.4449 27.2492 27.1299C26.3962 25.4849 26.2912 23.7539 26.9122 21.5869C27.4092 19.8529 27.8162 18.3199 27.8162 18.1789C27.8162 17.1799 30.3262 19.4889 42.2902 31.4869ZM230.688 22.9539C241.041 25.8229 250.559 32.2739 256.099 40.1749C261.841 48.3659 263.51 52.1809 265.506 61.6729C267.11 69.3059 267.095 69.8389 265.02 78.7359C261.72 92.8859 255.523 101.788 243.499 109.649C238.094 113.183 234.852 114.48 227.845 115.916C219.885 117.547 218.223 117.59 211.08 116.351C201.757 114.733 196.673 112.617 189.347 107.309C183.112 102.79 177.536 95.5079 173.991 87.2539C170.947 80.1669 169.919 66.5949 171.778 58.0359C175.269 41.9699 188.99 27.7149 205.492 23.0099C214.4 20.4699 221.666 20.4539 230.688 22.9539ZM115.816 23.5119C115.816 23.8359 114.733 25.2989 113.409 26.7619C112.086 28.2249 108.097 32.7969 104.545 36.9219C100.993 41.0469 96.0162 46.6709 93.4842 49.4189C88.2672 55.0839 89.3982 55.4389 80.9992 45.4979L75.9952 39.5749L79.8972 36.7479C82.0432 35.1939 84.2532 33.9219 84.8072 33.9219C85.3622 33.9219 85.8162 33.4719 85.8162 32.9219C85.8162 32.3719 86.4302 31.9219 87.1812 31.9219C87.9322 31.9219 89.6952 31.0179 91.1002 29.9129C92.5052 28.8079 95.1532 27.6079 96.9852 27.2449C98.8172 26.8819 102.116 25.7709 104.316 24.7759C108.081 23.0719 115.816 22.2219 115.816 23.5119ZM69.0992 58.4639C72.6972 62.0619 76.1202 65.5839 76.7062 66.2889C77.5042 67.2509 76.7122 68.6889 73.5432 72.0309C71.2182 74.4839 67.8432 78.1619 66.0422 80.2059C64.2412 82.2499 62.4412 83.8849 62.0422 83.8399C61.6432 83.7949 58.6162 80.6419 55.3162 76.8329C52.0162 73.0239 48.7602 69.2749 48.0802 68.5009C47.0652 67.3449 48.1082 65.7419 53.9292 59.5079C57.8262 55.3359 61.3612 51.9219 61.7852 51.9219C62.2102 51.9219 65.5012 54.8659 69.0992 58.4639ZM50.7982 84.5649C53.0082 87.3939 54.8162 90.1329 54.8162 90.6519C54.8162 91.7559 48.0542 98.1209 42.3162 102.418C28.1782 113.004 21.6682 115.858 18.9972 112.64C17.7852 111.18 21.2902 104.96 34.2162 85.6229L42.1042 73.8239L44.4422 76.6229C45.7272 78.1619 48.5882 81.7359 50.7982 84.5649ZM94.9492 86.1719C104.639 98.3439 111.816 110.817 111.816 115.484C111.816 119.534 110.228 120.543 106.736 118.708C104.202 117.377 81.8072 100.763 78.3792 97.6719C77.3122 96.7089 76.0742 95.9219 75.6272 95.9219C75.1812 95.9219 74.8162 95.3719 74.8162 94.6999C74.8162 93.1799 87.8632 81.0049 89.5432 80.9569C90.2172 80.9379 92.6502 83.2839 94.9492 86.1719Z" fill="url(#paint4_linear_1_122)"/>
<path fill-rule="evenodd" clip-rule="evenodd" d="M11.1932 1.67193C7.89421 4.66593 5.81622 8.71393 5.81622 12.1509C5.81622 15.9929 8.73122 24.4349 11.8862 29.7279C13.0972 31.7599 14.8842 34.8229 15.8582 36.5349C19.4142 42.7889 20.3312 44.3409 21.0802 45.3709C32.3592 60.8869 34.8162 64.3849 34.8162 64.9219C34.8162 65.2759 31.8502 68.6829 28.2252 72.4929C19.3242 81.8509 9.99421 93.9219 5.01421 102.523C1.80621 108.063 0.768214 111.029 0.291214 116.023C-0.314786 122.364 -0.285785 122.461 3.49821 126.719C8.17021 131.977 15.5362 134.435 21.3112 132.662C24.8562 131.574 26.1352 128.67 23.5662 127.538C22.8792 127.235 24.0212 127.251 26.1062 127.573C28.6842 127.972 30.4432 127.696 31.6062 126.71C32.5462 125.913 35.4012 124.071 37.9492 122.618C40.4972 121.164 42.8452 119.288 43.1672 118.449C43.4902 117.609 44.2802 116.922 44.9232 116.922C45.5672 116.922 49.0682 114.529 52.7052 111.604C56.3412 108.678 60.6302 105.291 62.2372 104.075L65.1572 101.866L76.7372 113.251C95.2312 131.437 105.401 137.952 115.193 137.889C123.989 137.832 131.641 130.613 131.768 122.254C131.836 117.792 130.912 115.922 128.642 115.922C127.106 115.922 126.805 116.409 127.254 118.172C127.788 120.271 127.744 120.259 126.591 117.999C125.614 116.083 125.613 115.49 126.586 115.165C127.262 114.94 127.816 114.124 127.816 113.353C127.816 111.155 121.688 100.177 115.736 91.7139C112.755 87.4749 108.516 81.0729 106.316 77.4859C104.116 73.8999 101.978 70.9559 101.566 70.9439C100.01 70.8989 100.923 68.9809 104.066 65.6939C105.853 63.8239 110.466 58.3449 114.316 53.5179C118.166 48.6919 122.748 43.2759 124.498 41.4819C127.658 38.2429 128.714 35.0449 132.836 16.2229C134.378 9.17993 132.897 6.17993 126.316 3.02393L121.316 0.62593L114.816 2.88093C109.449 4.74293 94.5972 13.5119 90.1892 17.4219C89.5682 17.9719 88.0542 19.0969 86.8242 19.9219C85.5942 20.7469 81.4702 24.0099 77.6602 27.1719C73.8512 30.3349 70.4742 32.9219 70.1562 32.9219C69.8382 32.9219 64.6782 28.1009 58.6902 22.2079C52.7022 16.3149 47.0182 11.0659 46.0592 10.5429C45.1002 10.0209 44.0522 9.19693 43.7302 8.71393C42.9362 7.52293 29.1772 2.92193 26.4112 2.92193C25.1942 2.92193 23.3252 2.26093 22.2572 1.45393C19.5722 -0.577067 13.5412 -0.458068 11.1932 1.67193ZM201.991 4.31893C180.114 9.86593 161.167 28.1419 154.194 50.4219C151.377 59.4229 151.532 80.0539 154.484 88.9219C163.423 115.775 185.444 133.472 212.438 135.497C239.123 137.498 262.328 125.636 275.518 103.251C282.743 90.9909 284.179 85.3959 284.206 69.4219C284.227 56.6039 283.991 54.7479 281.418 47.4339C274.652 28.2079 260.26 13.8029 239.816 5.79493C232.814 3.05293 210.431 2.17893 201.991 4.31893ZM122.316 5.92193C121.216 6.39493 119.191 6.76793 117.816 6.75193L115.316 6.72293L117.816 5.92193C119.191 5.48193 121.216 5.10793 122.316 5.09193L124.316 5.06293L122.316 5.92193ZM10.7862 11.1719C10.7612 14.6529 10.5632 15.0919 9.69521 13.5999C8.72521 11.9309 9.20521 6.92193 10.3352 6.92193C10.6002 6.92193 10.8022 8.83493 10.7862 11.1719ZM24.0782 24.2369C24.5572 30.5329 24.4902 30.8469 23.1972 28.3549C21.3952 24.8809 20.3782 18.5029 21.2622 16.2099C22.3812 13.3049 23.4872 16.4559 24.0782 24.2369ZM118.316 17.9219C117.976 18.4719 116.712 18.9269 115.507 18.9329C114.302 18.9389 111.107 19.6139 108.407 20.4329C101.454 22.5419 100.607 22.2109 105.816 19.4219C110.334 17.0029 119.569 15.8939 118.316 17.9219ZM42.2902 31.4869C49.7292 38.9479 55.7882 45.3599 55.7532 45.7369C55.6572 46.7809 43.0852 57.3819 41.5592 57.7059C40.8222 57.8629 39.4692 56.5129 38.5532 54.7059C37.6362 52.8999 35.2872 48.6139 33.3332 45.1809C31.3792 41.7489 29.4902 36.8209 29.1352 34.2309C28.7802 31.6399 27.9312 28.4449 27.2492 27.1299C26.3962 25.4849 26.2912 23.7539 26.9122 21.5869C27.4092 19.8529 27.8162 18.3199 27.8162 18.1789C27.8162 17.1799 30.3262 19.4889 42.2902 31.4869ZM230.688 22.9539C241.041 25.8229 250.559 32.2739 256.099 40.1749C261.841 48.3659 263.51 52.1809 265.506 61.6729C267.11 69.3059 267.095 69.8389 265.02 78.7359C261.72 92.8859 255.523 101.788 243.499 109.649C238.094 113.183 234.852 114.48 227.845 115.916C219.885 117.547 218.223 117.59 211.08 116.351C201.757 114.733 196.673 112.617 189.347 107.309C183.112 102.79 177.536 95.5079 173.991 87.2539C170.947 80.1669 169.919 66.5949 171.778 58.0359C175.269 41.9699 188.99 27.7149 205.492 23.0099C214.4 20.4699 221.666 20.4539 230.688 22.9539ZM115.816 23.5119C115.816 23.8359 114.733 25.2989 113.409 26.7619C112.086 28.2249 108.097 32.7969 104.545 36.9219C100.993 41.0469 96.0162 46.6709 93.4842 49.4189C88.2672 55.0839 89.3982 55.4389 80.9992 45.4979L75.9952 39.5749L79.8972 36.7479C82.0432 35.1939 84.2532 33.9219 84.8072 33.9219C85.3622 33.9219 85.8162 33.4719 85.8162 32.9219C85.8162 32.3719 86.4302 31.9219 87.1812 31.9219C87.9322 31.9219 89.6952 31.0179 91.1002 29.9129C92.5052 28.8079 95.1532 27.6079 96.9852 27.2449C98.8172 26.8819 102.116 25.7709 104.316 24.7759C108.081 23.0719 115.816 22.2219 115.816 23.5119ZM69.0992 58.4639C72.6972 62.0619 76.1202 65.5839 76.7062 66.2889C77.5042 67.2509 76.7122 68.6889 73.5432 72.0309C71.2182 74.4839 67.8432 78.1619 66.0422 80.2059C64.2412 82.2499 62.4412 83.8849 62.0422 83.8399C61.6432 83.7949 58.6162 80.6419 55.3162 76.8329C52.0162 73.0239 48.7602 69.2749 48.0802 68.5009C47.0652 67.3449 48.1082 65.7419 53.9292 59.5079C57.8262 55.3359 61.3612 51.9219 61.7852 51.9219C62.2102 51.9219 65.5012 54.8659 69.0992 58.4639ZM50.7982 84.5649C53.0082 87.3939 54.8162 90.1329 54.8162 90.6519C54.8162 91.7559 48.0542 98.1209 42.3162 102.418C28.1782 113.004 21.6682 115.858 18.9972 112.64C17.7852 111.18 21.2902 104.96 34.2162 85.6229L42.1042 73.8239L44.4422 76.6229C45.7272 78.1619 48.5882 81.7359 50.7982 84.5649ZM94.9492 86.1719C104.639 98.3439 111.816 110.817 111.816 115.484C111.816 119.534 110.228 120.543 106.736 118.708C104.202 117.377 81.8072 100.763 78.3792 97.6719C77.3122 96.7089 76.0742 95.9219 75.6272 95.9219C75.1812 95.9219 74.8162 95.3719 74.8162 94.6999C74.8162 93.1799 87.8632 81.0049 89.5432 80.9569C90.2172 80.9379 92.6502 83.2839 94.9492 86.1719Z" fill="url(#paint5_linear_1_122)"/>
<path fill-rule="evenodd" clip-rule="evenodd" d="M11.1932 1.67193C7.89421 4.66593 5.81622 8.71393 5.81622 12.1509C5.81622 15.9929 8.73122 24.4349 11.8862 29.7279C13.0972 31.7599 14.8842 34.8229 15.8582 36.5349C19.4142 42.7889 20.3312 44.3409 21.0802 45.3709C32.3592 60.8869 34.8162 64.3849 34.8162 64.9219C34.8162 65.2759 31.8502 68.6829 28.2252 72.4929C19.3242 81.8509 9.99421 93.9219 5.01421 102.523C1.80621 108.063 0.768214 111.029 0.291214 116.023C-0.314786 122.364 -0.285785 122.461 3.49821 126.719C8.17021 131.977 15.5362 134.435 21.3112 132.662C24.8562 131.574 26.1352 128.67 23.5662 127.538C22.8792 127.235 24.0212 127.251 26.1062 127.573C28.6842 127.972 30.4432 127.696 31.6062 126.71C32.5462 125.913 35.4012 124.071 37.9492 122.618C40.4972 121.164 42.8452 119.288 43.1672 118.449C43.4902 117.609 44.2802 116.922 44.9232 116.922C45.5672 116.922 49.0682 114.529 52.7052 111.604C56.3412 108.678 60.6302 105.291 62.2372 104.075L65.1572 101.866L76.7372 113.251C95.2312 131.437 105.401 137.952 115.193 137.889C123.989 137.832 131.641 130.613 131.768 122.254C131.836 117.792 130.912 115.922 128.642 115.922C127.106 115.922 126.805 116.409 127.254 118.172C127.788 120.271 127.744 120.259 126.591 117.999C125.614 116.083 125.613 115.49 126.586 115.165C127.262 114.94 127.816 114.124 127.816 113.353C127.816 111.155 121.688 100.177 115.736 91.7139C112.755 87.4749 108.516 81.0729 106.316 77.4859C104.116 73.8999 101.978 70.9559 101.566 70.9439C100.01 70.8989 100.923 68.9809 104.066 65.6939C105.853 63.8239 110.466 58.3449 114.316 53.5179C118.166 48.6919 122.748 43.2759 124.498 41.4819C127.658 38.2429 128.714 35.0449 132.836 16.2229C134.378 9.17993 132.897 6.17993 126.316 3.02393L121.316 0.62593L114.816 2.88093C109.449 4.74293 94.5972 13.5119 90.1892 17.4219C89.5682 17.9719 88.0542 19.0969 86.8242 19.9219C85.5942 20.7469 81.4702 24.0099 77.6602 27.1719C73.8512 30.3349 70.4742 32.9219 70.1562 32.9219C69.8382 32.9219 64.6782 28.1009 58.6902 22.2079C52.7022 16.3149 47.0182 11.0659 46.0592 10.5429C45.1002 10.0209 44.0522 9.19693 43.7302 8.71393C42.9362 7.52293 29.1772 2.92193 26.4112 2.92193C25.1942 2.92193 23.3252 2.26093 22.2572 1.45393C19.5722 -0.577067 13.5412 -0.458068 11.1932 1.67193ZM201.991 4.31893C180.114 9.86593 161.167 28.1419 154.194 50.4219C151.377 59.4229 151.532 80.0539 154.484 88.9219C163.423 115.775 185.444 133.472 212.438 135.497C239.123 137.498 262.328 125.636 275.518 103.251C282.743 90.9909 284.179 85.3959 284.206 69.4219C284.227 56.6039 283.991 54.7479 281.418 47.4339C274.652 28.2079 260.26 13.8029 239.816 5.79493C232.814 3.05293 210.431 2.17893 201.991 4.31893ZM122.316 5.92193C121.216 6.39493 119.191 6.76793 117.816 6.75193L115.316 6.72293L117.816 5.92193C119.191 5.48193 121.216 5.10793 122.316 5.09193L124.316 5.06293L122.316 5.92193ZM10.7862 11.1719C10.7612 14.6529 10.5632 15.0919 9.69521 13.5999C8.72521 11.9309 9.20521 6.92193 10.3352 6.92193C10.6002 6.92193 10.8022 8.83493 10.7862 11.1719ZM24.0782 24.2369C24.5572 30.5329 24.4902 30.8469 23.1972 28.3549C21.3952 24.8809 20.3782 18.5029 21.2622 16.2099C22.3812 13.3049 23.4872 16.4559 24.0782 24.2369ZM118.316 17.9219C117.976 18.4719 116.712 18.9269 115.507 18.9329C114.302 18.9389 111.107 19.6139 108.407 20.4329C101.454 22.5419 100.607 22.2109 105.816 19.4219C110.334 17.0029 119.569 15.8939 118.316 17.9219ZM42.2902 31.4869C49.7292 38.9479 55.7882 45.3599 55.7532 45.7369C55.6572 46.7809 43.0852 57.3819 41.5592 57.7059C40.8222 57.8629 39.4692 56.5129 38.5532 54.7059C37.6362 52.8999 35.2872 48.6139 33.3332 45.1809C31.3792 41.7489 29.4902 36.8209 29.1352 34.2309C28.7802 31.6399 27.9312 28.4449 27.2492 27.1299C26.3962 25.4849 26.2912 23.7539 26.9122 21.5869C27.4092 19.8529 27.8162 18.3199 27.8162 18.1789C27.8162 17.1799 30.3262 19.4889 42.2902 31.4869ZM230.688 22.9539C241.041 25.8229 250.559 32.2739 256.099 40.1749C261.841 48.3659 263.51 52.1809 265.506 61.6729C267.11 69.3059 267.095 69.8389 265.02 78.7359C261.72 92.8859 255.523 101.788 243.499 109.649C238.094 113.183 234.852 114.48 227.845 115.916C219.885 117.547 218.223 117.59 211.08 116.351C201.757 114.733 196.673 112.617 189.347 107.309C183.112 102.79 177.536 95.5079 173.991 87.2539C170.947 80.1669 169.919 66.5949 171.778 58.0359C175.269 41.9699 188.99 27.7149 205.492 23.0099C214.4 20.4699 221.666 20.4539 230.688 22.9539ZM115.816 23.5119C115.816 23.8359 114.733 25.2989 113.409 26.7619C112.086 28.2249 108.097 32.7969 104.545 36.9219C100.993 41.0469 96.0162 46.6709 93.4842 49.4189C88.2672 55.0839 89.3982 55.4389 80.9992 45.4979L75.9952 39.5749L79.8972 36.7479C82.0432 35.1939 84.2532 33.9219 84.8072 33.9219C85.3622 33.9219 85.8162 33.4719 85.8162 32.9219C85.8162 32.3719 86.4302 31.9219 87.1812 31.9219C87.9322 31.9219 89.6952 31.0179 91.1002 29.9129C92.5052 28.8079 95.1532 27.6079 96.9852 27.2449C98.8172 26.8819 102.116 25.7709 104.316 24.7759C108.081 23.0719 115.816 22.2219 115.816 23.5119ZM69.0992 58.4639C72.6972 62.0619 76.1202 65.5839 76.7062 66.2889C77.5042 67.2509 76.7122 68.6889 73.5432 72.0309C71.2182 74.4839 67.8432 78.1619 66.0422 80.2059C64.2412 82.2499 62.4412 83.8849 62.0422 83.8399C61.6432 83.7949 58.6162 80.6419 55.3162 76.8329C52.0162 73.0239 48.7602 69.2749 48.0802 68.5009C47.0652 67.3449 48.1082 65.7419 53.9292 59.5079C57.8262 55.3359 61.3612 51.9219 61.7852 51.9219C62.2102 51.9219 65.5012 54.8659 69.0992 58.4639ZM50.7982 84.5649C53.0082 87.3939 54.8162 90.1329 54.8162 90.6519C54.8162 91.7559 48.0542 98.1209 42.3162 102.418C28.1782 113.004 21.6682 115.858 18.9972 112.64C17.7852 111.18 21.2902 104.96 34.2162 85.6229L42.1042 73.8239L44.4422 76.6229C45.7272 78.1619 48.5882 81.7359 50.7982 84.5649ZM94.9492 86.1719C104.639 98.3439 111.816 110.817 111.816 115.484C111.816 119.534 110.228 120.543 106.736 118.708C104.202 117.377 81.8072 100.763 78.3792 97.6719C77.3122 96.7089 76.0742 95.9219 75.6272 95.9219C75.1812 95.9219 74.8162 95.3719 74.8162 94.6999C74.8162 93.1799 87.8632 81.0049 89.5432 80.9569C90.2172 80.9379 92.6502 83.2839 94.9492 86.1719Z" fill="url(#paint6_linear_1_122)"/>
<path fill-rule="evenodd" clip-rule="evenodd" d="M11.1932 1.67193C7.89421 4.66593 5.81622 8.71393 5.81622 12.1509C5.81622 15.9929 8.73122 24.4349 11.8862 29.7279C13.0972 31.7599 14.8842 34.8229 15.8582 36.5349C19.4142 42.7889 20.3312 44.3409 21.0802 45.3709C32.3592 60.8869 34.8162 64.3849 34.8162 64.9219C34.8162 65.2759 31.8502 68.6829 28.2252 72.4929C19.3242 81.8509 9.99421 93.9219 5.01421 102.523C1.80621 108.063 0.768214 111.029 0.291214 116.023C-0.314786 122.364 -0.285785 122.461 3.49821 126.719C8.17021 131.977 15.5362 134.435 21.3112 132.662C24.8562 131.574 26.1352 128.67 23.5662 127.538C22.8792 127.235 24.0212 127.251 26.1062 127.573C28.6842 127.972 30.4432 127.696 31.6062 126.71C32.5462 125.913 35.4012 124.071 37.9492 122.618C40.4972 121.164 42.8452 119.288 43.1672 118.449C43.4902 117.609 44.2802 116.922 44.9232 116.922C45.5672 116.922 49.0682 114.529 52.7052 111.604C56.3412 108.678 60.6302 105.291 62.2372 104.075L65.1572 101.866L76.7372 113.251C95.2312 131.437 105.401 137.952 115.193 137.889C123.989 137.832 131.641 130.613 131.768 122.254C131.836 117.792 130.912 115.922 128.642 115.922C127.106 115.922 126.805 116.409 127.254 118.172C127.788 120.271 127.744 120.259 126.591 117.999C125.614 116.083 125.613 115.49 126.586 115.165C127.262 114.94 127.816 114.124 127.816 113.353C127.816 111.155 121.688 100.177 115.736 91.7139C112.755 87.4749 108.516 81.0729 106.316 77.4859C104.116 73.8999 101.978 70.9559 101.566 70.9439C100.01 70.8989 100.923 68.9809 104.066 65.6939C105.853 63.8239 110.466 58.3449 114.316 53.5179C118.166 48.6919 122.748 43.2759 124.498 41.4819C127.658 38.2429 128.714 35.0449 132.836 16.2229C134.378 9.17993 132.897 6.17993 126.316 3.02393L121.316 0.62593L114.816 2.88093C109.449 4.74293 94.5972 13.5119 90.1892 17.4219C89.5682 17.9719 88.0542 19.0969 86.8242 19.9219C85.5942 20.7469 81.4702 24.0099 77.6602 27.1719C73.8512 30.3349 70.4742 32.9219 70.1562 32.9219C69.8382 32.9219 64.6782 28.1009 58.6902 22.2079C52.7022 16.3149 47.0182 11.0659 46.0592 10.5429C45.1002 10.0209 44.0522 9.19693 43.7302 8.71393C42.9362 7.52293 29.1772 2.92193 26.4112 2.92193C25.1942 2.92193 23.3252 2.26093 22.2572 1.45393C19.5722 -0.577067 13.5412 -0.458068 11.1932 1.67193ZM201.991 4.31893C180.114 9.86593 161.167 28.1419 154.194 50.4219C151.377 59.4229 151.532 80.0539 154.484 88.9219C163.423 115.775 185.444 133.472 212.438 135.497C239.123 137.498 262.328 125.636 275.518 103.251C282.743 90.9909 284.179 85.3959 284.206 69.4219C284.227 56.6039 283.991 54.7479 281.418 47.4339C274.652 28.2079 260.26 13.8029 239.816 5.79493C232.814 3.05293 210.431 2.17893 201.991 4.31893ZM122.316 5.92193C121.216 6.39493 119.191 6.76793 117.816 6.75193L115.316 6.72293L117.816 5.92193C119.191 5.48193 121.216 5.10793 122.316 5.09193L124.316 5.06293L122.316 5.92193ZM10.7862 11.1719C10.7612 14.6529 10.5632 15.0919 9.69521 13.5999C8.72521 11.9309 9.20521 6.92193 10.3352 6.92193C10.6002 6.92193 10.8022 8.83493 10.7862 11.1719ZM24.0782 24.2369C24.5572 30.5329 24.4902 30.8469 23.1972 28.3549C21.3952 24.8809 20.3782 18.5029 21.2622 16.2099C22.3812 13.3049 23.4872 16.4559 24.0782 24.2369ZM118.316 17.9219C117.976 18.4719 116.712 18.9269 115.507 18.9329C114.302 18.9389 111.107 19.6139 108.407 20.4329C101.454 22.5419 100.607 22.2109 105.816 19.4219C110.334 17.0029 119.569 15.8939 118.316 17.9219ZM42.2902 31.4869C49.7292 38.9479 55.7882 45.3599 55.7532 45.7369C55.6572 46.7809 43.0852 57.3819 41.5592 57.7059C40.8222 57.8629 39.4692 56.5129 38.5532 54.7059C37.6362 52.8999 35.2872 48.6139 33.3332 45.1809C31.3792 41.7489 29.4902 36.8209 29.1352 34.2309C28.7802 31.6399 27.9312 28.4449 27.2492 27.1299C26.3962 25.4849 26.2912 23.7539 26.9122 21.5869C27.4092 19.8529 27.8162 18.3199 27.8162 18.1789C27.8162 17.1799 30.3262 19.4889 42.2902 31.4869ZM230.688 22.9539C241.041 25.8229 250.559 32.2739 256.099 40.1749C261.841 48.3659 263.51 52.1809 265.506 61.6729C267.11 69.3059 267.095 69.8389 265.02 78.7359C261.72 92.8859 255.523 101.788 243.499 109.649C238.094 113.183 234.852 114.48 227.845 115.916C219.885 117.547 218.223 117.59 211.08 116.351C201.757 114.733 196.673 112.617 189.347 107.309C183.112 102.79 177.536 95.5079 173.991 87.2539C170.947 80.1669 169.919 66.5949 171.778 58.0359C175.269 41.9699 188.99 27.7149 205.492 23.0099C214.4 20.4699 221.666 20.4539 230.688 22.9539ZM115.816 23.5119C115.816 23.8359 114.733 25.2989 113.409 26.7619C112.086 28.2249 108.097 32.7969 104.545 36.9219C100.993 41.0469 96.0162 46.6709 93.4842 49.4189C88.2672 55.0839 89.3982 55.4389 80.9992 45.4979L75.9952 39.5749L79.8972 36.7479C82.0432 35.1939 84.2532 33.9219 84.8072 33.9219C85.3622 33.9219 85.8162 33.4719 85.8162 32.9219C85.8162 32.3719 86.4302 31.9219 87.1812 31.9219C87.9322 31.9219 89.6952 31.0179 91.1002 29.9129C92.5052 28.8079 95.1532 27.6079 96.9852 27.2449C98.8172 26.8819 102.116 25.7709 104.316 24.7759C108.081 23.0719 115.816 22.2219 115.816 23.5119ZM69.0992 58.4639C72.6972 62.0619 76.1202 65.5839 76.7062 66.2889C77.5042 67.2509 76.7122 68.6889 73.5432 72.0309C71.2182 74.4839 67.8432 78.1619 66.0422 80.2059C64.2412 82.2499 62.4412 83.8849 62.0422 83.8399C61.6432 83.7949 58.6162 80.6419 55.3162 76.8329C52.0162 73.0239 48.7602 69.2749 48.0802 68.5009C47.0652 67.3449 48.1082 65.7419 53.9292 59.5079C57.8262 55.3359 61.3612 51.9219 61.7852 51.9219C62.2102 51.9219 65.5012 54.8659 69.0992 58.4639ZM50.7982 84.5649C53.0082 87.3939 54.8162 90.1329 54.8162 90.6519C54.8162 91.7559 48.0542 98.1209 42.3162 102.418C28.1782 113.004 21.6682 115.858 18.9972 112.64C17.7852 111.18 21.2902 104.96 34.2162 85.6229L42.1042 73.8239L44.4422 76.6229C45.7272 78.1619 48.5882 81.7359 50.7982 84.5649ZM94.9492 86.1719C104.639 98.3439 111.816 110.817 111.816 115.484C111.816 119.534 110.228 120.543 106.736 118.708C104.202 117.377 81.8072 100.763 78.3792 97.6719C77.3122 96.7089 76.0742 95.9219 75.6272 95.9219C75.1812 95.9219 74.8162 95.3719 74.8162 94.6999C74.8162 93.1799 87.8632 81.0049 89.5432 80.9569C90.2172 80.9379 92.6502 83.2839 94.9492 86.1719Z" fill="url(#paint7_linear_1_122)"/>
<defs>
<linearGradient id="paint0_linear_1_122" x1="1.58813e-06" y1="68.9447" x2="284.207" y2="68.9447" gradientUnits="userSpaceOnUse">
<stop stop-color="#F7797D"/>
<stop offset="0.520833" stop-color="#C471ED"/>
<stop offset="1" stop-color="#12C2E9"/>
</linearGradient>
<linearGradient id="paint1_linear_1_122" x1="1.58813e-06" y1="68.9447" x2="284.207" y2="68.9447" gradientUnits="userSpaceOnUse">
<stop stop-color="#F7797D"/>
<stop offset="0.520833" stop-color="#C471ED"/>
<stop offset="1" stop-color="#12C2E9"/>
</linearGradient>
<linearGradient id="paint2_linear_1_122" x1="1.58813e-06" y1="68.9447" x2="284.207" y2="68.9447" gradientUnits="userSpaceOnUse">
<stop stop-color="#F7797D"/>
<stop offset="0.520833" stop-color="#C471ED"/>
<stop offset="1" stop-color="#12C2E9"/>
</linearGradient>
<linearGradient id="paint3_linear_1_122" x1="1.58813e-06" y1="68.9447" x2="284.207" y2="68.9447" gradientUnits="userSpaceOnUse">
<stop stop-color="#F7797D"/>
<stop offset="0.520833" stop-color="#C471ED"/>
<stop offset="1" stop-color="#12C2E9"/>
</linearGradient>
<linearGradient id="paint4_linear_1_122" x1="1.58813e-06" y1="68.9447" x2="284.207" y2="68.9447" gradientUnits="userSpaceOnUse">
<stop stop-color="#F7797D"/>
<stop offset="0.520833" stop-color="#C471ED"/>
<stop offset="1" stop-color="#12C2E9"/>
</linearGradient>
<linearGradient id="paint5_linear_1_122" x1="1.58813e-06" y1="68.9447" x2="284.207" y2="68.9447" gradientUnits="userSpaceOnUse">
<stop stop-color="#F7797D"/>
<stop offset="0.520833" stop-color="#C471ED"/>
<stop offset="1" stop-color="#12C2E9"/>
</linearGradient>
<linearGradient id="paint6_linear_1_122" x1="1.58813e-06" y1="68.9447" x2="284.207" y2="68.9447" gradientUnits="userSpaceOnUse">
<stop stop-color="#F7797D"/>
<stop offset="0.520833" stop-color="#C471ED"/>
<stop offset="1" stop-color="#12C2E9"/>
</linearGradient>
<linearGradient id="paint7_linear_1_122" x1="1.58813e-06" y1="68.9447" x2="284.207" y2="68.9447" gradientUnits="userSpaceOnUse">
<stop stop-color="#F7797D"/>
<stop offset="0.520833" stop-color="#C471ED"/>
<stop offset="1" stop-color="#12C2E9"/>
</linearGradient>
</defs>
</svg>
